<?xml version="1.0" standalone="no"?>
<!DOCTYPE svg PUBLIC "-//W3C//DTD SVG 1.1//EN" "http://www.w3.org/Graphics/SVG/1.1/DTD/svg11.dtd" >
<svg>
<metadata>
Created by FontForge 20090622 at Thu Jun  8 19:36:15 2017
 By deploy user
Copyright (c) The Font Bureau, Inc., 2010. All rights reserved.
</metadata>
<defs>
<font id="HeronSerif-SemiBold" horiz-adv-x="620" >
  <font-face 
    font-family="HeronSerif SemiBold"
    font-weight="600"
    font-stretch="normal"
    units-per-em="1000"
    panose-1="2 0 5 3 0 0 0 2 0 4"
    ascent="800"
    descent="-200"
    x-height="536"
    cap-height="750"
    bbox="-53 -277 1271 1017"
    underline-thickness="50"
    underline-position="-50"
    unicode-range="U+0020-U+FB04"
  />
<missing-glyph horiz-adv-x="500" 
d="M0 0v700h500v-700h-500zM50 650v-600h400v600h-400z" />
    <glyph glyph-name="f_f" unicode="ff" horiz-adv-x="708" 
d="M32 0v117h75v297h-75v122h75v69q0 89 38.5 132t138.5 43h69v-125h-52q-30 0 -40 -14t-10 -45v-60h169v69q0 89 38.5 132t137.5 43h92v-125h-74q-30 0 -40 -14t-10 -45v-60h124v-122h-124v-297h124v-117h-316v117h48v297h-169v-297h48v-117h-267z" />
    <glyph glyph-name="f_i" unicode="fi" horiz-adv-x="648" 
d="M372 0v117h48v297h-169v-297h48v-117h-267v117h75v297h-75v122h75v69q0 89 38.5 132t138.5 43h60v-125h-43q-30 0 -40 -14t-10 -45v-60h313v-419h69v-117h-261zM419 600v139h146v-139h-146z" />
    <glyph glyph-name="f_l" unicode="fl" horiz-adv-x="648" 
d="M32 0v117h75v297h-75v122h75v69q0 89 38.5 132t138.5 43h42v-125h-25q-30 0 -40 -14t-10 -45v-60h86v-122h-86v-297h58v-117h-277zM372 0v117h48v538h-48v125h192v-663h69v-117h-261z" />
    <glyph glyph-name="f_f_i" unicode="ffi" horiz-adv-x="960" 
d="M685 0v117h47v297h-168v-297h47v-117h-239v117h48v297h-169v-297h48v-117h-267v117h75v297h-75v122h75v69q0 89 38.5 132t138.5 43h69v-125h-52q-30 0 -40 -14t-10 -45v-60h169v69q0 89 38.5 132t137.5 43h60v-125h-42q-30 0 -40 -14t-10 -45v-60h312v-419h69v-117h-260z
M731 600v139h146v-139h-146z" />
    <glyph glyph-name="f_f_l" unicode="ffl" horiz-adv-x="960" 
d="M32 0v117h75v297h-75v122h75v69q0 89 38.5 132t138.5 43h69v-125h-52q-30 0 -40 -14t-10 -45v-60h169v69q0 89 38.5 132t137.5 43h43v-125h-25q-30 0 -40 -14t-10 -45v-60h85v-122h-85v-297h57v-117h-249v117h48v297h-169v-297h48v-117h-267zM685 0v117h47v538h-48v125
h192v-663h69v-117h-260z" />
    <glyph glyph-name="f_j" unicode="fj" horiz-adv-x="612" 
d="M355 -198v113h18q27 0 36 13t9 46v440h-167v-297h93v-117h-312v117h75v297h-75v122h75v69q0 89 38.5 132t138.5 43h60v-125h-43q-30 0 -40 -14t-10 -45v-60h311v-571q0 -84 -39 -123.5t-132 -39.5h-36zM418 600v139h145v-139h-145z" />
    <glyph glyph-name="f_t" unicode="ft" horiz-adv-x="703" 
d="M584 0q-100 0 -135 39t-35 132v243h-163v-297h88v-117h-307v117h75v297h-75v122h75v69q0 89 38.5 132t138.5 43h56v-125h-39q-30 0 -40 -14t-10 -45v-60h163v165h143v-165h125v-122h-125v-240q0 -32 9 -44.5t37 -12.5h79v-117h-98z" />
    <glyph glyph-name=".notdef" horiz-adv-x="500" 
d="M0 0v700h500v-700h-500zM50 650v-600h400v600h-400z" />
    <glyph glyph-name=".null" horiz-adv-x="0" 
 />
    <glyph glyph-name="nonmarkingreturn" horiz-adv-x="333" 
 />
    <glyph glyph-name="space" unicode=" " horiz-adv-x="179" 
 />
    <glyph glyph-name="exclam" unicode="!" horiz-adv-x="327" 
d="M87 0v144h153v-144h-153zM96 210l-7 540h150l-7 -540h-136z" />
    <glyph glyph-name="quotedbl" unicode="&#x22;" horiz-adv-x="487" 
d="M77 478l-7 272h129l-7 -272h-115zM295 478l-8 272h129l-8 -272h-113z" />
    <glyph glyph-name="numbersign" unicode="#" horiz-adv-x="680" 
d="M105 0l23 204h-74v118h88l12 102h-100v119h113l25 207h133l-26 -207h118l25 207h132l-25 -207h77v-119h-90l-12 -102h102v-118h-115l-24 -204h-133l24 204h-117l-24 -204h-132zM272 320h122l13 106h-122z" />
    <glyph glyph-name="dollar" unicode="$" horiz-adv-x="595" 
d="M226 -124v128q-49 12 -79 46v-50h-111v238h124q9 -71 40.5 -97t95.5 -26q68 0 97.5 24t29.5 76q0 46 -30.5 67t-104.5 42q-38 10 -55 15t-49 16.5t-47.5 21.5t-37.5 27t-32 36t-18 46t-8 60q0 180 185 204v125h131v-128q47 -10 73 -42v45h111v-225h-124q-4 59 -33.5 82.5
t-88.5 23.5q-56 0 -84.5 -19t-28.5 -62q0 -19 8 -33.5t17.5 -23.5t32.5 -18t37.5 -13l48.5 -13q48 -13 75.5 -21.5t63 -27t54 -40.5t32 -58t13.5 -84q0 -100 -48.5 -155t-158.5 -64v-123h-131z" />
    <glyph glyph-name="percent" unicode="%" horiz-adv-x="943" 
d="M202 298q-78 0 -121.5 38t-43.5 115v153q0 77 43.5 115.5t121.5 38.5q76 0 119.5 -38.5t43.5 -115.5v-153q0 -77 -43.5 -115t-119.5 -38zM202 395q28 0 39 15t11 48v138q0 33 -11 47.5t-39 14.5t-40 -15t-12 -47v-138q0 -33 11.5 -48t40.5 -15zM743 -8q-78 0 -121.5 38.5
t-43.5 115.5v153q0 77 44 115t121 38t120 -38t43 -115v-153q0 -77 -43 -115.5t-120 -38.5zM743 90q28 0 39 14.5t11 47.5v138q0 33 -11 47.5t-39 14.5t-40 -14.5t-12 -47.5v-138q0 -33 11.5 -47.5t40.5 -14.5zM225 0l360 750h133l-360 -750h-133z" />
    <glyph glyph-name="ampersand" unicode="&#x26;" horiz-adv-x="668" 
d="M285 -7q-140 0 -200.5 53t-60.5 158q0 75 35.5 125t107.5 86q-32 44 -44.5 79t-12.5 79q0 185 200 185q104 0 146.5 -45t42.5 -136q0 -63 -33.5 -110.5t-106.5 -87.5l111 -139q23 58 38 164h118q-24 -167 -75 -264l113 -140h-164l-32 40q-67 -47 -183 -47zM285 111
q65 0 106 23l-155 194q-42 -24 -59.5 -53t-17.5 -69q0 -95 126 -95zM241 577q0 -30 10 -52.5t42 -63.5q50 28 66.5 53.5t16.5 61.5q0 72 -66 72q-69 0 -69 -71z" />
    <glyph glyph-name="quotesingle" unicode="'" horiz-adv-x="277" 
d="M77 478l-7 272h136l-7 -272h-122z" />
    <glyph glyph-name="parenleft" unicode="(" horiz-adv-x="381" 
d="M287 -198q-126 0 -179.5 61t-53.5 192v466q0 131 54 191t179 60h72v-123h-72q-53 0 -73 -29.5t-20 -105.5v-452q0 -76 20 -106.5t73 -30.5h72v-123h-72z" />
    <glyph glyph-name="parenright" unicode=")" horiz-adv-x="381" 
d="M23 -198v123h71q53 0 72.5 30t19.5 107v452q0 76 -19.5 105.5t-72.5 29.5h-71v123h71q126 0 180 -60t54 -191v-466q0 -131 -54 -192t-180 -61h-71z" />
    <glyph glyph-name="asterisk" unicode="*" horiz-adv-x="518" 
d="M168 315l-88 68l100 125l-153 48l32 96l153 -59l-7 160h109l-7 -160l155 58l32 -95l-155 -48l103 -125l-88 -68l-95 138z" />
    <glyph glyph-name="plus" unicode="+" horiz-adv-x="554" 
d="M214 156v163h-151v116h151v159h126v-159h152v-116h-152v-163h-126z" />
    <glyph glyph-name="comma" unicode="," horiz-adv-x="283" 
d="M81 -123l49 123h-71v169h165v-169l-49 -123h-94z" />
    <glyph glyph-name="hyphen" unicode="-" horiz-adv-x="438" 
d="M31 259v124h375v-124h-375z" />
    <glyph glyph-name="period" unicode="." horiz-adv-x="283" 
d="M59 0v169h165v-169h-165z" />
    <glyph glyph-name="slash" unicode="/" horiz-adv-x="436" 
d="M-13 0l321 750h141l-323 -750h-139z" />
    <glyph glyph-name="zero" unicode="0" horiz-adv-x="617" 
d="M309 -8q-128 0 -198 64t-70 192v254q0 129 70.5 192.5t197.5 63.5t197 -63.5t70 -192.5v-254q0 -128 -70 -192t-197 -64zM309 118q65 0 92.5 33.5t27.5 104.5v234q0 72 -27.5 105.5t-92.5 33.5t-93 -33.5t-28 -105.5v-234q0 -71 28 -104.5t93 -33.5z" />
    <glyph glyph-name="one" unicode="1" horiz-adv-x="363" 
d="M39 0v124h80v498h-87v128h234v-626h68v-124h-295z" />
    <glyph glyph-name="two" unicode="2" horiz-adv-x="563" 
d="M32 0v115q0 59 19.5 106t50.5 77.5t68.5 55t75.5 44t69 39t50.5 46.5t19.5 60q0 47 -25 68t-79 21q-51 0 -78.5 -26.5t-31.5 -90.5l-139 14q14 229 246 229q77 0 128 -16t76.5 -47.5t35 -67t9.5 -84.5q0 -50 -19.5 -90.5t-50.5 -67.5t-69 -50t-75.5 -43.5t-68.5 -41
t-50.5 -49t-19.5 -62.5v-22h237v112h124v-229h-503z" />
    <glyph glyph-name="three" unicode="3" horiz-adv-x="589" 
d="M293 -8q-140 0 -197.5 60t-67.5 175l141 14q6 -65 34.5 -95.5t89.5 -30.5q60 0 88 26t28 84t-24.5 81t-83.5 23h-115v122h114q56 0 78 22.5t22 69.5q0 43 -24.5 65.5t-83.5 22.5t-86 -27.5t-32 -86.5l-137 14q9 109 67 168t189 59q135 0 192.5 -48t57.5 -141
q0 -69 -22 -107.5t-78 -58.5q61 -18 84.5 -61.5t23.5 -125.5q0 -113 -62 -168.5t-196 -55.5z" />
    <glyph glyph-name="four" unicode="4" horiz-adv-x="610" 
d="M280 0v124h87v85h-338v114l291 427h152l-293 -427h188v131h133v-131h85v-114h-85v-85h85v-124h-305z" />
    <glyph glyph-name="five" unicode="5" horiz-adv-x="582" 
d="M392 543v88h-203l-6 -167q20 14 57.5 24t75.5 10q56 0 95 -9.5t70.5 -33t47 -68t15.5 -111.5v-49q0 -124 -60 -179.5t-191 -55.5q-136 0 -192 54.5t-68 179.5l139 13q5 -66 32 -95t89 -29q58 0 85 27.5t27 83.5v38q0 62 -27.5 89t-89.5 27q-71 0 -119 -25l-119 42l11 353
h458v-207h-127z" />
    <glyph glyph-name="six" unicode="6" horiz-adv-x="591" 
d="M300 -8q-120 0 -189 57.5t-69 172.5v280q0 129 66 192.5t189 63.5q115 0 181 -48t75 -159l-139 -13q-4 52 -31.5 72.5t-85.5 20.5q-114 0 -114 -123v-79q43 58 145 58q115 0 173 -53.5t58 -169.5v-38q0 -234 -259 -234zM300 119q57 0 87.5 28.5t30.5 82.5v24
q0 111 -118 111q-117 0 -117 -111v-24q0 -111 117 -111z" />
    <glyph glyph-name="seven" unicode="7" horiz-adv-x="535" 
d="M35 543v207h479v-119l-239 -631h-147l238 631h-204v-88h-127z" />
    <glyph glyph-name="eight" unicode="8" horiz-adv-x="597" 
d="M299 -8q-138 0 -200.5 56.5t-62.5 142.5v36q0 66 24.5 110t86.5 67q-57 21 -81 56.5t-24 89.5v29q0 80 65.5 129.5t191.5 49.5q127 0 191.5 -48t64.5 -131v-29q0 -107 -106 -146q63 -23 88 -67t25 -110v-36q0 -85 -63 -142t-200 -57zM299 109q60 0 91.5 27t31.5 73v28
q0 47 -31.5 75t-91.5 28t-91.5 -28t-31.5 -75v-28q0 -46 31 -73t92 -27zM299 450q56 0 85.5 23.5t29.5 62.5v16q0 39 -29.5 62.5t-85.5 23.5q-57 0 -86.5 -23t-29.5 -63v-16q0 -40 29.5 -63t86.5 -23z" />
    <glyph glyph-name="nine" unicode="9" horiz-adv-x="591" 
d="M293 -8q-115 0 -180 48t-74 159l139 13q5 -52 31 -74.5t84 -22.5q116 0 116 125v81q-37 -57 -145 -57q-115 0 -173 53t-58 170v37q0 234 258 234q121 0 189.5 -57.5t68.5 -172.5v-280q0 -256 -256 -256zM291 381q118 0 118 109v25q0 112 -118 112q-57 0 -87.5 -28.5
t-30.5 -83.5v-25q0 -109 118 -109z" />
    <glyph glyph-name="colon" unicode=":" horiz-adv-x="290" 
d="M66 0v162h158v-162h-158zM66 374v162h158v-162h-158z" />
    <glyph glyph-name="semicolon" unicode=";" horiz-adv-x="290" 
d="M81 -123l49 123h-64v162h158v-162l-49 -123h-94zM66 374v162h158v-162h-158z" />
    <glyph glyph-name="less" unicode="&#x3c;" horiz-adv-x="554" 
d="M492 152l-429 158v125l429 161v-119l-302 -105l302 -103v-117z" />
    <glyph glyph-name="equal" unicode="=" horiz-adv-x="554" 
d="M63 213v119h429v-119h-429zM63 422v119h429v-119h-429z" />
    <glyph glyph-name="greater" unicode="&#x3e;" horiz-adv-x="554" 
d="M64 152v117l302 103l-302 105v119l430 -161v-125z" />
    <glyph glyph-name="question" unicode="?" horiz-adv-x="556" 
d="M183 210v31q0 37 6.5 63t25.5 50t35 38t54 44q46 36 61 56.5t15 57.5q0 83 -99 83q-54 0 -80 -26t-31 -89l-139 14q9 111 63.5 168.5t183.5 57.5q123 0 183.5 -47t60.5 -158q0 -36 -9 -65t-31.5 -55.5t-34.5 -37.5t-43 -37q-47 -38 -63.5 -60t-16.5 -57v-31h-141zM177 0
v144h153v-144h-153z" />
    <glyph glyph-name="at" unicode="@" horiz-adv-x="873" 
d="M569 -171h-134q-185 0 -282.5 85.5t-97.5 243.5v263q0 158 98.5 243.5t281.5 85.5q184 0 280.5 -85.5t96.5 -243.5v-230q0 -141 -151 -141h-26q-87 0 -117 61q-36 -70 -130 -70q-92 0 -130 46.5t-38 133.5v143q0 88 38 134t134 46q66 0 108 -57v49h132v-338
q0 -40 9.5 -54.5t36.5 -14.5q28 0 38 15t10 55v216q0 124 -73 188.5t-218 64.5t-219 -64.5t-74 -188.5v-251q0 -123 73.5 -187.5t219.5 -64.5h134v-83zM426 148q71 0 74 67v149q0 33 -18.5 52t-55.5 19q-74 0 -74 -74v-140q0 -73 74 -73z" />
    <glyph glyph-name="A" unicode="A" horiz-adv-x="659" 
d="M15 0v124h45l172 626h196l172 -626h44v-124h-268v120h79l-30 110h-198l-30 -110h69v-120h-251zM257 348h138l-68 253h-2z" />
    <glyph glyph-name="B" unicode="B" horiz-adv-x="643" 
d="M32 0v124h64v498h-64v128h315q117 0 177.5 -39t60.5 -133v-28q0 -119 -108 -143q69 -12 97.5 -51t28.5 -109v-55q0 -97 -57 -144.5t-179 -47.5h-335zM240 113h124q53 0 74.5 19.5t21.5 69.5v47q0 50 -22.5 69.5t-73.5 19.5h-124v-225zM240 448h110q49 0 71 16.5t22 59.5
v34q0 43 -22 59.5t-71 16.5h-110v-186z" />
    <glyph glyph-name="C" unicode="C" horiz-adv-x="621" 
d="M309 -8q-123 0 -195.5 64.5t-72.5 191.5v254q0 127 70.5 191.5t184.5 64.5q115 0 160 -55v47h114v-236h-127q-9 64 -34.5 89t-92.5 25q-70 0 -99 -35.5t-29 -105.5v-228q0 -69 28 -104.5t93 -35.5q64 0 91.5 28t32.5 97l141 -18q-14 -124 -75.5 -179t-189.5 -55z" />
    <glyph glyph-name="D" unicode="D" horiz-adv-x="657" 
d="M32 0v124h64v498h-64v128h318q266 0 266 -250v-250q0 -250 -266 -250h-318zM243 121h106q66 0 93 32.5t27 105.5v228q0 73 -26.5 105.5t-92.5 32.5h-107v-504z" />
    <glyph glyph-name="E" unicode="E" horiz-adv-x="616" 
d="M32 0v124h64v498h-64v128h531v-225h-129v101h-191v-174h196v-128h-196v-205h197v119h130v-238h-538z" />
    <glyph glyph-name="F" unicode="F" horiz-adv-x="599" 
d="M32 0v124h64v498h-64v128h531v-225h-129v101h-191v-177h201v-128h-201v-197h71v-124h-282z" />
    <glyph glyph-name="G" unicode="G" horiz-adv-x="635" 
d="M308 -8q-123 0 -195 64.5t-72 191.5v254q0 127 70.5 191.5t184.5 64.5q117 0 159 -55v47h114v-236h-127q-7 66 -32.5 90.5t-93.5 24.5t-98 -35.5t-30 -103.5v-231q0 -142 120 -142q75 0 103.5 31.5t28.5 110.5v30h-134v119h268v-151q0 -265 -266 -265z" />
    <glyph glyph-name="H" unicode="H" horiz-adv-x="718" 
d="M32 0v124h64v498h-64v128h272v-128h-61v-150h231v150h-60v128h272v-128h-65v-498h65v-124h-272v124h60v210h-231v-210h61v-124h-272z" />
    <glyph glyph-name="I" unicode="I" horiz-adv-x="365" 
d="M32 0v124h80v498h-80v128h301v-128h-74v-498h75v-124h-302z" />
    <glyph glyph-name="J" unicode="J" horiz-adv-x="384" 
d="M22 0v124h33q62 0 80 22.5t18 94.5v381h-56v128h255v-128h-53v-382q0 -66 -9.5 -108t-35.5 -73.5t-73.5 -45t-122.5 -13.5h-36z" />
    <glyph glyph-name="K" unicode="K" horiz-adv-x="658" 
d="M416 0v124h20l-121 215l-72 -77v-138h64v-124h-275v124h64v498h-64v128h268v-124h-57v-212l203 212h-37v124h222v-128h-39l-173 -181l178 -317h46v-124h-227z" />
    <glyph glyph-name="L" unicode="L" horiz-adv-x="598" 
d="M32 0v124h64v498h-64v128h283v-128h-72v-503h190v119h130v-238h-531z" />
    <glyph glyph-name="M" unicode="M" horiz-adv-x="881" 
d="M32 0v124h64v498h-64v128h289l121 -503h2l123 503h283v-128h-65v-498h65v-124h-260v124h51v441h-2l-134 -565h-133l-138 565h-2v-441h55v-124h-255z" />
    <glyph glyph-name="N" unicode="N" horiz-adv-x="712" 
d="M32 0v124h64v498h-64v128h226l227 -461h2v333h-59v128h252v-128h-59v-622h-144l-242 494h-2v-370h64v-124h-265z" />
    <glyph glyph-name="O" unicode="O" horiz-adv-x="630" 
d="M315 -8q-130 0 -202 64t-72 192v254q0 128 72.5 192t201.5 64t201.5 -64t72.5 -192v-254q0 -128 -72.5 -192t-201.5 -64zM315 119q67 0 97 34t30 106v228q0 73 -30 107t-97 34t-97 -34t-30 -107v-228q0 -72 30 -106t97 -34z" />
    <glyph glyph-name="P" unicode="P" horiz-adv-x="640" 
d="M32 0v124h64v498h-64v128h318q133 0 193 -49t60 -156v-64q0 -107 -60.5 -156.5t-192.5 -49.5h-107v-151h68v-124h-279zM243 393h112q58 0 81.5 20t23.5 72v49q0 52 -23.5 72t-81.5 20h-112v-233z" />
    <glyph glyph-name="Q" unicode="Q" horiz-adv-x="630" 
d="M315 -5q-130 0 -202 62.5t-72 190.5v254q0 128 72.5 192t201.5 64t201.5 -64t72.5 -192v-254q0 -138 -93 -204l82 -168h-154l-59 122q-24 -3 -50 -3zM315 117q70 0 98.5 33t28.5 108v229q0 73 -30 107t-97 34t-97 -34t-30 -107v-229q0 -72 30 -106.5t97 -34.5z" />
    <glyph glyph-name="R" unicode="R" horiz-adv-x="657" 
d="M405 0v124h18l-83 155h-97v-155h52v-124h-263v124h64v498h-64v128h321q132 0 191.5 -49t59.5 -157v-59q0 -138 -122 -183l96 -178h64v-124h-237zM243 397h114q59 0 82 20t23 73v44q0 52 -23 72t-82 20h-114v-229z" />
    <glyph glyph-name="S" unicode="S" horiz-adv-x="606" 
d="M311 -8q-108 0 -157 58v-50h-112v238h125q7 -71 38.5 -97t96.5 -26q68 0 97.5 24t29.5 76q0 46 -30.5 67t-104.5 42q-38 10 -55 15t-49 16.5t-47.5 21.5t-37.5 27t-32 36t-18 46t-8 60q0 99 60 155.5t184 56.5q102 0 146 -53v45h110v-225h-124q-5 59 -34 82.5t-88 23.5
q-56 0 -84.5 -19t-28.5 -62q0 -19 8 -33.5t17.5 -23.5t32.5 -18t37.5 -13l48.5 -13q48 -13 75 -21.5t63 -27t54.5 -40.5t32 -58t13.5 -84q0 -111 -60.5 -168.5t-198.5 -57.5z" />
    <glyph glyph-name="T" unicode="T" horiz-adv-x="665" 
d="M190 0v124h69v510h-94v-109h-129v225h594v-225h-130v109h-94v-510h69v-124h-285z" />
    <glyph glyph-name="U" unicode="U" horiz-adv-x="689" 
d="M346 -8q-262 0 -262 256v374h-52v128h262v-128h-64v-362q0 -73 25.5 -106t90.5 -33q66 0 91.5 33t25.5 106v362h-59v128h254v-128h-53v-374q0 -256 -259 -256z" />
    <glyph glyph-name="V" unicode="V" horiz-adv-x="659" 
d="M233 0l-173 622h-45v128h268v-128h-77l126 -466h2l125 466h-66v128h251v-128h-48l-171 -622h-192z" />
    <glyph glyph-name="W" unicode="W" horiz-adv-x="945" 
d="M201 0l-141 622h-45v128h264v-128h-75l89 -407h2l106 535h154l105 -535h2l90 407h-76v128h254v-128h-46l-140 -622h-166l-104 500h-2l-106 -500h-165z" />
    <glyph glyph-name="X" unicode="X" horiz-adv-x="648" 
d="M15 0v124h46l182 248l-178 250h-37v128h253v-124h-54l107 -151l107 151h-51v124h230v-128h-36l-180 -244l183 -254h46v-124h-262v120h53l-111 156l-110 -156h58v-120h-246z" />
    <glyph glyph-name="Y" unicode="Y" horiz-adv-x="646" 
d="M185 0v124h65v177l-194 321h-41v128h266v-128h-74l122 -210h2l123 210h-64v128h241v-128h-43l-192 -321v-177h63v-124h-274z" />
    <glyph glyph-name="Z" unicode="Z" horiz-adv-x="581" 
d="M34 0v115l338 518h-200v-108h-127v225h493v-119l-338 -518h221v125h127v-238h-514z" />
    <glyph glyph-name="bracketleft" unicode="[" horiz-adv-x="381" 
d="M54 -198v970h302v-123h-161v-724h161v-123h-302z" />
    <glyph glyph-name="backslash" unicode="\" horiz-adv-x="436" 
d="M310 0l-323 750h141l321 -750h-139z" />
    <glyph glyph-name="bracketright" unicode="]" horiz-adv-x="381" 
d="M25 -198v123h162v724h-162v123h302v-970h-302z" />
    <glyph glyph-name="asciicircum" unicode="^" horiz-adv-x="554" 
d="M41 315l160 435h151l161 -435h-131l-107 305l-104 -305h-130z" />
    <glyph glyph-name="underscore" unicode="_" horiz-adv-x="435" 
d="M-31 -152v113h497v-113h-497z" />
    <glyph glyph-name="grave" unicode="`" horiz-adv-x="500" 
d="M189 576l-108 177h139l92 -177h-123z" />
    <glyph glyph-name="a" unicode="a" horiz-adv-x="541" 
d="M196 -7q-168 0 -168 166q0 87 54.5 128.5t185.5 41.5h66v37q0 33 -13.5 48.5t-54.5 15.5q-44 0 -59 -12t-23 -48l-139 22q16 83 66 117.5t161 34.5q113 0 158 -43.5t45 -138.5v-245h51v-117h-192v57q-42 -64 -138 -64zM258 103q77 0 77 76v52h-72q-53 0 -74.5 -14.5
t-21.5 -48.5q0 -37 20 -51t71 -14z" />
    <glyph glyph-name="b" unicode="b" horiz-adv-x="569" 
d="M341 -8q-83 0 -123 61v-53h-186v117h42v538h-53v125h197v-301q44 65 134 65q101 0 143 -50.5t42 -146.5v-158q0 -94 -45 -145.5t-151 -51.5zM307 110q86 0 86 81v155q0 81 -86 81q-42 0 -65.5 -20t-23.5 -56v-160q0 -38 23 -59.5t66 -21.5z" />
    <glyph glyph-name="c" unicode="c" horiz-adv-x="501" 
d="M256 -8q-120 0 -172 56t-52 148v144q0 93 50.5 148.5t160.5 55.5q79 0 113 -39v31h107v-188h-120q-5 45 -21 61t-62 16q-85 0 -85 -82v-154q0 -81 81 -81q46 0 61 16t22 60l125 -18q-6 -41 -16 -68.5t-31.5 -53.5t-61.5 -39t-99 -13z" />
    <glyph glyph-name="d" unicode="d" horiz-adv-x="570" 
d="M219 -8q-101 0 -144 51t-43 146v158q0 96 43 146.5t149 50.5q82 0 128 -63v174h-61v125h205v-663h59v-117h-203v54q-41 -62 -133 -62zM262 108q42 0 65 19.5t25 55.5v164q0 36 -24 57t-66 21t-64 -21.5t-22 -60.5v-154q0 -81 86 -81z" />
    <glyph glyph-name="e" unicode="e" horiz-adv-x="508" 
d="M256 -8q-117 0 -170.5 56.5t-53.5 147.5v144q0 93 53 148.5t171 55.5q120 0 170 -57.5t50 -165.5v-96h-304v-44q0 -39 18 -60t66 -21q47 0 62.5 16.5t20.5 56.5l137 -21q-20 -160 -220 -160zM172 326h165v27q0 41 -18.5 60t-62.5 19q-84 0 -84 -79v-27z" />
    <glyph glyph-name="f" unicode="f" horiz-adv-x="396" 
d="M32 0v117h75v297h-75v122h75v69q0 89 38.5 132t138.5 43h91v-125h-74q-30 0 -40 -14t-10 -45v-60h124v-122h-124v-297h124v-117h-343z" />
    <glyph glyph-name="g" unicode="g" horiz-adv-x="517" 
d="M256 176h-19q-27 0 -35 -5.5t-8 -19.5t7.5 -19t32.5 -5l54 -2q125 -3 168.5 -37.5t43.5 -112.5v-12q0 -34 -10 -61t-35 -51t-75 -37.5t-123 -13.5q-76 0 -125.5 10t-74 30.5t-33.5 44t-9 57.5v12q0 72 78 109q-17 24 -17 62q0 51 39 77q-82 40 -82 139v34q0 167 220 167
q44 0 77 -6h170v-122h-46q14 -28 14 -54v-21q0 -163 -212 -163zM253 270q87 0 87 76v18q0 71 -87 71q-85 0 -85 -71v-20q0 -37 19 -55.5t66 -18.5zM174 16h-1q-25 -20 -25 -53v-9q0 -28 22.5 -42t86.5 -14q65 0 88 13t23 41v9q0 28 -19.5 39t-86.5 13z" />
    <glyph glyph-name="h" unicode="h" horiz-adv-x="596" 
d="M32 0v117h42v538h-53v125h197v-307q48 71 144 71q168 0 168 -158v-269h51v-117h-242v117h48v245q0 28 -21.5 44t-61.5 16q-35 0 -60.5 -18.5t-25.5 -48.5v-238h48v-117h-234z" />
    <glyph glyph-name="i" unicode="i" horiz-adv-x="323" 
d="M32 0v117h63v297h-63v122h207v-419h69v-117h-276zM94 600v139h146v-139h-146z" />
    <glyph glyph-name="j" unicode="j" horiz-adv-x="278" 
d="M21 -198v113h18q27 0 36 13t9 46v440h-63v122h207v-571q0 -84 -39.5 -123.5t-131.5 -39.5h-36zM83 600v139h146v-139h-146z" />
    <glyph glyph-name="k" unicode="k" horiz-adv-x="564" 
d="M21 655v125h197v-472l129 114h-40v114h222v-122h-40l-113 -97l135 -200h38v-117h-220v113h31l-85 124l-57 -50v-74h38v-113h-224v117h42v538h-53z" />
    <glyph glyph-name="l" unicode="l" horiz-adv-x="315" 
d="M32 0v117h55v538h-66v125h209v-663h70v-117h-268z" />
    <glyph glyph-name="m" unicode="m" horiz-adv-x="905" 
d="M32 0v117h53v297h-53v122h197v-61q46 69 140 69q116 0 146 -73q53 73 159 73q91 0 128 -42t37 -116v-269h51v-117h-239v117h44v245q0 60 -78 60q-34 0 -58.5 -18.5t-24.5 -48.5v-238h43v-117h-232v117h45v245q0 60 -78 60q-34 0 -58.5 -17.5t-24.5 -45.5v-242h42v-117
h-239z" />
    <glyph glyph-name="n" unicode="n" horiz-adv-x="607" 
d="M32 0v117h53v297h-53v122h197v-63q48 71 144 71q168 0 168 -158v-269h51v-117h-242v117h47v245q0 28 -21 44t-61 16q-35 0 -60.5 -18.5t-25.5 -48.5v-238h47v-117h-244z" />
    <glyph glyph-name="o" unicode="o" horiz-adv-x="528" 
d="M263 108q43 0 66 21.5t23 59.5v154q0 39 -23 60.5t-66 21.5t-65 -21.5t-22 -60.5v-154q0 -38 22 -59.5t65 -21.5zM263 -8q-119 0 -175 55t-56 149v144q0 94 56.5 149t174.5 55q119 0 176 -55t57 -149v-144q0 -93 -57.5 -148.5t-175.5 -55.5z" />
    <glyph glyph-name="p" unicode="p" horiz-adv-x="569" 
d="M21 -198v113h53v499h-53v122h197v-57q44 65 135 65q100 0 142 -50.5t42 -146.5v-158q0 -94 -44 -144.5t-147 -50.5q-88 0 -128 57v-136h52v-113h-249zM307 108q86 0 86 81v154q0 82 -86 82q-42 0 -65.5 -20.5t-23.5 -55.5v-160q0 -38 23 -59.5t66 -21.5z" />
    <glyph glyph-name="q" unicode="q" horiz-adv-x="570" 
d="M293 -198v113h59v139q-41 -62 -130 -62q-104 0 -147 50.5t-43 146.5v158q0 95 43 146t149 51q83 0 128 -63v55h192v-122h-48v-499h52v-113h-255zM262 108q42 0 66 19.5t24 55.5v164q0 36 -24 57t-66 21t-64 -21.5t-22 -60.5v-154q0 -81 86 -81z" />
    <glyph glyph-name="r" unicode="r" horiz-adv-x="392" 
d="M32 0v117h53v297h-53v122h197v-72q44 77 128 78h20v-127h-20q-56 0 -92 -18.5t-36 -58.5v-221h54v-117h-251z" />
    <glyph glyph-name="s" unicode="s" horiz-adv-x="510" 
d="M282 -7q-102 0 -139 43v-36h-99v187h112q6 -50 30 -70.5t78 -20.5q50 0 69 12t19 41q0 26 -18 37t-64 20q-100 17 -135 34q-85 38 -84 132q0 88 49.5 129.5t160.5 41.5q75 0 115 -36v29h99v-176h-112q-2 42 -22 58t-66 16q-44 0 -64.5 -10t-20.5 -36q0 -21 14 -33
t31 -16.5t59 -11.5q34 -6 55.5 -11t51.5 -17t47.5 -27.5t30.5 -43t13 -62.5q0 -82 -47 -127.5t-163 -45.5z" />
    <glyph glyph-name="t" unicode="t" horiz-adv-x="379" 
d="M261 0q-100 0 -135 39t-35 132v243h-76v122h76v165h143v-165h125v-122h-125v-240q0 -32 9 -44.5t37 -12.5h79v-117h-98z" />
    <glyph glyph-name="u" unicode="u" horiz-adv-x="596" 
d="M234 -8q-168 0 -168 158v264h-45v122h189v-364q0 -28 21 -44t60 -16q36 0 62 18.5t26 49.5v234h-58v122h201v-419h59v-117h-202v62q-48 -70 -145 -70z" />
    <glyph glyph-name="v" unicode="v" horiz-adv-x="559" 
d="M189 0l-144 414h-30v122h236v-122h-63l96 -282h1l96 282h-57v122h220v-122h-30l-142 -414h-183z" />
    <glyph glyph-name="w" unicode="w" horiz-adv-x="782" 
d="M151 0l-100 414h-36v122h226v-122h-49l55 -250h1l70 372h159l69 -370h2l55 248h-51v122h215v-122h-36l-94 -414h-167l-73 344h-1l-71 -344h-174z" />
    <glyph glyph-name="x" unicode="x" horiz-adv-x="561" 
d="M15 0v117h32l142 155l-128 142h-39v122h248v-118h-41l76 -86l76 86h-38v118h196v-122h-30l-139 -151l132 -146h44v-117h-253v113h40l-79 90l-78 -90h43v-113h-204z" />
    <glyph glyph-name="y" unicode="y" horiz-adv-x="547" 
d="M106 -198v113h63l38 102l-159 397h-33v122h229v-122h-52l87 -230l87 230h-48v122h214v-122h-35l-192 -499h53v-113h-252z" />
    <glyph glyph-name="z" unicode="z" horiz-adv-x="493" 
d="M32 0v117l272 308h-149v-65h-115v176h421v-122l-271 -307h164v80h116v-187h-438z" />
    <glyph glyph-name="braceleft" unicode="{" horiz-adv-x="444" 
d="M350 -198q-126 0 -179.5 61t-53.5 192v180h-86v119h86v167q0 131 53.5 191t179.5 60h71v-123h-71q-54 0 -74 -30.5t-20 -109.5v-442q0 -80 20 -111t74 -31h71v-123h-71z" />
    <glyph glyph-name="bar" unicode="|" horiz-adv-x="275" 
d="M68 -198v970h140v-970h-140z" />
    <glyph glyph-name="braceright" unicode="}" horiz-adv-x="445" 
d="M24 -198v123h71q53 0 72.5 31t19.5 111v442q0 79 -19.5 109.5t-72.5 30.5h-71v123h71q125 0 179 -60t54 -191v-167h86v-119h-86v-180q0 -131 -53.5 -192t-179.5 -61h-71z" />
    <glyph glyph-name="asciitilde" unicode="~" horiz-adv-x="554" 
d="M49 320q0 81 26.5 118t92.5 37q31 0 107 -24.5t90 -24.5q35 0 35 49h104q0 -78 -25.5 -116.5t-92.5 -38.5q-32 0 -108.5 24.5t-87.5 24.5q-36 0 -36 -49h-105z" />
    <glyph glyph-name="uni00A0" unicode="&#xa0;" horiz-adv-x="179" 
 />
    <glyph glyph-name="exclamdown" unicode="&#xa1;" horiz-adv-x="327" 
d="M89 0l7 540h136l7 -540h-150zM87 607v143h153v-143h-153z" />
    <glyph glyph-name="cent" unicode="&#xa2;" horiz-adv-x="507" 
d="M188 -124v125q-156 28 -156 195v144q0 172 157 197v110h129v-117q24 -10 38 -25v31h107v-194h-120q-5 49 -21 66t-62 17q-85 0 -85 -82v-154q0 -81 81 -81q46 0 61 16t22 60l125 -18q-10 -73 -40 -113.5t-106 -52.5v-124h-130z" />
    <glyph glyph-name="sterling" unicode="&#xa3;" horiz-adv-x="582" 
d="M23 310v115h64q-21 76 -21 117q0 216 243 216q121 0 178.5 -53.5t66.5 -174.5l-139 -14q-6 66 -28 92t-79 26q-56 0 -79.5 -24t-23.5 -70q0 -43 21 -115h192v-115h-163q5 -32 5 -54q0 -88 -42 -141h207v123h125v-238h-493v102q63 80 63 159q0 21 -5 49h-92z" />
    <glyph glyph-name="currency" unicode="&#xa4;" horiz-adv-x="554" 
d="M465 101l-68 67q-47 -30 -121 -30q-73 0 -120 28l-66 -65l-81 82l78 76q-7 22 -7 51v121q0 26 6 50l-77 75l81 82l64 -64q48 29 122 29q76 0 123 -30l66 65l81 -82l-79 -77q6 -23 6 -48v-121q0 -28 -7 -49l80 -78zM276 237q36 0 55 17.5t19 49.5v130q0 67 -74 67
q-73 0 -73 -67v-130q0 -67 73 -67z" />
    <glyph glyph-name="yen" unicode="&#xa5;" horiz-adv-x="640" 
d="M66 318v108h109l-119 196h-41v128h264v-128h-75l122 -210h2l123 210h-63v128h237v-128h-42l-118 -196h109v-108h-174l-10 -17v-29h184v-108h-184v-44h63v-120h-268v120h66v44h-185v108h185v29l-11 17h-174z" />
    <glyph glyph-name="brokenbar" unicode="&#xa6;" horiz-adv-x="275" 
d="M68 337v435h140v-435h-140zM68 -198v435h140v-435h-140z" />
    <glyph glyph-name="section" unicode="&#xa7;" horiz-adv-x="519" 
d="M261 -8q-106 0 -153 36.5t-56 116.5l137 21q4 -38 20.5 -54t55.5 -16q40 0 57 12t17 39q0 31 -21 43.5t-81 22.5q-37 7 -55 11t-49 15.5t-46.5 26t-28 41.5t-12.5 62q0 72 39 114q-39 37 -39 104q0 84 48.5 127.5t167.5 43.5q106 0 154 -37t58 -116l-137 -21
q-4 37 -22 53.5t-57 16.5q-77 0 -77 -51q0 -31 22 -43.5t82 -22.5q37 -7 55.5 -11t49.5 -15.5t46.5 -26t28 -41.5t12.5 -62q0 -73 -40 -116q36 -38 36 -102q0 -85 -47 -128t-165 -43zM261 421q-5 1 -30 5t-38 7q-18 -19 -18 -44q0 -28 17.5 -39.5t68.5 -20.5q56 -10 69 -13
q18 20 18 45q0 28 -17.5 39.5t-69.5 20.5z" />
    <glyph glyph-name="dieresis" unicode="&#xa8;" horiz-adv-x="500" 
d="M89 576v129h125v-129h-125zM286 576v129h125v-129h-125z" />
    <glyph glyph-name="copyright" unicode="&#xa9;" horiz-adv-x="734" 
d="M367 -8q-155 0 -235.5 71t-80.5 204v216q0 133 81 204t235 71t235 -71t81 -204v-216q0 -132 -81 -203.5t-235 -71.5zM367 49q254 0 254 219v214q0 219 -254 219q-253 0 -253 -219v-214q0 -219 253 -219zM365 133q-164 0 -164 164v153q0 82 41.5 122.5t115.5 40.5
q72 0 97 -35v31h72v-158h-84q-4 44 -17 60t-55 16q-45 0 -59.5 -20t-14.5 -67v-136q0 -46 13.5 -66.5t54.5 -20.5q40 0 53.5 16.5t18.5 62.5l93 -12q-9 -80 -46 -115.5t-119 -35.5z" />
    <glyph glyph-name="ordfeminine" unicode="&#xaa;" horiz-adv-x="484" 
d="M298 301v48q-34 -54 -116 -54q-142 0 -142 140q0 72 46 106t156 34h56v33q0 28 -11 40.5t-44 12.5q-35 0 -47 -9.5t-18 -39.5l-120 18q14 70 55 99t135 29q95 0 133 -36t38 -116v-205h37v-100h-158zM234 388q65 0 65 63v43h-60q-46 0 -62.5 -11.5t-16.5 -41.5
q0 -31 16 -42t58 -11z" />
    <glyph glyph-name="guillemotleft" unicode="&#xab;" horiz-adv-x="587" 
d="M173 0l-136 268l136 268h148l-137 -268l137 -268h-148zM423 0l-137 268l137 268h146l-136 -268l136 -268h-146z" />
    <glyph glyph-name="logicalnot" unicode="&#xac;" horiz-adv-x="567" 
d="M366 156v163h-303v116h429v-279h-126z" />
    <glyph glyph-name="registered" unicode="&#xae;" horiz-adv-x="542" 
d="M272 204q-112 0 -171 51.5t-59 147.5v156q0 96 59.5 147.5t170.5 51.5t170 -51.5t59 -147.5v-156q0 -96 -59 -147.5t-170 -51.5zM272 255q175 0 175 151v150q0 151 -175 151q-178 0 -178 -151v-150q0 -151 178 -151zM300 319v57h5l-32 65h-37v-65h22v-57h-117v57h25v215
h-25v60h140q59 0 84.5 -22t25.5 -70v-27q0 -62 -51 -81l38 -75h26v-57h-104zM236 496h46q25 0 34 8t9 31v19q0 23 -8.5 31t-32.5 8h-48v-97z" />
    <glyph glyph-name="macron" unicode="&#xaf;" horiz-adv-x="500" 
d="M101 576v100h298v-100h-298z" />
    <glyph glyph-name="degree" unicode="&#xb0;" horiz-adv-x="445" 
d="M222 306q-90 0 -136 45.5t-46 132.5v95q0 177 182 177t182 -177v-95q0 -178 -182 -178zM222 408q40 0 58 20t18 62v77q0 43 -18 63t-58 20q-76 0 -76 -83v-77q0 -82 76 -82z" />
    <glyph glyph-name="plusminus" unicode="&#xb1;" horiz-adv-x="554" 
d="M214 264v140h-151v116h151v159h126v-159h152v-116h-152v-140h-126zM63 92v117h429v-117h-429z" />
    <glyph glyph-name="two.sups" unicode="&#xb2;" horiz-adv-x="470" 
d="M54 250v82q0 54 25.5 94.5t61.5 63.5t72 42t61.5 42t25.5 51q0 29 -16 41t-48 12q-35 0 -51 -18t-18 -54l-116 10q5 73 49.5 118.5t133.5 45.5q103 0 143.5 -43.5t40.5 -115.5q0 -37 -18 -68.5t-45.5 -51t-59 -39t-59 -33.5t-45.5 -32.5t-18 -37.5v-13h145v64h102v-160
h-366z" />
    <glyph glyph-name="three.sups" unicode="&#xb3;" horiz-adv-x="489" 
d="M244 244q-104 0 -146 42t-49 123l113 11q5 -45 23 -62t61 -17q39 0 55.5 16.5t16.5 51.5q0 37 -15.5 52t-51.5 15h-92v92h91q38 0 50 14.5t12 44.5q0 25 -14.5 39t-53.5 14q-41 0 -56.5 -14.5t-18.5 -54.5l-114 9q7 78 48.5 119t140.5 41q183 0 183 -132
q0 -48 -16.5 -75.5t-56.5 -41.5q46 -13 63 -43t17 -87q0 -157 -190 -157z" />
    <glyph glyph-name="acute" unicode="&#xb4;" horiz-adv-x="500" 
d="M188 576l93 179h138l-107 -179h-124z" />
    <glyph glyph-name="mu" unicode="&#xb5;" horiz-adv-x="561" 
d="M53 -198v734h144v-366q2 -56 81 -56q36 0 61.5 18.5t25.5 49.5v354h144v-536h-144v62q-45 -65 -133 -65q-26 0 -35 9v-204h-144z" />
    <glyph glyph-name="mu" unicode="&#x3bc;" horiz-adv-x="561" 
d="M53 -198v734h144v-366q2 -56 81 -56q36 0 61.5 18.5t25.5 49.5v354h144v-536h-144v62q-45 -65 -133 -65q-26 0 -35 9v-204h-144z" />
    <glyph glyph-name="paragraph" unicode="&#xb6;" horiz-adv-x="641" 
d="M112 0v124h81v165q-142 41 -142 201v45q0 112 66 163.5t194 51.5h291v-128h-65v-498h65v-124h-200v273h-79v-273h-211zM310 394h92v233h-92q-55 0 -82.5 -24t-27.5 -85v-20q0 -59 27.5 -81.5t82.5 -22.5z" />
    <glyph glyph-name="periodcentered" unicode="&#xb7;" horiz-adv-x="283" 
d="M59 238v169h165v-169h-165z" />
    <glyph glyph-name="cedilla" unicode="&#xb8;" horiz-adv-x="500" 
d="M172 -241v77h36q39 0 55.5 8t16.5 32q0 21 -16 28.5t-53 7.5h-11v113h73v-64q88 -5 88 -87q0 -57 -34.5 -86t-116.5 -29h-38z" />
    <glyph glyph-name="one.sups" unicode="&#xb9;" horiz-adv-x="329" 
d="M41 250v99h75v318h-74v108h195v-426h68v-99h-264z" />
    <glyph glyph-name="ordmasculine" unicode="&#xba;" horiz-adv-x="488" 
d="M243 393q74 0 74 67v129q0 67 -74 67q-73 0 -73 -67v-129q0 -67 73 -67zM243 294q-101 0 -148.5 46.5t-47.5 124.5v121q0 79 48 125.5t148 46.5t148.5 -46.5t48.5 -125.5v-121q0 -78 -48.5 -124.5t-148.5 -46.5z" />
    <glyph glyph-name="guillemotright" unicode="&#xbb;" horiz-adv-x="587" 
d="M267 0l136 268l-136 268h147l137 -268l-137 -268h-147zM18 0l136 268l-136 268h146l137 -268l-137 -268h-146z" />
    <glyph glyph-name="onequarter" unicode="&#xbc;" horiz-adv-x="1016" 
d="M773 0v99h61v56h-242v86l202 284h123l-204 -284h121v97h105v-97h60v-86h-60v-56h60v-99h-226zM212 0l424 750h130l-424 -750h-130zM11 228v99h75v318h-74v108h195v-426h68v-99h-264z" />
    <glyph glyph-name="onehalf" unicode="&#xbd;" horiz-adv-x="1045" 
d="M660 0v82q0 54 25.5 94.5t61.5 64t72 42.5t61.5 41.5t25.5 50.5q0 54 -64 54q-35 0 -51 -18t-18 -54l-115 9q4 73 48 118.5t134 45.5q103 0 143 -43t40 -116q0 -44 -25 -79.5t-61 -57.5t-72 -41t-61 -40t-25 -44v-13h144v65h103v-161h-366zM212 0l424 750h130l-424 -750
h-130zM11 228v99h75v318h-74v108h195v-426h68v-99h-264z" />
    <glyph glyph-name="threequarters" unicode="&#xbe;" horiz-adv-x="1103" 
d="M214 222q-104 0 -146 42t-49 123l113 11q5 -44 23 -61.5t61 -17.5q39 0 55.5 16.5t16.5 52.5t-15.5 51t-51.5 15h-92v92h91q38 0 50 15t12 45q0 24 -14.5 38t-53.5 14q-41 0 -56.5 -14t-18.5 -55l-114 9q7 78 48.5 119t140.5 41q183 0 183 -132q0 -47 -16.5 -74.5
t-56.5 -42.5q46 -12 63 -42t17 -88q0 -157 -190 -157zM859 0v99h62v56h-242v86l202 284h123l-204 -284h121v97h105v-97h60v-86h-60v-56h60v-99h-227zM299 0l423 750h131l-424 -750h-130z" />
    <glyph glyph-name="questiondown" unicode="&#xbf;" horiz-adv-x="556" 
d="M277 -8q-123 0 -184 47t-61 158q0 36 9 65t31.5 55t35.5 38t43 37q47 38 63 60t16 57v31h141v-31q0 -30 -6 -54t-12.5 -39.5t-26 -35.5t-32 -30.5l-43.5 -35.5q-46 -36 -61 -56.5t-15 -57.5q0 -83 99 -83q54 0 80 26t31 89l139 -14q-9 -111 -63.5 -168.5t-183.5 -57.5z
M224 606v144h153v-144h-153z" />
    <glyph glyph-name="Agrave" unicode="&#xc0;" horiz-adv-x="659" 
d="M15 0v124h45l172 626h196l172 -626h44v-124h-268v120h79l-30 110h-198l-30 -110h69v-120h-251zM257 348h138l-68 253h-2zM268 780l-108 177h139l92 -177h-123z" />
    <glyph glyph-name="Aacute" unicode="&#xc1;" horiz-adv-x="659" 
d="M15 0v124h45l172 626h196l172 -626h44v-124h-268v120h79l-30 110h-198l-30 -110h69v-120h-251zM257 348h138l-68 253h-2zM267 780l93 179h138l-107 -179h-124z" />
    <glyph glyph-name="Acircumflex" unicode="&#xc2;" horiz-adv-x="659" 
d="M15 0v124h45l172 626h196l172 -626h44v-124h-268v120h79l-30 110h-198l-30 -110h69v-120h-251zM257 348h138l-68 253h-2zM136 780l121 167h143l121 -167h-113l-79 75l-77 -75h-116z" />
    <glyph glyph-name="Atilde" unicode="&#xc3;" horiz-adv-x="659" 
d="M15 0v124h45l172 626h196l172 -626h44v-124h-268v120h79l-30 110h-198l-30 -110h69v-120h-251zM257 348h138l-68 253h-2zM250 780h-100q0 70 22.5 104.5t82.5 34.5q31 0 76 -18t53 -18q26 0 26 36h100q0 -69 -23 -104t-84 -35q-30 0 -74.5 18t-52.5 18q-26 0 -26 -36z
" />
    <glyph glyph-name="Adieresis" unicode="&#xc4;" horiz-adv-x="659" 
d="M15 0v124h45l172 626h196l172 -626h44v-124h-268v120h79l-30 110h-198l-30 -110h69v-120h-251zM257 348h138l-68 253h-2zM168 780v129h125v-129h-125zM365 780v129h125v-129h-125z" />
    <glyph glyph-name="Aring" unicode="&#xc5;" horiz-adv-x="659" 
d="M15 0v124h45l165 602q-17 28 -17 74q0 65 31 93.5t90 28.5q121 0 121 -122q0 -42 -16 -71l166 -605h44v-124h-268v120h79l-30 110h-198l-30 -110h69v-120h-251zM257 348h138l-68 253h-2zM329 748q26 0 37 12t11 40q0 29 -11.5 42.5t-36.5 13.5q-48 0 -48 -56
q0 -52 48 -52z" />
    <glyph glyph-name="AE" unicode="&#xc6;" horiz-adv-x="921" 
d="M342 0v120h63v108h-171l-49 -108h47v-120h-232v124h45l221 498h-64v128h666v-225h-129v101h-191v-174h196v-128h-196v-205h197v119h130v-238h-533zM274 334h131v297h-2z" />
    <glyph glyph-name="Ccedilla" unicode="&#xc7;" horiz-adv-x="621" 
d="M227 -241v77h36q39 0 55.5 8t16.5 32q0 21 -16 28.5t-53 7.5h-11v84q-99 12 -156.5 76t-57.5 176v254q0 127 70.5 191.5t184.5 64.5q115 0 160 -55v47h114v-236h-127q-9 64 -34.5 89t-92.5 25q-70 0 -99 -35.5t-29 -105.5v-228q0 -69 28 -104.5t93 -35.5q64 0 91.5 28
t32.5 97l141 -18q-14 -120 -71.5 -174.5t-174.5 -58.5v-32q88 -5 88 -87q0 -57 -34.5 -86t-116.5 -29h-38z" />
    <glyph glyph-name="Egrave" unicode="&#xc8;" horiz-adv-x="616" 
d="M32 0v124h64v498h-64v128h531v-225h-129v101h-191v-174h196v-128h-196v-205h197v119h130v-238h-538zM246 780l-108 177h139l92 -177h-123z" />
    <glyph glyph-name="Eacute" unicode="&#xc9;" horiz-adv-x="616" 
d="M32 0v124h64v498h-64v128h531v-225h-129v101h-191v-174h196v-128h-196v-205h197v119h130v-238h-538zM245 780l93 179h138l-107 -179h-124z" />
    <glyph glyph-name="Ecircumflex" unicode="&#xca;" horiz-adv-x="616" 
d="M32 0v124h64v498h-64v128h531v-225h-129v101h-191v-174h196v-128h-196v-205h197v119h130v-238h-538zM117 780l121 167h143l121 -167h-113l-79 75l-77 -75h-116z" />
    <glyph glyph-name="Edieresis" unicode="&#xcb;" horiz-adv-x="616" 
d="M32 0v124h64v498h-64v128h531v-225h-129v101h-191v-174h196v-128h-196v-205h197v119h130v-238h-538zM149 780v129h125v-129h-125zM346 780v129h125v-129h-125z" />
    <glyph glyph-name="Igrave" unicode="&#xcc;" horiz-adv-x="365" 
d="M32 0v124h80v498h-80v128h301v-128h-74v-498h75v-124h-302zM122 780l-108 177h139l92 -177h-123z" />
    <glyph glyph-name="Iacute" unicode="&#xcd;" horiz-adv-x="365" 
d="M32 0v124h80v498h-80v128h301v-128h-74v-498h75v-124h-302zM121 780l93 179h138l-107 -179h-124z" />
    <glyph glyph-name="Icircumflex" unicode="&#xce;" horiz-adv-x="365" 
d="M32 0v124h80v498h-80v128h301v-128h-74v-498h75v-124h-302zM-10 780l121 167h143l121 -167h-113l-79 75l-77 -75h-116z" />
    <glyph glyph-name="Idieresis" unicode="&#xcf;" horiz-adv-x="365" 
d="M32 0v124h80v498h-80v128h301v-128h-74v-498h75v-124h-302zM22 780v129h125v-129h-125zM219 780v129h125v-129h-125z" />
    <glyph glyph-name="Eth" unicode="&#xd0;" horiz-adv-x="657" 
d="M32 343v121h64v158h-64v128h318q266 0 266 -250v-250q0 -250 -266 -250h-318v124h64v219h-64zM243 121h106q66 0 93 32.5t27 105.5v228q0 73 -26.5 105.5t-92.5 32.5h-107v-161h110v-121h-110v-222z" />
    <glyph glyph-name="Ntilde" unicode="&#xd1;" horiz-adv-x="712" 
d="M32 0v124h64v498h-64v128h226l227 -461h2v333h-59v128h252v-128h-59v-622h-144l-242 494h-2v-370h64v-124h-265zM276 780h-100q0 70 22.5 104.5t82.5 34.5q31 0 76 -18t53 -18q26 0 26 36h100q0 -69 -23 -104t-84 -35q-30 0 -74.5 18t-52.5 18q-26 0 -26 -36z" />
    <glyph glyph-name="Ograve" unicode="&#xd2;" horiz-adv-x="630" 
d="M315 -8q-130 0 -202 64t-72 192v254q0 128 72.5 192t201.5 64t201.5 -64t72.5 -192v-254q0 -128 -72.5 -192t-201.5 -64zM315 119q67 0 97 34t30 106v228q0 73 -30 107t-97 34t-97 -34t-30 -107v-228q0 -72 30 -106t97 -34zM253 780l-108 177h139l92 -177h-123z" />
    <glyph glyph-name="Oacute" unicode="&#xd3;" horiz-adv-x="630" 
d="M315 -8q-130 0 -202 64t-72 192v254q0 128 72.5 192t201.5 64t201.5 -64t72.5 -192v-254q0 -128 -72.5 -192t-201.5 -64zM315 119q67 0 97 34t30 106v228q0 73 -30 107t-97 34t-97 -34t-30 -107v-228q0 -72 30 -106t97 -34zM252 780l93 179h138l-107 -179h-124z" />
    <glyph glyph-name="Ocircumflex" unicode="&#xd4;" horiz-adv-x="630" 
d="M315 -8q-130 0 -202 64t-72 192v254q0 128 72.5 192t201.5 64t201.5 -64t72.5 -192v-254q0 -128 -72.5 -192t-201.5 -64zM315 119q67 0 97 34t30 106v228q0 73 -30 107t-97 34t-97 -34t-30 -107v-228q0 -72 30 -106t97 -34zM121 780l121 167h143l121 -167h-113l-79 75
l-77 -75h-116z" />
    <glyph glyph-name="Otilde" unicode="&#xd5;" horiz-adv-x="630" 
d="M315 -8q-130 0 -202 64t-72 192v254q0 128 72.5 192t201.5 64t201.5 -64t72.5 -192v-254q0 -128 -72.5 -192t-201.5 -64zM315 119q67 0 97 34t30 106v228q0 73 -30 107t-97 34t-97 -34t-30 -107v-228q0 -72 30 -106t97 -34zM235 780h-100q0 70 22.5 104.5t82.5 34.5
q31 0 76 -18t53 -18q26 0 26 36h100q0 -69 -23 -104t-84 -35q-30 0 -74.5 18t-52.5 18q-26 0 -26 -36z" />
    <glyph glyph-name="Odieresis" unicode="&#xd6;" horiz-adv-x="630" 
d="M315 -8q-130 0 -202 64t-72 192v254q0 128 72.5 192t201.5 64t201.5 -64t72.5 -192v-254q0 -128 -72.5 -192t-201.5 -64zM315 119q67 0 97 34t30 106v228q0 73 -30 107t-97 34t-97 -34t-30 -107v-228q0 -72 30 -106t97 -34zM153 780v129h125v-129h-125zM350 780v129h125
v-129h-125z" />
    <glyph glyph-name="multiply" unicode="&#xd7;" horiz-adv-x="554" 
d="M145 164l-80 81l132 132l-132 132l80 81l132 -132l133 133l80 -82l-132 -132l132 -132l-80 -81l-133 131z" />
    <glyph glyph-name="Oslash" unicode="&#xd8;" horiz-adv-x="630" 
d="M40 -89l65 154q-64 64 -64 183v254q0 128 72 191t202 63q37 0 79 -7l38 90h146l-61 -147q72 -64 72 -190v-254q0 -128 -72.5 -191t-201.5 -63q-49 0 -90 9l-38 -92h-147zM315 119q67 0 97 34t30 106v228q0 73 -29.5 107t-97.5 34q-67 0 -97 -34t-30 -107v-228
q0 -73 29.5 -106.5t97.5 -33.5z" />
    <glyph glyph-name="Ugrave" unicode="&#xd9;" horiz-adv-x="689" 
d="M346 -8q-262 0 -262 256v374h-52v128h262v-128h-64v-362q0 -73 25.5 -106t90.5 -33q66 0 91.5 33t25.5 106v362h-59v128h254v-128h-53v-374q0 -256 -259 -256zM283 780l-108 177h139l92 -177h-123z" />
    <glyph glyph-name="Uacute" unicode="&#xda;" horiz-adv-x="689" 
d="M346 -8q-262 0 -262 256v374h-52v128h262v-128h-64v-362q0 -73 25.5 -106t90.5 -33q66 0 91.5 33t25.5 106v362h-59v128h254v-128h-53v-374q0 -256 -259 -256zM282 780l93 179h138l-107 -179h-124z" />
    <glyph glyph-name="Ucircumflex" unicode="&#xdb;" horiz-adv-x="689" 
d="M346 -8q-262 0 -262 256v374h-52v128h262v-128h-64v-362q0 -73 25.5 -106t90.5 -33q66 0 91.5 33t25.5 106v362h-59v128h254v-128h-53v-374q0 -256 -259 -256zM154 780l121 167h143l121 -167h-113l-79 75l-77 -75h-116z" />
    <glyph glyph-name="Udieresis" unicode="&#xdc;" horiz-adv-x="689" 
d="M346 -8q-262 0 -262 256v374h-52v128h262v-128h-64v-362q0 -73 25.5 -106t90.5 -33q66 0 91.5 33t25.5 106v362h-59v128h254v-128h-53v-374q0 -256 -259 -256zM187 780v129h125v-129h-125zM384 780v129h125v-129h-125z" />
    <glyph glyph-name="Yacute" unicode="&#xdd;" horiz-adv-x="646" 
d="M180 0v124h65v177l-194 321h-41v128h266v-128h-74l122 -210h2l123 210h-64v128h241v-128h-43l-192 -321v-177h63v-124h-274zM260 780l93 179h138l-107 -179h-124z" />
    <glyph glyph-name="Thorn" unicode="&#xde;" horiz-adv-x="635" 
d="M32 0v124h64v498h-64v128h212v-99h106q134 0 193.5 -46t59.5 -152v-66q0 -105 -59 -147t-194 -42h-107v-74h68v-124h-279zM243 312h112q58 0 81.5 19.5t23.5 68.5v39q0 49 -23.5 68.5t-81.5 19.5h-112v-215z" />
    <glyph glyph-name="germandbls" unicode="&#xdf;" horiz-adv-x="622" 
d="M32 414v122h75v57q0 187 235 187q233 0 233 -195v-26q0 -118 -70 -144q42 -11 62.5 -45.5t20.5 -102.5v-68q0 -100 -55 -149t-175 -50h-34v117h34q87 0 87 76v79q0 70 -85 70h-36v123h22q49 0 68 17t19 58v45q0 33 -23 51.5t-68 18.5q-91 0 -91 -67v-588h-219v117h75v297
h-75z" />
    <glyph glyph-name="agrave" unicode="&#xe0;" horiz-adv-x="541" 
d="M196 -7q-168 0 -168 166q0 87 54.5 128.5t185.5 41.5h66v37q0 33 -13.5 48.5t-54.5 15.5q-44 0 -59 -12t-23 -48l-139 22q16 83 66 117.5t161 34.5q113 0 158 -43.5t45 -138.5v-245h51v-117h-192v57q-42 -64 -138 -64zM258 103q77 0 77 76v52h-72q-53 0 -74.5 -14.5
t-21.5 -48.5q0 -37 20 -51t71 -14zM209 576l-108 177h139l92 -177h-123z" />
    <glyph glyph-name="aacute" unicode="&#xe1;" horiz-adv-x="541" 
d="M196 -7q-168 0 -168 166q0 87 54.5 128.5t185.5 41.5h66v37q0 33 -13.5 48.5t-54.5 15.5q-44 0 -59 -12t-23 -48l-139 22q16 83 66 117.5t161 34.5q113 0 158 -43.5t45 -138.5v-245h51v-117h-192v57q-42 -64 -138 -64zM258 103q77 0 77 76v52h-72q-53 0 -74.5 -14.5
t-21.5 -48.5q0 -37 20 -51t71 -14zM208 576l93 179h138l-107 -179h-124z" />
    <glyph glyph-name="acircumflex" unicode="&#xe2;" horiz-adv-x="541" 
d="M196 -7q-168 0 -168 166q0 87 54.5 128.5t185.5 41.5h66v37q0 33 -13.5 48.5t-54.5 15.5q-44 0 -59 -12t-23 -48l-139 22q16 83 66 117.5t161 34.5q113 0 158 -43.5t45 -138.5v-245h51v-117h-192v57q-42 -64 -138 -64zM258 103q77 0 77 76v52h-72q-53 0 -74.5 -14.5
t-21.5 -48.5q0 -37 20 -51t71 -14zM77 576l121 167h143l121 -167h-113l-79 75l-77 -75h-116z" />
    <glyph glyph-name="atilde" unicode="&#xe3;" horiz-adv-x="541" 
d="M196 -7q-168 0 -168 166q0 87 54.5 128.5t185.5 41.5h66v37q0 33 -13.5 48.5t-54.5 15.5q-44 0 -59 -12t-23 -48l-139 22q16 83 66 117.5t161 34.5q113 0 158 -43.5t45 -138.5v-245h51v-117h-192v57q-42 -64 -138 -64zM258 103q77 0 77 76v52h-72q-53 0 -74.5 -14.5
t-21.5 -48.5q0 -37 20 -51t71 -14zM191 576h-100q0 70 22.5 104.5t82.5 34.5q31 0 76 -18t53 -18q26 0 26 36h100q0 -69 -23 -104t-84 -35q-30 0 -74.5 18t-52.5 18q-26 0 -26 -36z" />
    <glyph glyph-name="adieresis" unicode="&#xe4;" horiz-adv-x="541" 
d="M196 -7q-168 0 -168 166q0 87 54.5 128.5t185.5 41.5h66v37q0 33 -13.5 48.5t-54.5 15.5q-44 0 -59 -12t-23 -48l-139 22q16 83 66 117.5t161 34.5q113 0 158 -43.5t45 -138.5v-245h51v-117h-192v57q-42 -64 -138 -64zM258 103q77 0 77 76v52h-72q-53 0 -74.5 -14.5
t-21.5 -48.5q0 -37 20 -51t71 -14zM109 576v129h125v-129h-125zM306 576v129h125v-129h-125z" />
    <glyph glyph-name="aring" unicode="&#xe5;" horiz-adv-x="541" 
d="M196 -7q-168 0 -168 166q0 87 54.5 128.5t185.5 41.5h66v37q0 33 -13.5 48.5t-54.5 15.5q-44 0 -59 -12t-23 -48l-139 22q16 83 66 117.5t161 34.5q113 0 158 -43.5t45 -138.5v-245h51v-117h-192v57q-42 -64 -138 -64zM258 103q77 0 77 76v52h-72q-53 0 -74.5 -14.5
t-21.5 -48.5q0 -37 20 -51t71 -14zM270 574q-121 0 -121 118q0 121 121 121q59 0 90 -28t31 -93q0 -63 -31 -90.5t-90 -27.5zM270 639q25 0 36.5 12.5t11.5 40.5q0 55 -48 55t-48 -55q0 -53 48 -53z" />
    <glyph glyph-name="ae" unicode="&#xe6;" horiz-adv-x="807" 
d="M196 -7q-168 0 -168 166q0 87 54.5 128.5t185.5 41.5h66v37q0 33 -13 48.5t-52 15.5q-42 0 -57.5 -12t-22.5 -48l-140 22q16 83 65 117.5t160 34.5q94 0 138 -39q54 39 143 39q120 0 170.5 -57.5t50.5 -165.5v-96h-305v-44q0 -39 18 -60t66 -21q47 0 62.5 16t21.5 57
l136 -21q-18 -160 -220 -160q-129 0 -183 73q-20 -37 -60 -54.5t-116 -17.5zM258 103q77 0 77 76v52h-72q-53 0 -74.5 -14.5t-21.5 -48.5q0 -37 20 -51t71 -14zM471 326h165v27q0 41 -18 60t-63 19q-84 0 -84 -79v-27z" />
    <glyph glyph-name="ccedilla" unicode="&#xe7;" horiz-adv-x="501" 
d="M168 -241v77h36q39 0 55.5 8t16.5 32q0 21 -16 28.5t-53 7.5h-11v85q-164 25 -164 199v144q0 93 50.5 148.5t160.5 55.5q79 0 113 -39v31h107v-188h-120q-5 45 -21 61t-62 16q-85 0 -85 -82v-154q0 -81 81 -81q46 0 61 16t22 60l125 -18q-6 -40 -15.5 -67t-30 -53
t-57.5 -39.5t-92 -14.5v-31q88 -5 88 -87q0 -57 -34.5 -86t-116.5 -29h-38z" />
    <glyph glyph-name="egrave" unicode="&#xe8;" horiz-adv-x="508" 
d="M256 -8q-117 0 -170.5 56.5t-53.5 147.5v144q0 93 53 148.5t171 55.5q120 0 170 -57.5t50 -165.5v-96h-304v-44q0 -39 18 -60t66 -21q47 0 62.5 16.5t20.5 56.5l137 -21q-20 -160 -220 -160zM172 326h165v27q0 41 -18.5 60t-62.5 19q-84 0 -84 -79v-27zM193 576l-108 177
h139l92 -177h-123z" />
    <glyph glyph-name="eacute" unicode="&#xe9;" horiz-adv-x="508" 
d="M256 -8q-117 0 -170.5 56.5t-53.5 147.5v144q0 93 53 148.5t171 55.5q120 0 170 -57.5t50 -165.5v-96h-304v-44q0 -39 18 -60t66 -21q47 0 62.5 16.5t20.5 56.5l137 -21q-20 -160 -220 -160zM172 326h165v27q0 41 -18.5 60t-62.5 19q-84 0 -84 -79v-27zM192 576l93 179
h138l-107 -179h-124z" />
    <glyph glyph-name="ecircumflex" unicode="&#xea;" horiz-adv-x="508" 
d="M256 -8q-117 0 -170.5 56.5t-53.5 147.5v144q0 93 53 148.5t171 55.5q120 0 170 -57.5t50 -165.5v-96h-304v-44q0 -39 18 -60t66 -21q47 0 62.5 16.5t20.5 56.5l137 -21q-20 -160 -220 -160zM172 326h165v27q0 41 -18.5 60t-62.5 19q-84 0 -84 -79v-27zM61 576l121 167
h143l121 -167h-113l-79 75l-77 -75h-116z" />
    <glyph glyph-name="edieresis" unicode="&#xeb;" horiz-adv-x="508" 
d="M256 -8q-117 0 -170.5 56.5t-53.5 147.5v144q0 93 53 148.5t171 55.5q120 0 170 -57.5t50 -165.5v-96h-304v-44q0 -39 18 -60t66 -21q47 0 62.5 16.5t20.5 56.5l137 -21q-20 -160 -220 -160zM172 326h165v27q0 41 -18.5 60t-62.5 19q-84 0 -84 -79v-27zM93 576v129h125
v-129h-125zM290 576v129h125v-129h-125z" />
    <glyph glyph-name="igrave" unicode="&#xec;" horiz-adv-x="323" 
d="M32 0v117h63v297h-63v122h207v-419h69v-117h-276zM100 576l-108 177h139l92 -177h-123z" />
    <glyph glyph-name="iacute" unicode="&#xed;" horiz-adv-x="323" 
d="M32 0v117h63v297h-63v122h207v-419h69v-117h-276zM99 576l93 179h138l-107 -179h-124z" />
    <glyph glyph-name="icircumflex" unicode="&#xee;" horiz-adv-x="323" 
d="M32 0v117h63v297h-63v122h207v-419h69v-117h-276zM-53 576l121 167h143l121 -167h-113l-79 75l-77 -75h-116z" />
    <glyph glyph-name="idieresis" unicode="&#xef;" horiz-adv-x="323" 
d="M32 0v117h63v297h-63v122h207v-419h69v-117h-276zM0 576v129h125v-129h-125zM197 576v129h125v-129h-125z" />
    <glyph glyph-name="eth" unicode="&#xf0;" horiz-adv-x="528" 
d="M234 511v101l95 16q-25 26 -100 26h-45v126h55q194 0 239 -126l57 10v-102l-41 -7v-359q0 -93 -57 -148.5t-174 -55.5q-119 0 -175.5 55t-56.5 149v88q0 91 54 144.5t151 53.5q90 0 114 -47v95zM263 108q42 0 65 21.5t23 59.5v101q0 39 -23 60t-65 21q-88 0 -88 -81v-101
q0 -38 22.5 -59.5t65.5 -21.5z" />
    <glyph glyph-name="ntilde" unicode="&#xf1;" horiz-adv-x="607" 
d="M32 0v117h53v297h-53v122h197v-63q48 71 144 71q168 0 168 -158v-269h51v-117h-242v117h47v245q0 28 -21 44t-61 16q-35 0 -60.5 -18.5t-25.5 -48.5v-238h47v-117h-244zM223 576h-100q0 70 22.5 104.5t82.5 34.5q31 0 76 -18t53 -18q26 0 26 36h100q0 -69 -23 -104
t-84 -35q-30 0 -74.5 18t-52.5 18q-26 0 -26 -36z" />
    <glyph glyph-name="ograve" unicode="&#xf2;" horiz-adv-x="528" 
d="M263 108q43 0 66 21.5t23 59.5v154q0 39 -23 60.5t-66 21.5t-65 -21.5t-22 -60.5v-154q0 -38 22 -59.5t65 -21.5zM263 -8q-119 0 -175 55t-56 149v144q0 94 56.5 149t174.5 55q119 0 176 -55t57 -149v-144q0 -93 -57.5 -148.5t-175.5 -55.5zM202 576l-108 177h139
l92 -177h-123z" />
    <glyph glyph-name="oacute" unicode="&#xf3;" horiz-adv-x="528" 
d="M263 108q43 0 66 21.5t23 59.5v154q0 39 -23 60.5t-66 21.5t-65 -21.5t-22 -60.5v-154q0 -38 22 -59.5t65 -21.5zM263 -8q-119 0 -175 55t-56 149v144q0 94 56.5 149t174.5 55q119 0 176 -55t57 -149v-144q0 -93 -57.5 -148.5t-175.5 -55.5zM201 576l93 179h138
l-107 -179h-124z" />
    <glyph glyph-name="ocircumflex" unicode="&#xf4;" horiz-adv-x="528" 
d="M263 108q43 0 66 21.5t23 59.5v154q0 39 -23 60.5t-66 21.5t-65 -21.5t-22 -60.5v-154q0 -38 22 -59.5t65 -21.5zM263 -8q-119 0 -175 55t-56 149v144q0 94 56.5 149t174.5 55q119 0 176 -55t57 -149v-144q0 -93 -57.5 -148.5t-175.5 -55.5zM70 576l121 167h143l121 -167
h-113l-79 75l-77 -75h-116z" />
    <glyph glyph-name="otilde" unicode="&#xf5;" horiz-adv-x="528" 
d="M263 108q43 0 66 21.5t23 59.5v154q0 39 -23 60.5t-66 21.5t-65 -21.5t-22 -60.5v-154q0 -38 22 -59.5t65 -21.5zM263 -8q-119 0 -175 55t-56 149v144q0 94 56.5 149t174.5 55q119 0 176 -55t57 -149v-144q0 -93 -57.5 -148.5t-175.5 -55.5zM184 576h-100
q0 70 22.5 104.5t82.5 34.5q31 0 76 -18t53 -18q26 0 26 36h100q0 -69 -23 -104t-84 -35q-30 0 -74.5 18t-52.5 18q-26 0 -26 -36z" />
    <glyph glyph-name="odieresis" unicode="&#xf6;" horiz-adv-x="528" 
d="M263 108q43 0 66 21.5t23 59.5v154q0 39 -23 60.5t-66 21.5t-65 -21.5t-22 -60.5v-154q0 -38 22 -59.5t65 -21.5zM263 -8q-119 0 -175 55t-56 149v144q0 94 56.5 149t174.5 55q119 0 176 -55t57 -149v-144q0 -93 -57.5 -148.5t-175.5 -55.5zM102 576v129h125v-129h-125z
M299 576v129h125v-129h-125z" />
    <glyph glyph-name="divide" unicode="&#xf7;" horiz-adv-x="554" 
d="M211 123v127h132v-127h-132zM63 319v116h429v-116h-429zM211 500v127h132v-127h-132z" />
    <glyph glyph-name="oslash" unicode="&#xf8;" horiz-adv-x="528" 
d="M39 -72l54 116q-61 51 -61 152v144q0 94 56 148t175 54q31 0 63 -5l33 69h138l-56 -120q55 -52 55 -146v-144q0 -93 -57.5 -147.5t-175.5 -54.5q-21 0 -53 4l-32 -70h-139zM263 108q43 0 66 21.5t23 59.5v154q0 82 -89 82q-43 0 -65 -21.5t-22 -60.5v-154q0 -81 87 -81z
" />
    <glyph glyph-name="ugrave" unicode="&#xf9;" horiz-adv-x="596" 
d="M234 -8q-168 0 -168 158v264h-45v122h189v-364q0 -28 21 -44t60 -16q36 0 62 18.5t26 49.5v234h-58v122h201v-419h59v-117h-202v62q-48 -70 -145 -70zM236 576l-108 177h139l92 -177h-123z" />
    <glyph glyph-name="uacute" unicode="&#xfa;" horiz-adv-x="596" 
d="M234 -8q-168 0 -168 158v264h-45v122h189v-364q0 -28 21 -44t60 -16q36 0 62 18.5t26 49.5v234h-58v122h201v-419h59v-117h-202v62q-48 -70 -145 -70zM235 576l93 179h138l-107 -179h-124z" />
    <glyph glyph-name="ucircumflex" unicode="&#xfb;" horiz-adv-x="596" 
d="M234 -8q-168 0 -168 158v264h-45v122h189v-364q0 -28 21 -44t60 -16q36 0 62 18.5t26 49.5v234h-58v122h201v-419h59v-117h-202v62q-48 -70 -145 -70zM89 576l121 167h143l121 -167h-113l-79 75l-77 -75h-116z" />
    <glyph glyph-name="udieresis" unicode="&#xfc;" horiz-adv-x="596" 
d="M234 -8q-168 0 -168 158v264h-45v122h189v-364q0 -28 21 -44t60 -16q36 0 62 18.5t26 49.5v234h-58v122h201v-419h59v-117h-202v62q-48 -70 -145 -70zM125 576v129h125v-129h-125zM322 576v129h125v-129h-125z" />
    <glyph glyph-name="yacute" unicode="&#xfd;" horiz-adv-x="547" 
d="M106 -198v113h63l38 102l-159 397h-33v122h229v-122h-52l87 -230l87 230h-48v122h214v-122h-35l-192 -499h53v-113h-252zM210 576l93 179h138l-107 -179h-124z" />
    <glyph glyph-name="thorn" unicode="&#xfe;" horiz-adv-x="549" 
d="M-4 -198v113h54v740h-54v125h198v-301q44 65 135 65q100 0 142 -50.5t42 -146.5v-158q0 -94 -44 -144.5t-147 -50.5q-89 0 -128 57v-136h51v-113h-249zM283 108q86 0 86 81v154q0 82 -86 82q-42 0 -65.5 -20.5t-23.5 -55.5v-160q0 -38 23 -59.5t66 -21.5z" />
    <glyph glyph-name="ydieresis" unicode="&#xff;" horiz-adv-x="547" 
d="M106 -198v113h63l38 102l-159 397h-33v122h229v-122h-52l87 -230l87 230h-48v122h214v-122h-35l-192 -499h53v-113h-252zM119 576v129h125v-129h-125zM316 576v129h125v-129h-125z" />
    <glyph glyph-name="Amacron" unicode="&#x100;" horiz-adv-x="659" 
d="M15 0v124h45l172 626h196l172 -626h44v-124h-268v120h79l-30 110h-198l-30 -110h69v-120h-251zM257 348h138l-68 253h-2zM180 780v100h298v-100h-298z" />
    <glyph glyph-name="amacron" unicode="&#x101;" horiz-adv-x="541" 
d="M196 -7q-168 0 -168 166q0 87 54.5 128.5t185.5 41.5h66v37q0 33 -13.5 48.5t-54.5 15.5q-44 0 -59 -12t-23 -48l-139 22q16 83 66 117.5t161 34.5q113 0 158 -43.5t45 -138.5v-245h51v-117h-192v57q-42 -64 -138 -64zM258 103q77 0 77 76v52h-72q-53 0 -74.5 -14.5
t-21.5 -48.5q0 -37 20 -51t71 -14zM121 576v100h298v-100h-298z" />
    <glyph glyph-name="Abreve" unicode="&#x102;" horiz-adv-x="659" 
d="M15 0v124h45l172 626h196l172 -626h44v-124h-268v120h79l-30 110h-198l-30 -110h69v-120h-251zM257 348h138l-68 253h-2zM329 778q-97 0 -138.5 40t-41.5 114h115q0 -70 65 -70t65 70h115q0 -74 -41.5 -114t-138.5 -40z" />
    <glyph glyph-name="abreve" unicode="&#x103;" horiz-adv-x="541" 
d="M196 -7q-168 0 -168 166q0 87 54.5 128.5t185.5 41.5h66v37q0 33 -13.5 48.5t-54.5 15.5q-44 0 -59 -12t-23 -48l-139 22q16 83 66 117.5t161 34.5q113 0 158 -43.5t45 -138.5v-245h51v-117h-192v57q-42 -64 -138 -64zM258 103q77 0 77 76v52h-72q-53 0 -74.5 -14.5
t-21.5 -48.5q0 -37 20 -51t71 -14zM270 574q-97 0 -138.5 40t-41.5 114h115q0 -70 65 -70t65 70h115q0 -74 -41.5 -114t-138.5 -40z" />
    <glyph glyph-name="Aogonek" unicode="&#x104;" horiz-adv-x="659" 
d="M15 0v124h45l172 626h196l172 -626h44v-124h-92q18 23 62 64h-88q-44 -32 -66 -64h-84v120h79l-30 110h-198l-30 -110h69v-120h-251zM622 -198h-60q-130 0 -130 103q0 54 28 95h92q-28 -36 -28 -72q0 -26 11 -35t41 -9h46v-82zM257 348h138l-68 253h-2z" />
    <glyph glyph-name="aogonek" unicode="&#x105;" horiz-adv-x="541" 
d="M484 -198h-60q-130 0 -130 103q0 65 40 111v41q-42 -64 -138 -64q-168 0 -168 166q0 87 54.5 128.5t185.5 41.5h66v37q0 33 -13.5 48.5t-54.5 15.5q-44 0 -59 -12t-23 -48l-139 22q16 83 66 117.5t161 34.5q113 0 158 -43.5t45 -138.5v-245h51v-117h-112q-28 -36 -28 -72
q0 -26 11 -35t41 -9h46v-82zM258 103q77 0 77 76v52h-72q-53 0 -74.5 -14.5t-21.5 -48.5q0 -37 20 -51t71 -14z" />
    <glyph glyph-name="Cacute" unicode="&#x106;" horiz-adv-x="621" 
d="M309 -8q-123 0 -195.5 64.5t-72.5 191.5v254q0 127 70.5 191.5t184.5 64.5q115 0 160 -55v47h114v-236h-127q-9 64 -34.5 89t-92.5 25q-70 0 -99 -35.5t-29 -105.5v-228q0 -69 28 -104.5t93 -35.5q64 0 91.5 28t32.5 97l141 -18q-14 -124 -75.5 -179t-189.5 -55zM243 779
l93 179h138l-107 -179h-124z" />
    <glyph glyph-name="cacute" unicode="&#x107;" horiz-adv-x="501" 
d="M256 -8q-120 0 -172 56t-52 148v144q0 93 50.5 148.5t160.5 55.5q79 0 113 -39v31h107v-188h-120q-5 45 -21 61t-62 16q-85 0 -85 -82v-154q0 -81 81 -81q46 0 61 16t22 60l125 -18q-6 -41 -16 -68.5t-31.5 -53.5t-61.5 -39t-99 -13zM184 576l93 179h138l-107 -179h-124z
" />
    <glyph glyph-name="Ccircumflex" unicode="&#x108;" horiz-adv-x="621" 
d="M309 -8q-123 0 -195.5 64.5t-72.5 191.5v254q0 127 70.5 191.5t184.5 64.5q115 0 160 -55v47h114v-236h-127q-9 64 -34.5 89t-92.5 25q-70 0 -99 -35.5t-29 -105.5v-228q0 -69 28 -104.5t93 -35.5q64 0 91.5 28t32.5 97l141 -18q-14 -124 -75.5 -179t-189.5 -55zM119 779
l121 167h143l121 -167h-113l-79 75l-77 -75h-116z" />
    <glyph glyph-name="ccircumflex" unicode="&#x109;" horiz-adv-x="501" 
d="M256 -8q-120 0 -172 56t-52 148v144q0 93 50.5 148.5t160.5 55.5q79 0 113 -39v31h107v-188h-120q-5 45 -21 61t-62 16q-85 0 -85 -82v-154q0 -81 81 -81q46 0 61 16t22 60l125 -18q-6 -41 -16 -68.5t-31.5 -53.5t-61.5 -39t-99 -13zM58 576l121 167h143l121 -167h-113
l-79 75l-77 -75h-116z" />
    <glyph glyph-name="Cdotaccent" unicode="&#x10a;" horiz-adv-x="621" 
d="M309 -8q-123 0 -195.5 64.5t-72.5 191.5v254q0 127 70.5 191.5t184.5 64.5q115 0 160 -55v47h114v-236h-127q-9 64 -34.5 89t-92.5 25q-70 0 -99 -35.5t-29 -105.5v-228q0 -69 28 -104.5t93 -35.5q64 0 91.5 28t32.5 97l141 -18q-14 -124 -75.5 -179t-189.5 -55zM242 779
v144h141v-144h-141z" />
    <glyph glyph-name="cdotaccent" unicode="&#x10b;" horiz-adv-x="501" 
d="M256 -8q-120 0 -172 56t-52 148v144q0 93 50.5 148.5t160.5 55.5q79 0 113 -39v31h107v-188h-120q-5 45 -21 61t-62 16q-85 0 -85 -82v-154q0 -81 81 -81q46 0 61 16t22 60l125 -18q-6 -41 -16 -68.5t-31.5 -53.5t-61.5 -39t-99 -13zM181 576v144h141v-144h-141z" />
    <glyph glyph-name="Ccaron" unicode="&#x10c;" horiz-adv-x="621" 
d="M309 -8q-123 0 -195.5 64.5t-72.5 191.5v254q0 127 70.5 191.5t184.5 64.5q115 0 160 -55v47h114v-236h-127q-9 64 -34.5 89t-92.5 25q-70 0 -99 -35.5t-29 -105.5v-228q0 -69 28 -104.5t93 -35.5q64 0 91.5 28t32.5 97l141 -18q-14 -124 -75.5 -179t-189.5 -55zM236 779
l-121 167h115l78 -76l78 76h114l-121 -167h-143z" />
    <glyph glyph-name="ccaron" unicode="&#x10d;" horiz-adv-x="501" 
d="M256 -8q-120 0 -172 56t-52 148v144q0 93 50.5 148.5t160.5 55.5q79 0 113 -39v31h107v-188h-120q-5 45 -21 61t-62 16q-85 0 -85 -82v-154q0 -81 81 -81q46 0 61 16t22 60l125 -18q-6 -41 -16 -68.5t-31.5 -53.5t-61.5 -39t-99 -13zM179 576l-121 167h115l78 -76l78 76
h114l-121 -167h-143z" />
    <glyph glyph-name="Dcaron" unicode="&#x10e;" horiz-adv-x="657" 
d="M32 0v124h64v498h-64v128h318q266 0 266 -250v-250q0 -250 -266 -250h-318zM243 121h106q66 0 93 32.5t27 105.5v228q0 73 -26.5 105.5t-92.5 32.5h-107v-504zM256 780l-121 167h115l78 -76l78 76h114l-121 -167h-143z" />
    <glyph glyph-name="dcaron" unicode="&#x10f;" horiz-adv-x="570" 
d="M541 569l20 249h129l-44 -249h-105zM219 -8q-101 0 -144 51t-43 146v158q0 96 43 146.5t149 50.5q82 0 128 -63v174h-61v125h205v-663h59v-117h-203v54q-41 -62 -133 -62zM262 108q42 0 65 19.5t25 55.5v164q0 36 -24 57t-66 21t-64 -21.5t-22 -60.5v-154q0 -81 86 -81z
" />
    <glyph glyph-name="Dcroat" unicode="&#x110;" horiz-adv-x="627" 
d="M2 343v121h64v158h-64v128h318q266 0 266 -250v-250q0 -250 -266 -250h-318v124h64v219h-64zM213 121h106q66 0 93 32.5t27 105.5v228q0 73 -26.5 105.5t-92.5 32.5h-107v-161h110v-121h-110v-222z" />
    <glyph glyph-name="dcroat" unicode="&#x111;" horiz-adv-x="570" 
d="M252 537v101h100v30h-61v112h205v-142h59v-101h-59v-420h59v-117h-203v54q-41 -62 -133 -62q-101 0 -144 51t-43 146v139q0 96 43 146.5t149 50.5q83 0 128 -63v75h-100zM262 108q42 0 65 19.5t25 55.5v154q0 36 -24 57t-66 21t-64 -21.5t-22 -60.5v-144q0 -81 86 -81z
" />
    <glyph glyph-name="Emacron" unicode="&#x112;" horiz-adv-x="616" 
d="M32 0v124h64v498h-64v128h531v-225h-129v101h-191v-174h196v-128h-196v-205h197v119h130v-238h-538zM161 780v100h298v-100h-298z" />
    <glyph glyph-name="emacron" unicode="&#x113;" horiz-adv-x="508" 
d="M256 -8q-117 0 -170.5 56.5t-53.5 147.5v144q0 93 53 148.5t171 55.5q120 0 170 -57.5t50 -165.5v-96h-304v-44q0 -39 18 -60t66 -21q47 0 62.5 16.5t20.5 56.5l137 -21q-20 -160 -220 -160zM172 326h165v27q0 41 -18.5 60t-62.5 19q-84 0 -84 -79v-27zM105 576v100h298
v-100h-298z" />
    <glyph glyph-name="Ebreve" unicode="&#x114;" horiz-adv-x="616" 
d="M32 0v124h64v498h-64v128h531v-225h-129v101h-191v-174h196v-128h-196v-205h197v119h130v-238h-538zM310 778q-97 0 -138.5 40t-41.5 114h115q0 -70 65 -70t65 70h115q0 -74 -41.5 -114t-138.5 -40z" />
    <glyph glyph-name="ebreve" unicode="&#x115;" horiz-adv-x="508" 
d="M256 -8q-117 0 -170.5 56.5t-53.5 147.5v144q0 93 53 148.5t171 55.5q120 0 170 -57.5t50 -165.5v-96h-304v-44q0 -39 18 -60t66 -21q47 0 62.5 16.5t20.5 56.5l137 -21q-20 -160 -220 -160zM172 326h165v27q0 41 -18.5 60t-62.5 19q-84 0 -84 -79v-27zM254 574
q-97 0 -138.5 40t-41.5 114h115q0 -70 65 -70t65 70h115q0 -74 -41.5 -114t-138.5 -40z" />
    <glyph glyph-name="Edotaccent" unicode="&#x116;" horiz-adv-x="616" 
d="M32 0v124h64v498h-64v128h531v-225h-129v101h-191v-174h196v-128h-196v-205h197v119h130v-238h-538zM240 780v144h141v-144h-141z" />
    <glyph glyph-name="edotaccent" unicode="&#x117;" horiz-adv-x="508" 
d="M256 -8q-117 0 -170.5 56.5t-53.5 147.5v144q0 93 53 148.5t171 55.5q120 0 170 -57.5t50 -165.5v-96h-304v-44q0 -39 18 -60t66 -21q47 0 62.5 16.5t20.5 56.5l137 -21q-20 -160 -220 -160zM172 326h165v27q0 41 -18.5 60t-62.5 19q-84 0 -84 -79v-27zM184 576v144h141
v-144h-141z" />
    <glyph glyph-name="Eogonek" unicode="&#x118;" horiz-adv-x="616" 
d="M32 0v124h64v498h-64v128h531v-225h-129v101h-191v-174h196v-128h-196v-205h197v119h130v-238h-78q-28 -36 -28 -72q0 -26 11 -35t41 -9h46v-82h-60q-130 0 -130 103q0 54 28 95h-368z" />
    <glyph glyph-name="eogonek" unicode="&#x119;" horiz-adv-x="508" 
d="M339 173l137 -21q-8 -64 -47.5 -106.5t-128.5 -50.5q21 27 66 69h-88q-44 -30 -70 -69q-91 11 -133.5 65.5t-42.5 135.5v144q0 93 53 148.5t171 55.5q120 0 170 -57.5t50 -165.5v-96h-304v-44q0 -39 18 -60t66 -21q47 0 62.5 16.5t20.5 56.5zM374 -198h-60
q-130 0 -130 103q0 49 24 90q22 -3 48 -3q23 0 44 3q-24 -33 -24 -67q0 -26 11 -35t41 -9h46v-82zM172 326h165v27q0 41 -18.5 60t-62.5 19q-84 0 -84 -79v-27z" />
    <glyph glyph-name="Ecaron" unicode="&#x11a;" horiz-adv-x="616" 
d="M32 0v124h64v498h-64v128h531v-225h-129v101h-191v-174h196v-128h-196v-205h197v119h130v-238h-538zM238 780l-121 167h115l78 -76l78 76h114l-121 -167h-143z" />
    <glyph glyph-name="ecaron" unicode="&#x11b;" horiz-adv-x="508" 
d="M256 -8q-117 0 -170.5 56.5t-53.5 147.5v144q0 93 53 148.5t171 55.5q120 0 170 -57.5t50 -165.5v-96h-304v-44q0 -39 18 -60t66 -21q47 0 62.5 16.5t20.5 56.5l137 -21q-20 -160 -220 -160zM172 326h165v27q0 41 -18.5 60t-62.5 19q-84 0 -84 -79v-27zM182 576l-121 167
h115l78 -76l78 76h114l-121 -167h-143z" />
    <glyph glyph-name="Gcircumflex" unicode="&#x11c;" horiz-adv-x="635" 
d="M308 -8q-123 0 -195 64.5t-72 191.5v254q0 127 70.5 191.5t184.5 64.5q117 0 159 -55v47h114v-236h-127q-7 66 -32.5 90.5t-93.5 24.5t-98 -35.5t-30 -103.5v-231q0 -142 120 -142q75 0 103.5 31.5t28.5 110.5v30h-134v119h268v-151q0 -265 -266 -265zM121 779l121 167
h143l121 -167h-113l-79 75l-77 -75h-116z" />
    <glyph glyph-name="gcircumflex" unicode="&#x11d;" horiz-adv-x="517" 
d="M256 176h-19q-27 0 -35 -5.5t-8 -19.5t7.5 -19t32.5 -5l54 -2q125 -3 168.5 -37.5t43.5 -112.5v-12q0 -34 -10 -61t-35 -51t-75 -37.5t-123 -13.5q-76 0 -125.5 10t-74 30.5t-33.5 44t-9 57.5v12q0 72 78 109q-17 24 -17 62q0 51 39 77q-82 40 -82 139v34q0 167 220 167
q44 0 77 -6h170v-122h-46q14 -28 14 -54v-21q0 -163 -212 -163zM65 576l121 167h143l121 -167h-113l-79 75l-77 -75h-116zM253 270q87 0 87 76v18q0 71 -87 71q-85 0 -85 -71v-20q0 -37 19 -55.5t66 -18.5zM174 16h-1q-25 -20 -25 -53v-9q0 -28 22.5 -42t86.5 -14
q65 0 88 13t23 41v9q0 28 -19.5 39t-86.5 13z" />
    <glyph glyph-name="Gbreve" unicode="&#x11e;" horiz-adv-x="635" 
d="M308 -8q-123 0 -195 64.5t-72 191.5v254q0 127 70.5 191.5t184.5 64.5q117 0 159 -55v47h114v-236h-127q-7 66 -32.5 90.5t-93.5 24.5t-98 -35.5t-30 -103.5v-231q0 -142 120 -142q75 0 103.5 31.5t28.5 110.5v30h-134v119h268v-151q0 -265 -266 -265zM314 777
q-97 0 -138.5 40t-41.5 114h115q0 -70 65 -70t65 70h115q0 -74 -41.5 -114t-138.5 -40z" />
    <glyph glyph-name="gbreve" unicode="&#x11f;" horiz-adv-x="517" 
d="M256 176h-19q-27 0 -35 -5.5t-8 -19.5t7.5 -19t32.5 -5l54 -2q125 -3 168.5 -37.5t43.5 -112.5v-12q0 -34 -10 -61t-35 -51t-75 -37.5t-123 -13.5q-76 0 -125.5 10t-74 30.5t-33.5 44t-9 57.5v12q0 72 78 109q-17 24 -17 62q0 51 39 77q-82 40 -82 139v34q0 167 220 167
q44 0 77 -6h170v-122h-46q14 -28 14 -54v-21q0 -163 -212 -163zM253 270q87 0 87 76v18q0 71 -87 71q-85 0 -85 -71v-20q0 -37 19 -55.5t66 -18.5zM174 16h-1q-25 -20 -25 -53v-9q0 -28 22.5 -42t86.5 -14q65 0 88 13t23 41v9q0 28 -19.5 39t-86.5 13zM258 574
q-97 0 -138.5 40t-41.5 114h115q0 -70 65 -70t65 70h115q0 -74 -41.5 -114t-138.5 -40z" />
    <glyph glyph-name="Gdotaccent" unicode="&#x120;" horiz-adv-x="635" 
d="M308 -8q-123 0 -195 64.5t-72 191.5v254q0 127 70.5 191.5t184.5 64.5q117 0 159 -55v47h114v-236h-127q-7 66 -32.5 90.5t-93.5 24.5t-98 -35.5t-30 -103.5v-231q0 -142 120 -142q75 0 103.5 31.5t28.5 110.5v30h-134v119h268v-151q0 -265 -266 -265zM244 779v144h141
v-144h-141z" />
    <glyph glyph-name="gdotaccent" unicode="&#x121;" horiz-adv-x="517" 
d="M256 176h-19q-27 0 -35 -5.5t-8 -19.5t7.5 -19t32.5 -5l54 -2q125 -3 168.5 -37.5t43.5 -112.5v-12q0 -34 -10 -61t-35 -51t-75 -37.5t-123 -13.5q-76 0 -125.5 10t-74 30.5t-33.5 44t-9 57.5v12q0 72 78 109q-17 24 -17 62q0 51 39 77q-82 40 -82 139v34q0 167 220 167
q44 0 77 -6h170v-122h-46q14 -28 14 -54v-21q0 -163 -212 -163zM253 270q87 0 87 76v18q0 71 -87 71q-85 0 -85 -71v-20q0 -37 19 -55.5t66 -18.5zM174 16h-1q-25 -20 -25 -53v-9q0 -28 22.5 -42t86.5 -14q65 0 88 13t23 41v9q0 28 -19.5 39t-86.5 13zM188 576v144h141v-144
h-141z" />
    <glyph glyph-name="Gcommaaccent" unicode="&#x122;" horiz-adv-x="635" 
d="M308 -8q-123 0 -195 64.5t-72 191.5v254q0 127 70.5 191.5t184.5 64.5q117 0 159 -55v47h114v-236h-127q-7 66 -32.5 90.5t-93.5 24.5t-98 -35.5t-30 -103.5v-231q0 -142 120 -142q75 0 103.5 31.5t28.5 110.5v30h-134v119h268v-151q0 -265 -266 -265zM264 -277l41 103
h-59v139h136v-139l-40 -103h-78z" />
    <glyph glyph-name="gcommaaccent" unicode="&#x123;" horiz-adv-x="517" 
d="M256 176h-19q-27 0 -35 -5.5t-8 -19.5t7.5 -19t32.5 -5l54 -2q125 -3 168.5 -37.5t43.5 -112.5v-12q0 -34 -10 -61t-35 -51t-75 -37.5t-123 -13.5q-76 0 -125.5 10t-74 30.5t-33.5 44t-9 57.5v12q0 72 78 109q-17 24 -17 62q0 51 39 77q-82 40 -82 139v34q0 167 220 167
q44 0 77 -6h170v-122h-46q14 -28 14 -54v-21q0 -163 -212 -163zM190 576v139l41 102h77l-40 -102h58v-139h-136zM253 270q87 0 87 76v18q0 71 -87 71q-85 0 -85 -71v-20q0 -37 19 -55.5t66 -18.5zM174 16h-1q-25 -20 -25 -53v-9q0 -28 22.5 -42t86.5 -14q65 0 88 13t23 41v9
q0 28 -19.5 39t-86.5 13z" />
    <glyph glyph-name="Hcircumflex" unicode="&#x124;" horiz-adv-x="718" 
d="M32 0v124h64v498h-64v128h272v-128h-61v-150h231v150h-60v128h272v-128h-65v-498h65v-124h-272v124h60v210h-231v-210h61v-124h-272zM165 780l121 167h143l121 -167h-113l-79 75l-77 -75h-116z" />
    <glyph glyph-name="hcircumflex" unicode="&#x125;" horiz-adv-x="596" 
d="M32 0v117h42v538h-53v125h197v-307q48 71 144 71q168 0 168 -158v-269h51v-117h-242v117h48v245q0 28 -21.5 44t-61.5 16q-35 0 -60.5 -18.5t-25.5 -48.5v-238h48v-117h-234zM-49 797l121 167h143l121 -167h-113l-79 75l-77 -75h-116z" />
    <glyph glyph-name="Hbar" unicode="&#x126;" horiz-adv-x="718" 
d="M32 450v113h64v59h-64v128h272v-128h-64v-59h237v59h-63v128h272v-128h-65v-59h65v-113h-65v-326h65v-124h-272v124h63v151h-237v-151h64v-124h-272v124h64v326h-64zM240 397h237v53h-237v-53z" />
    <glyph glyph-name="hbar" unicode="&#x127;" horiz-adv-x="596" 
d="M21 537v101h53v30h-53v112h197v-142h103v-101h-103v-83q49 71 144 71q168 0 168 -158v-250h51v-117h-242v117h48v236q0 28 -21.5 44t-61.5 16q-35 0 -60.5 -18t-25.5 -48v-230h48v-117h-234v117h42v420h-53z" />
    <glyph glyph-name="Itilde" unicode="&#x128;" horiz-adv-x="365" 
d="M32 0v124h80v498h-80v128h301v-128h-74v-498h75v-124h-302zM104 780h-100q0 70 22.5 104.5t82.5 34.5q31 0 76 -18t53 -18q26 0 26 36h100q0 -69 -23 -104t-84 -35q-30 0 -74.5 18t-52.5 18q-26 0 -26 -36z" />
    <glyph glyph-name="itilde" unicode="&#x129;" horiz-adv-x="323" 
d="M32 0v117h63v297h-63v122h207v-419h69v-117h-276zM82 576h-100q0 70 22.5 104.5t82.5 34.5q31 0 76 -18t53 -18q26 0 26 36h100q0 -69 -23 -104t-84 -35q-30 0 -74.5 18t-52.5 18q-26 0 -26 -36z" />
    <glyph glyph-name="Imacron" unicode="&#x12a;" horiz-adv-x="365" 
d="M32 0v124h80v498h-80v128h301v-128h-74v-498h75v-124h-302zM34 780v100h298v-100h-298z" />
    <glyph glyph-name="imacron" unicode="&#x12b;" horiz-adv-x="323" 
d="M32 0v117h63v297h-63v122h207v-419h69v-117h-276zM12 576v100h298v-100h-298z" />
    <glyph glyph-name="Ibreve" unicode="&#x12c;" horiz-adv-x="365" 
d="M32 0v124h80v498h-80v128h301v-128h-74v-498h75v-124h-302zM183 778q-97 0 -138.5 40t-41.5 114h115q0 -70 65 -70t65 70h115q0 -74 -41.5 -114t-138.5 -40z" />
    <glyph glyph-name="ibreve" unicode="&#x12d;" horiz-adv-x="323" 
d="M32 0v117h63v297h-63v122h207v-419h69v-117h-276zM161 574q-97 0 -138.5 40t-41.5 114h115q0 -70 65 -70t65 70h115q0 -74 -41.5 -114t-138.5 -40z" />
    <glyph glyph-name="Iogonek" unicode="&#x12e;" horiz-adv-x="365" 
d="M272 -198h-60q-130 0 -130 103q0 54 28 95h-78v124h80v498h-80v128h301v-128h-74v-498h75v-124h-132q-28 -36 -28 -72q0 -26 11 -35t41 -9h46v-82z" />
    <glyph glyph-name="iogonek" unicode="&#x12f;" horiz-adv-x="323" 
d="M265 -198h-60q-130 0 -130 103q0 54 28 95h-71v117h63v297h-63v122h207v-419h69v-117h-113q-28 -36 -28 -72q0 -26 11 -35t41 -9h46v-82zM94 600v139h146v-139h-146z" />
    <glyph glyph-name="Idotaccent" unicode="&#x130;" horiz-adv-x="365" 
d="M32 0v124h80v498h-80v128h301v-128h-74v-498h75v-124h-302zM113 780v144h141v-144h-141z" />
    <glyph glyph-name="dotlessi" unicode="&#x131;" horiz-adv-x="323" 
d="M32 0v117h63v297h-63v122h207v-419h69v-117h-276z" />
    <glyph glyph-name="IJ" unicode="&#x132;" horiz-adv-x="697" 
d="M32 0v124h80v498h-80v128h294v-128h-67v-498h66v-124h-293zM388 0v124h17q37 0 49 14.5t12 62.5v421h-76v128h275v-128h-53v-430q0 -60 -14 -99.5t-42.5 -59t-61.5 -26.5t-82 -7h-24z" />
    <glyph glyph-name="ij" unicode="&#x133;" horiz-adv-x="567" 
d="M32 0v117h63v297h-63v122h207v-419h65v-117h-272zM94 600v139h146v-139h-146zM310 -198v113h18q27 0 36 13t9 46v440h-63v122h207v-571q0 -84 -39.5 -123.5t-131.5 -39.5h-36zM372 600v139h146v-139h-146z" />
    <glyph glyph-name="Jcircumflex" unicode="&#x134;" horiz-adv-x="384" 
d="M22 0v124h33q62 0 80 22.5t18 94.5v381h-56v128h255v-128h-53v-382q0 -66 -9.5 -108t-35.5 -73.5t-73.5 -45t-122.5 -13.5h-36zM34 780l121 167h143l121 -167h-113l-79 75l-77 -75h-116z" />
    <glyph glyph-name="jcircumflex" unicode="&#x135;" horiz-adv-x="278" 
d="M21 -198v113h18q27 0 36 13t9 46v440h-63v122h207v-571q0 -84 -39.5 -123.5t-131.5 -39.5h-36zM-41 576l121 167h143l121 -167h-113l-79 75l-77 -75h-116z" />
    <glyph glyph-name="Kcommaaccent" unicode="&#x136;" horiz-adv-x="658" 
d="M416 0v124h20l-121 215l-72 -77v-138h64v-124h-275v124h64v498h-64v128h268v-124h-57v-212l203 212h-37v124h222v-128h-39l-173 -181l178 -317h46v-124h-227zM276 -277l41 103h-59v139h136v-139l-40 -103h-78z" />
    <glyph glyph-name="kcommaaccent" unicode="&#x137;" horiz-adv-x="564" 
d="M21 655v125h197v-472l129 114h-40v114h222v-122h-40l-113 -97l135 -200h38v-117h-220v113h31l-85 124l-57 -50v-74h38v-113h-224v117h42v538h-53zM232 -277l41 103h-59v139h136v-139l-40 -103h-78z" />
    <glyph glyph-name="Lacute" unicode="&#x139;" horiz-adv-x="598" 
d="M32 0v124h64v498h-64v128h283v-128h-72v-503h190v119h130v-238h-531zM116 780l93 179h138l-107 -179h-124z" />
    <glyph glyph-name="lacute" unicode="&#x13a;" horiz-adv-x="315" 
d="M32 0v117h55v538h-66v125h209v-663h70v-117h-268zM88 800l93 179h138l-107 -179h-124z" />
    <glyph glyph-name="Lcommaaccent" unicode="&#x13b;" horiz-adv-x="598" 
d="M32 0v124h64v498h-64v128h283v-128h-72v-503h190v119h130v-238h-531zM248 -277l41 103h-59v139h136v-139l-40 -103h-78z" />
    <glyph glyph-name="lcommaaccent" unicode="&#x13c;" horiz-adv-x="315" 
d="M32 0v117h55v538h-66v125h209v-663h70v-117h-268zM107 -277l41 103h-59v139h136v-139l-40 -103h-78z" />
    <glyph glyph-name="Lcaron" unicode="&#x13d;" horiz-adv-x="598" 
d="M395 502l20 248h129l-43 -248h-106zM32 0v124h64v498h-64v128h283v-128h-72v-503h190v119h130v-238h-531z" />
    <glyph glyph-name="lcaron" unicode="&#x13e;" horiz-adv-x="315" 
d="M276 569l20 249h129l-43 -249h-106zM32 0v117h55v538h-66v125h209v-663h70v-117h-268z" />
    <glyph glyph-name="Ldot" unicode="&#x13f;" horiz-adv-x="613" 
d="M32 0v124h64v498h-64v128h283v-128h-72v-503h190v119h130v-238h-531zM416 347v144h135v-144h-135z" />
    <glyph glyph-name="ldot" unicode="&#x140;" horiz-adv-x="370" 
d="M32 0v117h55v538h-66v125h209v-663h70v-117h-268zM275 280v134h133v-134h-133z" />
    <glyph glyph-name="Lslash" unicode="&#x141;" horiz-adv-x="598" 
d="M32 319v121l64 10v172h-64v128h283v-128h-72v-149l110 17v-121l-110 -17v-233h190v119h130v-238h-531v124h64v205z" />
    <glyph glyph-name="lslash" unicode="&#x142;" horiz-adv-x="315" 
d="M32 389v122l55 10v134h-66v125h209v-232l70 13v-122l-70 -13v-309h70v-117h-268v117h55v282z" />
    <glyph glyph-name="Nacute" unicode="&#x143;" horiz-adv-x="712" 
d="M32 0v124h64v498h-64v128h226l227 -461h2v333h-59v128h252v-128h-59v-622h-144l-242 494h-2v-370h64v-124h-265zM293 780l93 179h138l-107 -179h-124z" />
    <glyph glyph-name="nacute" unicode="&#x144;" horiz-adv-x="607" 
d="M32 0v117h53v297h-53v122h197v-63q48 71 144 71q168 0 168 -158v-269h51v-117h-242v117h47v245q0 28 -21 44t-61 16q-35 0 -60.5 -18.5t-25.5 -48.5v-238h47v-117h-244zM240 576l93 179h138l-107 -179h-124z" />
    <glyph glyph-name="Ncommaaccent" unicode="&#x145;" horiz-adv-x="712" 
d="M32 0v124h64v498h-64v128h226l227 -461h2v333h-59v128h252v-128h-59v-622h-144l-242 494h-2v-370h64v-124h-265zM305 -277l41 103h-59v139h136v-139l-40 -103h-78z" />
    <glyph glyph-name="ncommaaccent" unicode="&#x146;" horiz-adv-x="607" 
d="M32 0v117h53v297h-53v122h197v-63q48 71 144 71q168 0 168 -158v-269h51v-117h-242v117h47v245q0 28 -21 44t-61 16q-35 0 -60.5 -18.5t-25.5 -48.5v-238h47v-117h-244zM252 -277l41 103h-59v139h136v-139l-40 -103h-78z" />
    <glyph glyph-name="Ncaron" unicode="&#x147;" horiz-adv-x="712" 
d="M32 0v124h64v498h-64v128h226l227 -461h2v333h-59v128h252v-128h-59v-622h-144l-242 494h-2v-370h64v-124h-265zM283 780l-121 167h115l78 -76l78 76h114l-121 -167h-143z" />
    <glyph glyph-name="ncaron" unicode="&#x148;" horiz-adv-x="607" 
d="M32 0v117h53v297h-53v122h197v-63q48 71 144 71q168 0 168 -158v-269h51v-117h-242v117h47v245q0 28 -21 44t-61 16q-35 0 -60.5 -18.5t-25.5 -48.5v-238h47v-117h-244zM230 576l-121 167h115l78 -76l78 76h114l-121 -167h-143z" />
    <glyph glyph-name="Eng" unicode="&#x14a;" horiz-adv-x="675" 
d="M243 681q31 43 73 59.5t105 16.5q200 0 200 -222v-570q0 -84 -40.5 -123.5t-133.5 -39.5h-51v121h33q27 0 36 13t9 46v536q0 64 -28 87.5t-77 23.5q-64 0 -95 -23.5t-31 -95.5v-386h64v-124h-275v124h64v498h-64v128h211v-69z" />
    <glyph glyph-name="eng" unicode="&#x14b;" horiz-adv-x="588" 
d="M318 -198v113h33q27 0 36.5 13t9.5 46v388q0 28 -21.5 44t-61.5 16q-35 0 -60.5 -18.5t-25.5 -48.5v-238h48v-117h-244v117h52v297h-52v122h196v-63q48 71 144 71q168 0 168 -158v-421q0 -84 -39.5 -123.5t-131.5 -39.5h-51z" />
    <glyph glyph-name="Omacron" unicode="&#x14c;" horiz-adv-x="630" 
d="M315 -8q-130 0 -202 64t-72 192v254q0 128 72.5 192t201.5 64t201.5 -64t72.5 -192v-254q0 -128 -72.5 -192t-201.5 -64zM315 119q67 0 97 34t30 106v228q0 73 -30 107t-97 34t-97 -34t-30 -107v-228q0 -72 30 -106t97 -34zM165 780v100h298v-100h-298z" />
    <glyph glyph-name="omacron" unicode="&#x14d;" horiz-adv-x="528" 
d="M263 108q43 0 66 21.5t23 59.5v154q0 39 -23 60.5t-66 21.5t-65 -21.5t-22 -60.5v-154q0 -38 22 -59.5t65 -21.5zM263 -8q-119 0 -175 55t-56 149v144q0 94 56.5 149t174.5 55q119 0 176 -55t57 -149v-144q0 -93 -57.5 -148.5t-175.5 -55.5zM114 576v100h298v-100h-298z
" />
    <glyph glyph-name="Obreve" unicode="&#x14e;" horiz-adv-x="630" 
d="M315 -8q-130 0 -202 64t-72 192v254q0 128 72.5 192t201.5 64t201.5 -64t72.5 -192v-254q0 -128 -72.5 -192t-201.5 -64zM315 119q67 0 97 34t30 106v228q0 73 -30 107t-97 34t-97 -34t-30 -107v-228q0 -72 30 -106t97 -34zM314 778q-97 0 -138.5 40t-41.5 114h115
q0 -70 65 -70t65 70h115q0 -74 -41.5 -114t-138.5 -40z" />
    <glyph glyph-name="obreve" unicode="&#x14f;" horiz-adv-x="528" 
d="M263 108q43 0 66 21.5t23 59.5v154q0 39 -23 60.5t-66 21.5t-65 -21.5t-22 -60.5v-154q0 -38 22 -59.5t65 -21.5zM263 -8q-119 0 -175 55t-56 149v144q0 94 56.5 149t174.5 55q119 0 176 -55t57 -149v-144q0 -93 -57.5 -148.5t-175.5 -55.5zM263 574q-97 0 -138.5 40
t-41.5 114h115q0 -70 65 -70t65 70h115q0 -74 -41.5 -114t-138.5 -40z" />
    <glyph glyph-name="Ohungarumlaut" unicode="&#x150;" horiz-adv-x="630" 
d="M315 -8q-130 0 -202 64t-72 192v254q0 128 72.5 192t201.5 64t201.5 -64t72.5 -192v-254q0 -128 -72.5 -192t-201.5 -64zM315 119q67 0 97 34t30 106v228q0 73 -30 107t-97 34t-97 -34t-30 -107v-228q0 -72 30 -106t97 -34zM162 780l93 179h127l-108 -179h-112zM343 780
l92 179h128l-108 -179h-112z" />
    <glyph glyph-name="ohungarumlaut" unicode="&#x151;" horiz-adv-x="528" 
d="M263 108q43 0 66 21.5t23 59.5v154q0 39 -23 60.5t-66 21.5t-65 -21.5t-22 -60.5v-154q0 -38 22 -59.5t65 -21.5zM263 -8q-119 0 -175 55t-56 149v144q0 94 56.5 149t174.5 55q119 0 176 -55t57 -149v-144q0 -93 -57.5 -148.5t-175.5 -55.5zM111 576l93 179h127
l-108 -179h-112zM292 576l92 179h128l-108 -179h-112z" />
    <glyph glyph-name="OE" unicode="&#x152;" horiz-adv-x="929" 
d="M883 0h-576q-127 0 -196.5 61.5t-69.5 188.5v250q0 250 266 250h570v-225h-130v101h-190v-174h195v-128h-195v-205h196v119h130v-238zM307 119h107v508h-107q-65 0 -92 -33t-27 -107v-228q0 -73 27 -106.5t92 -33.5z" />
    <glyph glyph-name="oe" unicode="&#x153;" horiz-adv-x="828" 
d="M263 -8q-119 0 -175 55t-56 149v144q0 94 56.5 149t174.5 55q102 0 157 -53q55 53 155 53q121 0 171 -57.5t50 -165.5v-96h-305v-44q0 -39 18.5 -60t65.5 -21q48 0 63.5 16.5t20.5 56.5l137 -21q-20 -160 -221 -160q-102 0 -155 53q-53 -53 -157 -53zM263 108
q43 0 66 21.5t23 59.5v154q0 39 -23 60.5t-66 21.5t-65 -21.5t-22 -60.5v-154q0 -38 22 -59.5t65 -21.5zM491 326h166v27q0 41 -18.5 60t-63.5 19q-84 0 -84 -79v-27z" />
    <glyph glyph-name="Racute" unicode="&#x154;" horiz-adv-x="657" 
d="M405 0v124h18l-83 155h-97v-155h52v-124h-263v124h64v498h-64v128h321q132 0 191.5 -49t59.5 -157v-59q0 -138 -122 -183l96 -178h64v-124h-237zM243 397h114q59 0 82 20t23 73v44q0 52 -23 72t-82 20h-114v-229zM266 780l93 179h138l-107 -179h-124z" />
    <glyph glyph-name="racute" unicode="&#x155;" horiz-adv-x="392" 
d="M32 0v117h53v297h-53v122h197v-72q44 77 128 78h20v-127h-20q-56 0 -92 -18.5t-36 -58.5v-221h54v-117h-251zM134 576l93 179h138l-107 -179h-124z" />
    <glyph glyph-name="Rcommaaccent" unicode="&#x156;" horiz-adv-x="657" 
d="M405 0v124h18l-83 155h-97v-155h52v-124h-263v124h64v498h-64v128h321q132 0 191.5 -49t59.5 -157v-59q0 -138 -122 -183l96 -178h64v-124h-237zM243 397h114q59 0 82 20t23 73v44q0 52 -23 72t-82 20h-114v-229zM278 -277l41 103h-59v139h136v-139l-40 -103h-78z" />
    <glyph glyph-name="rcommaaccent" unicode="&#x157;" horiz-adv-x="392" 
d="M32 0v117h53v297h-53v122h197v-72q44 77 128 78h20v-127h-20q-56 0 -92 -18.5t-36 -58.5v-221h54v-117h-251zM105 -277l41 103h-59v139h136v-139l-40 -103h-78z" />
    <glyph glyph-name="Rcaron" unicode="&#x158;" horiz-adv-x="657" 
d="M405 0v124h18l-83 155h-97v-155h52v-124h-263v124h64v498h-64v128h321q132 0 191.5 -49t59.5 -157v-59q0 -138 -122 -183l96 -178h64v-124h-237zM243 397h114q59 0 82 20t23 73v44q0 52 -23 72t-82 20h-114v-229zM256 780l-121 167h115l78 -76l78 76h114l-121 -167h-143z
" />
    <glyph glyph-name="rcaron" unicode="&#x159;" horiz-adv-x="392" 
d="M32 0v117h53v297h-53v122h197v-72q44 77 128 78h20v-127h-20q-56 0 -92 -18.5t-36 -58.5v-221h54v-117h-251zM124 576l-121 167h115l78 -76l78 76h114l-121 -167h-143z" />
    <glyph glyph-name="Sacute" unicode="&#x15a;" horiz-adv-x="606" 
d="M311 -8q-108 0 -157 58v-50h-112v238h125q7 -71 38.5 -97t96.5 -26q68 0 97.5 24t29.5 76q0 46 -30.5 67t-104.5 42q-38 10 -55 15t-49 16.5t-47.5 21.5t-37.5 27t-32 36t-18 46t-8 60q0 99 60 155.5t184 56.5q102 0 146 -53v45h110v-225h-124q-5 59 -34 82.5t-88 23.5
q-56 0 -84.5 -19t-28.5 -62q0 -19 8 -33.5t17.5 -23.5t32.5 -18t37.5 -13l48.5 -13q48 -13 75 -21.5t63 -27t54.5 -40.5t32 -58t13.5 -84q0 -111 -60.5 -168.5t-198.5 -57.5zM240 779l93 179h138l-107 -179h-124z" />
    <glyph glyph-name="sacute" unicode="&#x15b;" horiz-adv-x="510" 
d="M274 -7q-102 0 -139 43v-36h-99v187h112q6 -50 30 -70.5t78 -20.5q50 0 69 12t19 41q0 26 -18 37t-64 20q-100 17 -135 34q-85 38 -84 132q0 88 49.5 129.5t160.5 41.5q75 0 115 -36v29h99v-176h-112q-2 42 -22 58t-66 16q-44 0 -64.5 -10t-20.5 -36q0 -21 14 -33
t31 -16.5t59 -11.5q34 -6 55.5 -11t51.5 -17t47.5 -27.5t30.5 -43t13 -62.5q0 -82 -47 -127.5t-163 -45.5zM192 576l93 179h138l-107 -179h-124z" />
    <glyph glyph-name="Scircumflex" unicode="&#x15c;" horiz-adv-x="606" 
d="M311 -8q-108 0 -157 58v-50h-112v238h125q7 -71 38.5 -97t96.5 -26q68 0 97.5 24t29.5 76q0 46 -30.5 67t-104.5 42q-38 10 -55 15t-49 16.5t-47.5 21.5t-37.5 27t-32 36t-18 46t-8 60q0 99 60 155.5t184 56.5q102 0 146 -53v45h110v-225h-124q-5 59 -34 82.5t-88 23.5
q-56 0 -84.5 -19t-28.5 -62q0 -19 8 -33.5t17.5 -23.5t32.5 -18t37.5 -13l48.5 -13q48 -13 75 -21.5t63 -27t54.5 -40.5t32 -58t13.5 -84q0 -111 -60.5 -168.5t-198.5 -57.5zM109 779l121 167h143l121 -167h-113l-79 75l-77 -75h-116z" />
    <glyph glyph-name="scircumflex" unicode="&#x15d;" horiz-adv-x="510" 
d="M274 -7q-102 0 -139 43v-36h-99v187h112q6 -50 30 -70.5t78 -20.5q50 0 69 12t19 41q0 26 -18 37t-64 20q-100 17 -135 34q-85 38 -84 132q0 88 49.5 129.5t160.5 41.5q75 0 115 -36v29h99v-176h-112q-2 42 -22 58t-66 16q-44 0 -64.5 -10t-20.5 -36q0 -21 14 -33
t31 -16.5t59 -11.5q34 -6 55.5 -11t51.5 -17t47.5 -27.5t30.5 -43t13 -62.5q0 -82 -47 -127.5t-163 -45.5zM61 576l121 167h143l121 -167h-113l-79 75l-77 -75h-116z" />
    <glyph glyph-name="Scedilla" unicode="&#x15e;" horiz-adv-x="606" 
d="M224 -241v77h36q39 0 55.5 8t16.5 32q0 21 -16 28.5t-53 7.5h-11v85q-64 12 -98 53v-50h-112v238h125q7 -71 38.5 -97t96.5 -26q68 0 97.5 24t29.5 76q0 46 -30.5 67t-104.5 42q-38 10 -55 15t-49 16.5t-47.5 21.5t-37.5 27t-32 36t-18 46t-8 60q0 99 60 155.5t184 56.5
q102 0 146 -53v45h110v-225h-124q-5 59 -34 82.5t-88 23.5q-56 0 -84.5 -19t-28.5 -62q0 -19 8 -33.5t17.5 -23.5t32.5 -18t37.5 -13l48.5 -13q48 -13 75 -21.5t63 -27t54.5 -40.5t32 -58t13.5 -84q0 -108 -57.5 -165.5t-187.5 -60.5v-31q88 -5 88 -87q0 -57 -34.5 -86
t-116.5 -29h-38z" />
    <glyph glyph-name="scedilla" unicode="&#x15f;" horiz-adv-x="510" 
d="M176 -241v77h36q39 0 55.5 8t16.5 32q0 21 -16 28.5t-53 7.5h-11v88q-46 9 -69 36v-36h-99v187h112q6 -50 30 -70.5t78 -20.5q50 0 69 12t19 41q0 26 -18 37t-64 20q-100 17 -135 34q-85 38 -84 132q0 88 49.5 129.5t160.5 41.5q75 0 115 -36v29h99v-176h-112
q-2 42 -22 58t-66 16q-44 0 -64.5 -10t-20.5 -36q0 -21 14 -33t31 -16.5t59 -11.5q34 -6 55.5 -11t51.5 -17t47.5 -27.5t30.5 -43t13 -62.5q0 -82 -46.5 -127t-160.5 -46v-32q88 -5 88 -87q0 -57 -34.5 -86t-116.5 -29h-38z" />
    <glyph glyph-name="Scaron" unicode="&#x160;" horiz-adv-x="606" 
d="M311 -8q-108 0 -157 58v-50h-112v238h125q7 -71 38.5 -97t96.5 -26q68 0 97.5 24t29.5 76q0 46 -30.5 67t-104.5 42q-38 10 -55 15t-49 16.5t-47.5 21.5t-37.5 27t-32 36t-18 46t-8 60q0 99 60 155.5t184 56.5q102 0 146 -53v45h110v-225h-124q-5 59 -34 82.5t-88 23.5
q-56 0 -84.5 -19t-28.5 -62q0 -19 8 -33.5t17.5 -23.5t32.5 -18t37.5 -13l48.5 -13q48 -13 75 -21.5t63 -27t54.5 -40.5t32 -58t13.5 -84q0 -111 -60.5 -168.5t-198.5 -57.5zM230 779l-121 167h115l78 -76l78 76h114l-121 -167h-143z" />
    <glyph glyph-name="scaron" unicode="&#x161;" horiz-adv-x="510" 
d="M274 -7q-102 0 -139 43v-36h-99v187h112q6 -50 30 -70.5t78 -20.5q50 0 69 12t19 41q0 26 -18 37t-64 20q-100 17 -135 34q-85 38 -84 132q0 88 49.5 129.5t160.5 41.5q75 0 115 -36v29h99v-176h-112q-2 42 -22 58t-66 16q-44 0 -64.5 -10t-20.5 -36q0 -21 14 -33
t31 -16.5t59 -11.5q34 -6 55.5 -11t51.5 -17t47.5 -27.5t30.5 -43t13 -62.5q0 -82 -47 -127.5t-163 -45.5zM182 576l-121 167h115l78 -76l78 76h114l-121 -167h-143z" />
    <glyph glyph-name="Tcommaaccent" unicode="&#x162;" horiz-adv-x="665" 
d="M190 0v124h69v510h-94v-109h-129v225h594v-225h-130v109h-94v-510h69v-124h-285zM282 -277l41 103h-59v139h136v-139l-40 -103h-78z" />
    <glyph glyph-name="Tcommaaccent" unicode="&#x21a;" horiz-adv-x="665" 
d="M190 0v124h69v510h-94v-109h-129v225h594v-225h-130v109h-94v-510h69v-124h-285zM282 -277l41 103h-59v139h136v-139l-40 -103h-78z" />
    <glyph glyph-name="tcommaaccent" unicode="&#x163;" horiz-adv-x="379" 
d="M359 0h-98q-100 0 -135 39t-35 132v243h-76v122h76v165h143v-165h125v-122h-125v-240q0 -32 9 -44.5t37 -12.5h79v-117zM127 -277l41 103h-59v139h136v-139l-40 -103h-78z" />
    <glyph glyph-name="tcommaaccent" unicode="&#x21b;" horiz-adv-x="379" 
d="M359 0h-98q-100 0 -135 39t-35 132v243h-76v122h76v165h143v-165h125v-122h-125v-240q0 -32 9 -44.5t37 -12.5h79v-117zM127 -277l41 103h-59v139h136v-139l-40 -103h-78z" />
    <glyph glyph-name="Tcaron" unicode="&#x164;" horiz-adv-x="665" 
d="M190 0v124h69v510h-94v-109h-129v225h594v-225h-130v109h-94v-510h69v-124h-285zM260 780l-121 167h115l78 -76l78 76h114l-121 -167h-143z" />
    <glyph glyph-name="tcaron" unicode="&#x165;" horiz-adv-x="379" 
d="M279 569l20 249h128l-43 -249h-105zM359 0h-98q-100 0 -135 39t-35 132v243h-76v122h76v165h143v-165h125v-122h-125v-240q0 -32 9 -44.5t37 -12.5h79v-117z" />
    <glyph glyph-name="Tbar" unicode="&#x166;" horiz-adv-x="665" 
d="M158 328v121h101v185h-94v-109h-129v225h594v-225h-130v109h-94v-185h102v-121h-102v-204h69v-124h-285v124h69v204h-101z" />
    <glyph glyph-name="tbar" unicode="&#x167;" horiz-adv-x="379" 
d="M15 235v115h76v64h-76v122h76v165h143v-165h125v-122h-125v-64h125v-115h-125v-61q0 -32 9 -44.5t37 -12.5h79v-117h-98q-100 0 -135 39t-35 132v64h-76z" />
    <glyph glyph-name="Utilde" unicode="&#x168;" horiz-adv-x="689" 
d="M346 -8q-262 0 -262 256v374h-52v128h262v-128h-64v-362q0 -73 25.5 -106t90.5 -33q66 0 91.5 33t25.5 106v362h-59v128h254v-128h-53v-374q0 -256 -259 -256zM265 780h-100q0 70 22.5 104.5t82.5 34.5q31 0 76 -18t53 -18q26 0 26 36h100q0 -69 -23 -104t-84 -35
q-30 0 -74.5 18t-52.5 18q-26 0 -26 -36z" />
    <glyph glyph-name="utilde" unicode="&#x169;" horiz-adv-x="596" 
d="M234 -8q-168 0 -168 158v264h-45v122h189v-364q0 -28 21 -44t60 -16q36 0 62 18.5t26 49.5v234h-58v122h201v-419h59v-117h-202v62q-48 -70 -145 -70zM218 576h-100q0 70 22.5 104.5t82.5 34.5q31 0 76 -18t53 -18q26 0 26 36h100q0 -69 -23 -104t-84 -35q-30 0 -74.5 18
t-52.5 18q-26 0 -26 -36z" />
    <glyph glyph-name="Umacron" unicode="&#x16a;" horiz-adv-x="689" 
d="M346 -8q-262 0 -262 256v374h-52v128h262v-128h-64v-362q0 -73 25.5 -106t90.5 -33q66 0 91.5 33t25.5 106v362h-59v128h254v-128h-53v-374q0 -256 -259 -256zM198 780v100h298v-100h-298z" />
    <glyph glyph-name="umacron" unicode="&#x16b;" horiz-adv-x="596" 
d="M234 -8q-168 0 -168 158v264h-45v122h189v-364q0 -28 21 -44t60 -16q36 0 62 18.5t26 49.5v234h-58v122h201v-419h59v-117h-202v62q-48 -70 -145 -70zM148 576v100h298v-100h-298z" />
    <glyph glyph-name="Ubreve" unicode="&#x16c;" horiz-adv-x="689" 
d="M346 -8q-262 0 -262 256v374h-52v128h262v-128h-64v-362q0 -73 25.5 -106t90.5 -33q66 0 91.5 33t25.5 106v362h-59v128h254v-128h-53v-374q0 -256 -259 -256zM347 778q-97 0 -138.5 40t-41.5 114h115q0 -70 65 -70t65 70h115q0 -74 -41.5 -114t-138.5 -40z" />
    <glyph glyph-name="ubreve" unicode="&#x16d;" horiz-adv-x="596" 
d="M234 -8q-168 0 -168 158v264h-45v122h189v-364q0 -28 21 -44t60 -16q36 0 62 18.5t26 49.5v234h-58v122h201v-419h59v-117h-202v62q-48 -70 -145 -70zM297 574q-97 0 -138.5 40t-41.5 114h115q0 -70 65 -70t65 70h115q0 -74 -41.5 -114t-138.5 -40z" />
    <glyph glyph-name="Uring" unicode="&#x16e;" horiz-adv-x="689" 
d="M346 -8q-262 0 -262 256v374h-52v128h262v-128h-64v-362q0 -73 25.5 -106t90.5 -33q66 0 91.5 33t25.5 106v362h-59v128h254v-128h-53v-374q0 -256 -259 -256zM347 778q-121 0 -121 118q0 121 121 121q59 0 90 -28t31 -93q0 -63 -31 -90.5t-90 -27.5zM347 843
q25 0 36.5 12.5t11.5 40.5q0 55 -48 55t-48 -55q0 -53 48 -53z" />
    <glyph glyph-name="uring" unicode="&#x16f;" horiz-adv-x="596" 
d="M234 -8q-168 0 -168 158v264h-45v122h189v-364q0 -28 21 -44t60 -16q36 0 62 18.5t26 49.5v234h-58v122h201v-419h59v-117h-202v62q-48 -70 -145 -70zM297 574q-121 0 -121 118q0 121 121 121q59 0 90 -28t31 -93q0 -63 -31 -90.5t-90 -27.5zM297 639q25 0 36.5 12.5
t11.5 40.5q0 55 -48 55t-48 -55q0 -53 48 -53z" />
    <glyph glyph-name="Uhungarumlaut" unicode="&#x170;" horiz-adv-x="689" 
d="M346 -8q-262 0 -262 256v374h-52v128h262v-128h-64v-362q0 -73 25.5 -106t90.5 -33q66 0 91.5 33t25.5 106v362h-59v128h254v-128h-53v-374q0 -256 -259 -256zM192 780l93 179h127l-108 -179h-112zM373 780l92 179h128l-108 -179h-112z" />
    <glyph glyph-name="uhungarumlaut" unicode="&#x171;" horiz-adv-x="596" 
d="M234 -8q-168 0 -168 158v264h-45v122h189v-364q0 -28 21 -44t60 -16q36 0 62 18.5t26 49.5v234h-58v122h201v-419h59v-117h-202v62q-48 -70 -145 -70zM145 576l93 179h127l-108 -179h-112zM326 576l92 179h128l-108 -179h-112z" />
    <glyph glyph-name="Uogonek" unicode="&#x172;" horiz-adv-x="689" 
d="M373 -198q-130 0 -130 103q0 54 27 94q-186 34 -186 249v374h-52v128h262v-128h-64v-362q0 -73 25.5 -106t90.5 -33q66 0 91.5 33t25.5 106v362h-59v128h254v-128h-53v-374q0 -250 -248 -256q-22 -30 -22 -64q0 -26 11 -35t41 -9h46v-82h-60z" />
    <glyph glyph-name="uogonek" unicode="&#x173;" horiz-adv-x="596" 
d="M234 -8q-168 0 -168 158v264h-45v122h189v-364q0 -28 21 -44t60 -16q36 0 62 18.5t26 49.5v234h-58v122h201v-419h59v-117h-119q18 23 62 64h-88q-37 -26 -57 -52v50q-48 -70 -145 -70zM532 -198h-60q-130 0 -130 103q0 63 37 107v-12h83q-28 -36 -28 -72q0 -26 11 -35
t41 -9h46v-82z" />
    <glyph glyph-name="Wcircumflex" unicode="&#x174;" horiz-adv-x="945" 
d="M201 0l-141 622h-45v128h264v-128h-75l89 -407h2l106 535h154l105 -535h2l90 407h-76v128h254v-128h-46l-140 -622h-166l-104 500h-2l-106 -500h-165zM282 780l121 167h143l121 -167h-113l-79 75l-77 -75h-116z" />
    <glyph glyph-name="wcircumflex" unicode="&#x175;" horiz-adv-x="782" 
d="M151 0l-100 414h-36v122h226v-122h-49l55 -250h1l70 372h159l69 -370h2l55 248h-51v122h215v-122h-36l-94 -414h-167l-73 344h-1l-71 -344h-174zM204 576l121 167h143l121 -167h-113l-79 75l-77 -75h-116z" />
    <glyph glyph-name="Ycircumflex" unicode="&#x176;" horiz-adv-x="646" 
d="M180 0v124h65v177l-194 321h-41v128h266v-128h-74l122 -210h2l123 210h-64v128h241v-128h-43l-192 -321v-177h63v-124h-274zM138 780l121 167h143l121 -167h-113l-79 75l-77 -75h-116z" />
    <glyph glyph-name="ycircumflex" unicode="&#x177;" horiz-adv-x="547" 
d="M106 -198v113h63l38 102l-159 397h-33v122h229v-122h-52l87 -230l87 230h-48v122h214v-122h-35l-192 -499h53v-113h-252zM88 576l121 167h143l121 -167h-113l-79 75l-77 -75h-116z" />
    <glyph glyph-name="Ydieresis" unicode="&#x178;" horiz-adv-x="646" 
d="M180 0v124h65v177l-194 321h-41v128h266v-128h-74l122 -210h2l123 210h-64v128h241v-128h-43l-192 -321v-177h63v-124h-274zM170 780v129h125v-129h-125zM367 780v129h125v-129h-125z" />
    <glyph glyph-name="Zacute" unicode="&#x179;" horiz-adv-x="581" 
d="M34 0v115l338 518h-200v-108h-127v225h493v-119l-338 -518h221v125h127v-238h-514zM228 780l93 179h138l-107 -179h-124z" />
    <glyph glyph-name="zacute" unicode="&#x17a;" horiz-adv-x="493" 
d="M32 0v117l272 308h-149v-65h-115v176h421v-122l-271 -307h164v80h116v-187h-438zM185 576l93 179h138l-107 -179h-124z" />
    <glyph glyph-name="Zdotaccent" unicode="&#x17b;" horiz-adv-x="581" 
d="M34 0v115l338 518h-200v-108h-127v225h493v-119l-338 -518h221v125h127v-238h-514zM220 780v144h141v-144h-141z" />
    <glyph glyph-name="zdotaccent" unicode="&#x17c;" horiz-adv-x="493" 
d="M32 0v117l272 308h-149v-65h-115v176h421v-122l-271 -307h164v80h116v-187h-438zM177 576v144h141v-144h-141z" />
    <glyph glyph-name="Zcaron" unicode="&#x17d;" horiz-adv-x="581" 
d="M34 0v115l338 518h-200v-108h-127v225h493v-119l-338 -518h221v125h127v-238h-514zM218 780l-121 167h115l78 -76l78 76h114l-121 -167h-143z" />
    <glyph glyph-name="zcaron" unicode="&#x17e;" horiz-adv-x="493" 
d="M32 0v117l272 308h-149v-65h-115v176h421v-122l-271 -307h164v80h116v-187h-438zM175 576l-121 167h115l78 -76l78 76h114l-121 -167h-143z" />
    <glyph glyph-name="florin" unicode="&#x192;" horiz-adv-x="414" 
d="M121 -198v533h-86v118h86v122q0 89 38.5 132t137.5 43h81v-127h-63q-30 0 -40.5 -13.5t-10.5 -44.5v-112h114v-118h-114v-533h-143z" />
    <glyph glyph-name="Scommaaccent" unicode="&#x218;" horiz-adv-x="606" 
d="M311 -8q-108 0 -157 58v-50h-112v238h125q7 -71 38.5 -97t96.5 -26q68 0 97.5 24t29.5 76q0 46 -30.5 67t-104.5 42q-38 10 -55 15t-49 16.5t-47.5 21.5t-37.5 27t-32 36t-18 46t-8 60q0 99 60 155.5t184 56.5q102 0 146 -53v45h110v-225h-124q-5 59 -34 82.5t-88 23.5
q-56 0 -84.5 -19t-28.5 -62q0 -19 8 -33.5t17.5 -23.5t32.5 -18t37.5 -13l48.5 -13q48 -13 75 -21.5t63 -27t54.5 -40.5t32 -58t13.5 -84q0 -111 -60.5 -168.5t-198.5 -57.5zM252 -277l41 103h-59v139h136v-139l-40 -103h-78z" />
    <glyph glyph-name="scommaaccent" unicode="&#x219;" horiz-adv-x="510" 
d="M274 -7q-102 0 -139 43v-36h-99v187h112q6 -50 30 -70.5t78 -20.5q50 0 69 12t19 41q0 26 -18 37t-64 20q-100 17 -135 34q-85 38 -84 132q0 88 49.5 129.5t160.5 41.5q75 0 115 -36v29h99v-176h-112q-2 42 -22 58t-66 16q-44 0 -64.5 -10t-20.5 -36q0 -21 14 -33
t31 -16.5t59 -11.5q34 -6 55.5 -11t51.5 -17t47.5 -27.5t30.5 -43t13 -62.5q0 -82 -47 -127.5t-163 -45.5zM204 -277l41 103h-59v139h136v-139l-40 -103h-78z" />
    <glyph glyph-name="schwa" unicode="&#x259;" horiz-adv-x="508" 
d="M252 -8q-120 0 -170 57t-50 165v97h304v42q0 39 -18 59.5t-66 20.5q-47 0 -62.5 -15.5t-20.5 -54.5l-137 21q20 160 220 160q117 0 170.5 -56.5t53.5 -148.5v-143q0 -93 -53 -148.5t-171 -55.5zM252 101q84 0 84 80v29h-165v-29q0 -41 18.5 -60.5t62.5 -19.5z" />
    <glyph glyph-name="circumflex" unicode="&#x2c6;" horiz-adv-x="500" 
d="M57 576l121 167h143l121 -167h-113l-79 75l-77 -75h-116z" />
    <glyph glyph-name="caron" unicode="&#x2c7;" horiz-adv-x="500" 
d="M178 576l-121 167h115l78 -76l78 76h114l-121 -167h-143z" />
    <glyph glyph-name="breve" unicode="&#x2d8;" horiz-adv-x="500" 
d="M250 574q-97 0 -138.5 40t-41.5 114h115q0 -70 65 -70t65 70h115q0 -74 -41.5 -114t-138.5 -40z" />
    <glyph glyph-name="dotaccent" unicode="&#x2d9;" horiz-adv-x="500" 
d="M180 576v144h141v-144h-141z" />
    <glyph glyph-name="ring" unicode="&#x2da;" horiz-adv-x="500" 
d="M250 574q-121 0 -121 118q0 121 121 121q59 0 90 -28t31 -93q0 -63 -31 -90.5t-90 -27.5zM250 639q25 0 36.5 12.5t11.5 40.5q0 55 -48 55t-48 -55q0 -53 48 -53z" />
    <glyph glyph-name="ogonek" unicode="&#x2db;" horiz-adv-x="500" 
d="M279 -198q-130 0 -130 103q0 93 94 159h88q-52 -48 -71 -77t-19 -59q0 -26 11 -35t41 -9h46v-82h-60z" />
    <glyph glyph-name="tilde" unicode="&#x2dc;" horiz-adv-x="500" 
d="M71 576q0 70 22.5 104.5t82.5 34.5q31 0 76 -18t53 -18q26 0 26 36h100q0 -69 -23 -104t-84 -35q-30 0 -74.5 18t-52.5 18q-26 0 -26 -36h-100z" />
    <glyph glyph-name="hungarumlaut" unicode="&#x2dd;" horiz-adv-x="500" 
d="M98 576l93 179h127l-108 -179h-112zM279 576l92 179h128l-108 -179h-112z" />
    <glyph glyph-name="commaaccent" unicode="&#x326;" horiz-adv-x="500" 
d="M200 -277l41 103h-59v139h136v-139l-40 -103h-78z" />
    <glyph glyph-name="Delta" unicode="&#x394;" horiz-adv-x="615" 
d="M17 0l209 750h163l209 -750h-581zM188 117h234l-116 444h-2z" />
    <glyph glyph-name="Omega" unicode="&#x3a9;" horiz-adv-x="636" 
d="M44 0v127h93v83q-93 51 -93 189v103q0 128 72.5 192t201.5 64t201.5 -64t72.5 -192v-103q0 -138 -93 -189v-83h93v-127h-221v271q46 15 61 42.5t15 96.5v77q0 72 -31 106.5t-98 34.5q-68 0 -98 -34t-30 -107v-77q0 -69 14.5 -96.5t60.5 -42.5v-271h-221z" />
    <glyph glyph-name="Omega" unicode="&#x2126;" horiz-adv-x="636" 
d="M44 0v127h93v83q-93 51 -93 189v103q0 128 72.5 192t201.5 64t201.5 -64t72.5 -192v-103q0 -138 -93 -189v-83h93v-127h-221v271q46 15 61 42.5t15 96.5v77q0 72 -31 106.5t-98 34.5q-68 0 -98 -34t-30 -107v-77q0 -69 14.5 -96.5t60.5 -42.5v-271h-221z" />
    <glyph glyph-name="pi" unicode="&#x3c0;" horiz-adv-x="646" 
d="M95 0v418h-76v118h608v-118h-76v-418h-144v418h-168v-418h-144z" />
    <glyph glyph-name="Wgrave" unicode="&#x1e80;" horiz-adv-x="945" 
d="M201 0l-141 622h-45v128h264v-128h-75l89 -407h2l106 535h154l105 -535h2l90 407h-76v128h254v-128h-46l-140 -622h-166l-104 500h-2l-106 -500h-165zM410 780l-108 177h139l92 -177h-123z" />
    <glyph glyph-name="wgrave" unicode="&#x1e81;" horiz-adv-x="782" 
d="M151 0l-100 414h-36v122h226v-122h-49l55 -250h1l70 372h159l69 -370h2l55 248h-51v122h215v-122h-36l-94 -414h-167l-73 344h-1l-71 -344h-174zM329 576l-108 177h139l92 -177h-123z" />
    <glyph glyph-name="Wacute" unicode="&#x1e82;" horiz-adv-x="945" 
d="M201 0l-141 622h-45v128h264v-128h-75l89 -407h2l106 535h154l105 -535h2l90 407h-76v128h254v-128h-46l-140 -622h-166l-104 500h-2l-106 -500h-165zM409 780l93 179h138l-107 -179h-124z" />
    <glyph glyph-name="wacute" unicode="&#x1e83;" horiz-adv-x="782" 
d="M151 0l-100 414h-36v122h226v-122h-49l55 -250h1l70 372h159l69 -370h2l55 248h-51v122h215v-122h-36l-94 -414h-167l-73 344h-1l-71 -344h-174zM328 576l93 179h138l-107 -179h-124z" />
    <glyph glyph-name="Wdieresis" unicode="&#x1e84;" horiz-adv-x="945" 
d="M201 0l-141 622h-45v128h264v-128h-75l89 -407h2l106 535h154l105 -535h2l90 407h-76v128h254v-128h-46l-140 -622h-166l-104 500h-2l-106 -500h-165zM315 780v129h125v-129h-125zM512 780v129h125v-129h-125z" />
    <glyph glyph-name="wdieresis" unicode="&#x1e85;" horiz-adv-x="782" 
d="M151 0l-100 414h-36v122h226v-122h-49l55 -250h1l70 372h159l69 -370h2l55 248h-51v122h215v-122h-36l-94 -414h-167l-73 344h-1l-71 -344h-174zM236 576v129h125v-129h-125zM433 576v129h125v-129h-125z" />
    <glyph glyph-name="Ygrave" unicode="&#x1ef2;" horiz-adv-x="646" 
d="M180 0v124h65v177l-194 321h-41v128h266v-128h-74l122 -210h2l123 210h-64v128h241v-128h-43l-192 -321v-177h63v-124h-274zM261 780l-108 177h139l92 -177h-123z" />
    <glyph glyph-name="ygrave" unicode="&#x1ef3;" horiz-adv-x="547" 
d="M106 -198v113h63l38 102l-159 397h-33v122h229v-122h-52l87 -230l87 230h-48v122h214v-122h-35l-192 -499h53v-113h-252zM211 576l-108 177h139l92 -177h-123z" />
    <glyph glyph-name="space.en" unicode="&#x2002;" horiz-adv-x="500" 
 />
    <glyph glyph-name="space.em" unicode="&#x2003;" horiz-adv-x="1000" 
 />
    <glyph glyph-name="space.tab_en" unicode="&#x2007;" 
 />
    <glyph glyph-name="space.thin" unicode="&#x2009;" horiz-adv-x="125" 
 />
    <glyph glyph-name="endash.tab" unicode="&#x2012;" 
d="M61 319v124h498v-124h-498z" />
    <glyph glyph-name="endash" unicode="&#x2013;" horiz-adv-x="560" 
d="M31 259v124h498v-124h-498z" />
    <glyph glyph-name="emdash" unicode="&#x2014;" horiz-adv-x="792" 
d="M31 259v124h730v-124h-730z" />
    <glyph glyph-name="emdash.salt_em" unicode="&#x2015;" horiz-adv-x="1000" 
d="M0 259v124h1000v-124h-1000z" />
    <glyph glyph-name="quoteleft" unicode="&#x2018;" horiz-adv-x="242" 
d="M39 439v169l49 142h95l-50 -142h71v-169h-165z" />
    <glyph glyph-name="quoteright" unicode="&#x2019;" horiz-adv-x="242" 
d="M61 439l49 142h-71v169h165v-169l-49 -142h-94z" />
    <glyph glyph-name="quotesinglbase" unicode="&#x201a;" horiz-adv-x="242" 
d="M61 -142l49 142h-71v169h165v-169l-49 -142h-94z" />
    <glyph glyph-name="quotedblleft" unicode="&#x201c;" horiz-adv-x="433" 
d="M39 439v169l49 142h91l-49 -142h70v-169h-161zM232 439v169l50 142h90l-49 -142h71v-169h-162z" />
    <glyph glyph-name="quotedblright" unicode="&#x201d;" horiz-adv-x="433" 
d="M61 439l49 142h-71v169h161v-169l-48 -142h-91zM254 439l49 142h-71v169h162v-169l-49 -142h-91z" />
    <glyph glyph-name="quotedblbase" unicode="&#x201e;" horiz-adv-x="433" 
d="M61 -142l49 142h-71v169h161v-169l-48 -142h-91zM254 -142l49 142h-71v169h162v-169l-49 -142h-91z" />
    <glyph glyph-name="dagger" unicode="&#x2020;" horiz-adv-x="489" 
d="M172 -198v596h-147v125h147v227h146v-227h146v-125h-146v-596h-146z" />
    <glyph glyph-name="daggerdbl" unicode="&#x2021;" horiz-adv-x="489" 
d="M172 -198v227h-147v125h147v244h-147v125h147v227h146v-227h146v-125h-146v-244h146v-125h-146v-227h-146z" />
    <glyph glyph-name="bullet" unicode="&#x2022;" horiz-adv-x="426" 
d="M213 82q-85 0 -116.5 42.5t-31.5 129.5v120q0 88 31.5 130t116.5 42t116.5 -42t31.5 -130v-120q0 -87 -31.5 -129.5t-116.5 -42.5z" />
    <glyph glyph-name="ellipsis" unicode="&#x2026;" horiz-adv-x="849" 
d="M59 0v169h165v-169h-165zM342 0v169h165v-169h-165zM625 0v169h165v-169h-165z" />
    <glyph glyph-name="perthousand" unicode="&#x2030;" horiz-adv-x="1308" 
d="M202 298q-78 0 -121.5 38t-43.5 115v153q0 77 43.5 115.5t121.5 38.5q76 0 119.5 -38.5t43.5 -115.5v-153q0 -77 -43.5 -115t-119.5 -38zM202 395q28 0 39 15t11 48v138q0 33 -11 47.5t-39 14.5t-40 -15t-12 -47v-138q0 -33 11.5 -48t40.5 -15zM743 -8q-78 0 -121.5 38.5
t-43.5 115.5v153q0 77 44 115t121 38t120 -38t43 -115v-153q0 -77 -43 -115.5t-120 -38.5zM743 90q28 0 39 14.5t11 47.5v138q0 33 -11 47.5t-39 14.5t-40 -14.5t-12 -47.5v-138q0 -33 11.5 -47.5t40.5 -14.5zM1107 -8q-77 0 -120.5 38.5t-43.5 115.5v153q0 77 44 115
t120 38q78 0 121 -38t43 -115v-153q0 -77 -43.5 -115.5t-120.5 -38.5zM1107 90q28 0 39.5 14.5t11.5 47.5v138q0 33 -11.5 47.5t-39.5 14.5q-27 0 -39 -14.5t-12 -47.5v-138q0 -33 12 -47.5t39 -14.5zM225 0l360 750h133l-360 -750h-133z" />
    <glyph glyph-name="prime" unicode="&#x2032;" horiz-adv-x="310" 
d="M74 478l73 272h136l-87 -272h-122z" />
    <glyph glyph-name="primedbl" unicode="&#x2033;" horiz-adv-x="520" 
d="M74 478l73 272h129l-87 -272h-115zM292 478l72 272h129l-88 -272h-113z" />
    <glyph glyph-name="guilsinglleft" unicode="&#x2039;" horiz-adv-x="338" 
d="M173 0l-136 268l136 268h148l-137 -268l137 -268h-148z" />
    <glyph glyph-name="guilsinglright" unicode="&#x203a;" horiz-adv-x="338" 
d="M18 0l137 268l-137 268h147l137 -268l-137 -268h-147z" />
    <glyph glyph-name="fraction" unicode="&#x2044;" horiz-adv-x="555" 
d="M0 0l424 750h131l-424 -750h-131z" />
    <glyph glyph-name="zero.sups" unicode="&#x2070;" horiz-adv-x="508" 
d="M255 244q-91 0 -144 45t-53 134v178q0 89 53 134t144 45q90 0 142.5 -45t52.5 -134v-178q0 -89 -52.5 -134t-142.5 -45zM255 350q40 0 57.5 19t17.5 60v163q0 43 -17.5 61.5t-57.5 18.5q-41 0 -58.5 -18.5t-17.5 -61.5v-163q0 -41 18 -60t58 -19z" />
    <glyph glyph-name="four.sups" unicode="&#x2074;" horiz-adv-x="505" 
d="M231 250v99h62v56h-242v85l202 285h123l-205 -285h122v98h105v-98h60v-85h-60v-56h60v-99h-227z" />
    <glyph glyph-name="five.sups" unicode="&#x2075;" horiz-adv-x="484" 
d="M312 641v46h-134l-4 -99q36 16 86 16q82 0 125 -34.5t43 -125.5v-36q0 -85 -45 -124.5t-140 -39.5q-99 0 -140.5 38.5t-49.5 125.5l114 10q3 -40 19 -57.5t57 -17.5q70 0 70 70v28q0 38 -17 54t-57 16q-56 0 -90 -18l-86 30l8 252h340v-134h-99z" />
    <glyph glyph-name="six.sups" unicode="&#x2076;" horiz-adv-x="491" 
d="M248 244q-86 0 -137.5 40.5t-51.5 120.5v196q0 89 49.5 134t137.5 45q176 0 188 -145l-115 -9q-3 30 -18.5 41.5t-54.5 11.5t-56 -17.5t-17 -56.5v-47q29 36 95 36q170 0 170 -152v-34q0 -84 -51 -124t-139 -40zM248 344q39 0 57 15.5t18 48.5v27q0 34 -17.5 49t-57.5 15
q-39 0 -57 -15t-18 -49v-27q0 -33 18 -48.5t57 -15.5z" />
    <glyph glyph-name="seven.sups" unicode="&#x2077;" horiz-adv-x="437" 
d="M44 641v134h353v-87l-171 -438h-121l173 438h-136v-47h-98z" />
    <glyph glyph-name="eight.sups" unicode="&#x2078;" horiz-adv-x="494" 
d="M247 244q-97 0 -145 40t-48 99v25q0 95 78 124q-74 28 -74 103v20q0 55 50 90t139 35q90 0 139 -33.5t49 -91.5v-20q0 -75 -74 -103q45 -16 62 -46.5t17 -77.5v-25q0 -59 -48 -99t-145 -40zM247 338q78 0 78 61v20q0 63 -78 63q-77 0 -77 -63v-20q0 -61 77 -61zM247 569
q72 0 72 51v14q0 51 -72 51t-72 -51v-14q0 -51 72 -51z" />
    <glyph glyph-name="nine.sups" unicode="&#x2079;" horiz-adv-x="491" 
d="M244 244q-175 0 -187 145l114 10q3 -31 18.5 -42.5t54.5 -11.5t56.5 18t17.5 56v47q-27 -36 -95 -36q-170 0 -170 152v34q0 84 50.5 124t138.5 40q87 0 138.5 -40.5t51.5 -120.5v-196q0 -90 -49.5 -134.5t-138.5 -44.5zM242 524q40 0 58 15t18 48v27q0 64 -76 64
q-74 0 -74 -64v-27q0 -34 17.5 -48.5t56.5 -14.5z" />
    <glyph glyph-name="zero.sinf" unicode="&#x2080;" horiz-adv-x="508" 
d="M255 -203q-91 0 -144 45t-53 134v178q0 89 53 134t144 45q90 0 142.5 -45t52.5 -134v-178q0 -89 -52.5 -134t-142.5 -45zM255 -97q40 0 57.5 19t17.5 60v163q0 43 -17.5 61.5t-57.5 18.5q-41 0 -58.5 -18.5t-17.5 -61.5v-163q0 -41 18 -60t58 -19z" />
    <glyph glyph-name="one.sinf" unicode="&#x2081;" horiz-adv-x="329" 
d="M41 -197v99h75v318h-74v108h195v-426h68v-99h-264z" />
    <glyph glyph-name="two.sinf" unicode="&#x2082;" horiz-adv-x="470" 
d="M54 -197v82q0 54 25.5 94.5t61.5 63.5t72 42t61.5 42t25.5 51q0 29 -16 41t-48 12q-35 0 -51 -18t-18 -54l-116 10q5 73 49.5 118.5t133.5 45.5q103 0 143.5 -43.5t40.5 -115.5q0 -37 -18 -68.5t-45.5 -51t-59 -39t-59 -33.5t-45.5 -32.5t-18 -37.5v-13h145v64h102v-160
h-366z" />
    <glyph glyph-name="three.sinf" unicode="&#x2083;" horiz-adv-x="489" 
d="M244 -203q-104 0 -146 42t-49 123l113 11q5 -45 23 -62t61 -17q39 0 55.5 16.5t16.5 51.5q0 37 -15.5 52t-51.5 15h-92v92h91q38 0 50 14.5t12 44.5q0 25 -14.5 39t-53.5 14q-41 0 -56.5 -14.5t-18.5 -54.5l-114 9q7 78 48.5 119t140.5 41q183 0 183 -132
q0 -48 -16.5 -75.5t-56.5 -41.5q46 -13 63 -43t17 -87q0 -157 -190 -157z" />
    <glyph glyph-name="four.sinf" unicode="&#x2084;" horiz-adv-x="505" 
d="M231 -197v99h62v56h-242v85l202 285h123l-205 -285h122v98h105v-98h60v-85h-60v-56h60v-99h-227z" />
    <glyph glyph-name="five.sinf" unicode="&#x2085;" horiz-adv-x="484" 
d="M312 194v46h-134l-4 -99q36 16 86 16q82 0 125 -34.5t43 -125.5v-36q0 -85 -45 -124.5t-140 -39.5q-99 0 -140.5 38.5t-49.5 125.5l114 10q3 -40 19 -57.5t57 -17.5q70 0 70 70v28q0 38 -17 54t-57 16q-56 0 -90 -18l-86 30l8 252h340v-134h-99z" />
    <glyph glyph-name="six.sinf" unicode="&#x2086;" horiz-adv-x="491" 
d="M248 -203q-86 0 -137.5 40.5t-51.5 120.5v196q0 89 49.5 134t137.5 45q176 0 188 -145l-115 -9q-3 30 -18.5 41.5t-54.5 11.5t-56 -17.5t-17 -56.5v-47q29 36 95 36q170 0 170 -152v-34q0 -84 -51 -124t-139 -40zM248 -103q39 0 57 15.5t18 48.5v27q0 34 -17.5 49
t-57.5 15q-39 0 -57 -15t-18 -49v-27q0 -33 18 -48.5t57 -15.5z" />
    <glyph glyph-name="seven.sinf" unicode="&#x2087;" horiz-adv-x="437" 
d="M44 194v134h353v-87l-171 -438h-121l173 438h-136v-47h-98z" />
    <glyph glyph-name="eight.sinf" unicode="&#x2088;" horiz-adv-x="494" 
d="M247 -203q-97 0 -145 40t-48 99v25q0 95 78 124q-74 28 -74 103v20q0 55 50 90t139 35q90 0 139 -33.5t49 -91.5v-20q0 -75 -74 -103q45 -16 62 -46.5t17 -77.5v-25q0 -59 -48 -99t-145 -40zM247 -109q78 0 78 61v20q0 63 -78 63q-77 0 -77 -63v-20q0 -61 77 -61z
M247 122q72 0 72 51v14q0 51 -72 51t-72 -51v-14q0 -51 72 -51z" />
    <glyph glyph-name="nine.sinf" unicode="&#x2089;" horiz-adv-x="491" 
d="M244 -203q-175 0 -187 145l114 10q3 -31 18.5 -42.5t54.5 -11.5t56.5 18t17.5 56v47q-27 -36 -95 -36q-170 0 -170 152v34q0 84 50.5 124t138.5 40q87 0 138.5 -40.5t51.5 -120.5v-196q0 -90 -49.5 -134.5t-138.5 -44.5zM242 77q40 0 58 15t18 48v27q0 64 -76 64
q-74 0 -74 -64v-27q0 -34 17.5 -48.5t56.5 -14.5z" />
    <glyph glyph-name="Euro" unicode="&#x20ac;" horiz-adv-x="657" 
d="M31 402v108h78q2 123 67 185.5t173 62.5q103 0 146 -55v47h114v-236h-126q-6 68 -31 92t-88 24q-60 0 -85.5 -30t-28.5 -90h158v-108h-158v-53h158v-108h-158q2 -64 25.5 -95.5t89.5 -31.5q62 0 84.5 29t28.5 101l138 -18q-14 -125 -72 -179.5t-179 -54.5
q-120 0 -187.5 62.5t-68.5 186.5h-78v108h78v53h-78z" />
    <glyph glyph-name="copyrightsound" unicode="&#x2117;" horiz-adv-x="734" 
d="M368 -8q-155 0 -236 71.5t-81 203.5v216q0 133 81.5 204t235.5 71t234.5 -71t80.5 -204v-216q0 -132 -80.5 -203.5t-234.5 -71.5zM368 49q253 0 253 219v214q0 219 -253 219q-126 0 -190 -56t-64 -163v-214q0 -219 254 -219zM202 134v80h39v315h-39v83h199
q83 0 119.5 -31.5t36.5 -100.5v-39q0 -69 -37 -101.5t-118 -32.5h-65v-93h40v-80h-175zM337 383h65q37 0 50 12.5t13 47.5v30q0 34 -13 46.5t-48 12.5h-67v-149z" />
    <glyph glyph-name="trademark" unicode="&#x2122;" horiz-adv-x="941" 
d="M403 314v80h37v274h-37v82h180l67 -283l63 283h181v-82h-35v-274h35v-80h-160v80h28v238l-73 -318h-88l-77 318v-238h30v-80h-151zM120 313v80h38v286h-44v-58h-81v129h347v-129h-80v58h-44v-286h38v-80h-174z" />
    <glyph glyph-name="estimated" unicode="&#x212e;" horiz-adv-x="697" 
d="M348 -12q-138 0 -224 96t-86 235q0 141 85.5 236t227.5 95t226.5 -95t86.5 -237h-490v-220q73 -71 174 -71q83 0 137.5 37.5t99.5 107.5l37 -23q-52 -79 -114.5 -120t-159.5 -41zM174 358h351v182q-74 71 -175 71q-107 0 -176 -71v-182z" />
    <glyph glyph-name="partialdiff" unicode="&#x2202;" horiz-adv-x="518" 
d="M211 -8q-125 0 -175.5 62t-33.5 157l28 155q16 91 62.5 134.5t136.5 43.5q110 0 130 -65l12 62q11 66 -8.5 89t-92.5 23h-45l23 127h38q134 0 193.5 -57t37.5 -180l-62 -358q-17 -94 -75 -143.5t-169 -49.5zM214 108q84 0 98 75l27 158q7 39 -9.5 61.5t-58.5 22.5
q-86 0 -99 -76l-26 -154q-7 -40 9.5 -63.5t58.5 -23.5z" />
    <glyph glyph-name="product" unicode="&#x220f;" horiz-adv-x="658" 
d="M66 -198v948h525v-948h-147v810h-231v-810h-147z" />
    <glyph glyph-name="summation" unicode="&#x2211;" horiz-adv-x="537" 
d="M21 -198v127l241 371l-241 319v131h480v-216h-130v92h-196l198 -261v-133l-203 -311h205v110h129v-229h-483z" />
    <glyph glyph-name="minus" unicode="&#x2212;" horiz-adv-x="554" 
d="M63 319v116h429v-116h-429z" />
    <glyph glyph-name="radical" unicode="&#x221a;" horiz-adv-x="541" 
d="M182 0l-171 536h144l106 -359h1l168 573h141l-232 -750h-157z" />
    <glyph glyph-name="infinity" unicode="&#x221e;" horiz-adv-x="756" 
d="M529 142q-63 0 -97.5 13.5t-54.5 47.5q-20 -33 -54.5 -47t-91.5 -14q-93 0 -138.5 47t-45.5 125v120q0 79 46 125.5t138 46.5q58 0 92 -13t55 -45q20 32 54.5 45t95.5 13q89 0 135 -46.5t46 -125.5v-120q0 -77 -46 -124.5t-134 -47.5zM511 241q73 0 73 67v130
q0 67 -73 67t-73 -67v-130q0 -67 73 -67zM244 241q75 0 75 67v130q0 67 -75 67q-72 0 -72 -67v-130q0 -67 72 -67z" />
    <glyph glyph-name="integral" unicode="&#x222b;" horiz-adv-x="414" 
d="M7 -198v127h64q30 0 40 13.5t10 44.5v588q0 89 38.5 132t137.5 43h81v-127h-63q-30 0 -40.5 -13.5t-10.5 -44.5v-588q0 -89 -38.5 -132t-137.5 -43h-81z" />
    <glyph glyph-name="approxequal" unicode="&#x2248;" horiz-adv-x="554" 
d="M154 406h-105q0 81 26.5 118.5t92.5 37.5q31 0 107 -25t90 -25q35 0 35 50h104q0 -78 -25.5 -117t-92.5 -39q-32 0 -108.5 25t-87.5 25q-36 0 -36 -50zM154 197h-105q0 80 27 117.5t92 37.5q31 0 107 -24.5t90 -24.5q35 0 35 49h104q0 -79 -25.5 -117t-92.5 -38
q-32 0 -108.5 24.5t-87.5 24.5q-36 0 -36 -49z" />
    <glyph glyph-name="notequal" unicode="&#x2260;" horiz-adv-x="554" 
d="M68 105l60 108h-65v119h133l51 90h-184v119h243l62 108h118l-61 -108h67v-119h-134l-51 -90h185v-119h-245l-61 -108h-118z" />
    <glyph glyph-name="lessequal" unicode="&#x2264;" horiz-adv-x="554" 
d="M491 217l-429 158v125l429 161v-119l-303 -105l303 -103v-117zM62 77v117h429v-117h-429z" />
    <glyph glyph-name="greaterequal" unicode="&#x2265;" horiz-adv-x="554" 
d="M64 217v117l303 103l-303 105v119l430 -161v-125zM64 77v117h430v-117h-430z" />
    <glyph glyph-name="lozenge" unicode="&#x25ca;" horiz-adv-x="554" 
d="M197 0l-179 375l179 375h161l178 -375l-178 -375h-161zM280 123l122 252l-125 256l-125 -256z" />
    <glyph glyph-name="u2022.check" unicode="&#x2713;" horiz-adv-x="541" 
d="M182 0l-171 536h144l106 -359h1l168 573h141l-232 -750h-157z" />
    <glyph glyph-name="apple" unicode="&#xf8ff;" horiz-adv-x="544" 
d="M485 0h-234q-128 0 -178 48.5t-50 159.5v60q0 82 28.5 128.5t93.5 64.5l-122 289h153l118 -277h47v277h144v-750zM248 130h93v216h-92q-50 0 -67 -19.5t-17 -70.5v-36q0 -52 17 -71t66 -19z" />
    <glyph glyph-name="zero.salt_slash" horiz-adv-x="617" 
d="M309 -8q-128 0 -198 64t-70 192v254q0 129 70.5 192.5t197.5 63.5t197 -63.5t70 -192.5v-254q0 -128 -70 -192t-197 -64zM309 114q68 0 96 34.5t28 107.5v234q0 4 -0.5 12.5t-0.5 12.5l-172 -396q23 -5 49 -5zM185 256v-23l170 395q-22 5 -46 5q-69 0 -96.5 -34.5
t-27.5 -108.5v-234z" />
    <glyph glyph-name="endash.salt_en" horiz-adv-x="500" 
d="M0 259v124h500v-124h-500z" />
    <glyph glyph-name="parenleft.uc" horiz-adv-x="381" 
d="M287 -70q-126 0 -179.5 61t-53.5 192v385q0 131 54 191.5t179 60.5h72v-123h-72q-53 0 -73 -29.5t-20 -106.5v-371q0 -76 20 -106.5t73 -30.5h72v-123h-72z" />
    <glyph glyph-name="parenright.uc" horiz-adv-x="381" 
d="M23 -70v123h71q53 0 72.5 30t19.5 107v370q0 77 -19.5 106.5t-72.5 29.5h-71v123h71q126 0 180 -60t54 -191v-385q0 -131 -54 -192t-180 -61h-71z" />
    <glyph glyph-name="bracketleft.uc" horiz-adv-x="381" 
d="M54 -70v890h302v-124h-161v-643h161v-123h-302z" />
    <glyph glyph-name="bracketright.uc" horiz-adv-x="381" 
d="M25 -70v123h162v643h-162v124h302v-890h-302z" />
    <glyph glyph-name="braceleft.uc" horiz-adv-x="444" 
d="M350 -70q-126 0 -179.5 61t-53.5 192v135h-86v120h86v130q0 131 53.5 191.5t179.5 60.5h71v-123h-71q-54 0 -74 -31t-20 -110v-361q0 -79 20.5 -110t73.5 -31h71v-124h-71z" />
    <glyph glyph-name="braceright.uc" horiz-adv-x="445" 
d="M24 -70v123h71q53 0 72.5 31t19.5 111v361q0 80 -19.5 110.5t-72.5 30.5h-71v123h71q125 0 179 -60.5t54 -191.5v-130h86v-120h-86v-135q0 -131 -53.5 -192t-179.5 -61h-71z" />
    <glyph glyph-name="hyphen.uc" horiz-adv-x="438" 
d="M31 319v124h375v-124h-375z" />
    <glyph glyph-name="endash.uc" horiz-adv-x="560" 
d="M31 319v124h498v-124h-498z" />
    <glyph glyph-name="endash.uc_salt_en" horiz-adv-x="500" 
d="M0 319v124h500v-124h-500z" />
    <glyph glyph-name="emdash.uc" horiz-adv-x="792" 
d="M31 319v124h730v-124h-730z" />
    <glyph glyph-name="emdash.uc_salt_em" horiz-adv-x="1000" 
d="M0 319v124h1000v-124h-1000z" />
    <glyph glyph-name="guillemotleft.uc" horiz-adv-x="587" 
d="M173 82l-136 268l136 268h148l-137 -268l137 -268h-148zM423 82l-137 268l137 268h146l-136 -268l136 -268h-146z" />
    <glyph glyph-name="guillemotright.uc" horiz-adv-x="587" 
d="M267 82l136 268l-136 268h147l137 -268l-137 -268h-147zM18 82l136 268l-136 268h146l137 -268l-137 -268h-146z" />
    <glyph glyph-name="guilsinglleft.uc" horiz-adv-x="338" 
d="M173 82l-136 268l136 268h148l-137 -268l137 -268h-148z" />
    <glyph glyph-name="guilsinglright.uc" horiz-adv-x="338" 
d="M18 82l137 268l-137 268h147l137 -268l-137 -268h-147z" />
    <glyph glyph-name="a.salt_simple" horiz-adv-x="566" 
d="M219 -8q-101 0 -144 51t-43 146v158q0 96 43 146.5t149 50.5q77 0 124 -63v55h144v-419h59v-117h-203v54q-43 -62 -129 -62zM261 108q84 0 87 75v164q0 36 -23 57t-64 21q-85 0 -85 -82v-154q0 -81 85 -81z" />
    <glyph glyph-name="agrave.salt_simple" horiz-adv-x="566" 
d="M219 -8q-101 0 -144 51t-43 146v158q0 96 43 146.5t149 50.5q77 0 124 -63v55h144v-419h59v-117h-203v54q-43 -62 -129 -62zM261 108q84 0 87 75v164q0 36 -23 57t-64 21q-85 0 -85 -82v-154q0 -81 85 -81zM226 576l-108 177h139l92 -177h-123z" />
    <glyph glyph-name="aacute.salt_simple" horiz-adv-x="566" 
d="M219 -8q-101 0 -144 51t-43 146v158q0 96 43 146.5t149 50.5q77 0 124 -63v55h144v-419h59v-117h-203v54q-43 -62 -129 -62zM261 108q84 0 87 75v164q0 36 -23 57t-64 21q-85 0 -85 -82v-154q0 -81 85 -81zM209 576l93 179h138l-107 -179h-124z" />
    <glyph glyph-name="acircumflex.salt_simple" horiz-adv-x="566" 
d="M219 -8q-101 0 -144 51t-43 146v158q0 96 43 146.5t149 50.5q77 0 124 -63v55h144v-419h59v-117h-203v54q-43 -62 -129 -62zM261 108q84 0 87 75v164q0 36 -23 57t-64 21q-85 0 -85 -82v-154q0 -81 85 -81zM88 576l121 167h143l121 -167h-113l-79 75l-77 -75h-116z" />
    <glyph glyph-name="atilde.salt_simple" horiz-adv-x="566" 
d="M219 -8q-101 0 -144 51t-43 146v158q0 96 43 146.5t149 50.5q77 0 124 -63v55h144v-419h59v-117h-203v54q-43 -62 -129 -62zM261 108q84 0 87 75v164q0 36 -23 57t-64 21q-85 0 -85 -82v-154q0 -81 85 -81zM202 576h-100q0 70 22.5 104.5t82.5 34.5q31 0 76 -18t53 -18
q26 0 26 36h100q0 -69 -23 -104t-84 -35q-30 0 -74.5 18t-52.5 18q-26 0 -26 -36z" />
    <glyph glyph-name="adieresis.salt_simple" horiz-adv-x="566" 
d="M219 -8q-101 0 -144 51t-43 146v158q0 96 43 146.5t149 50.5q77 0 124 -63v55h144v-419h59v-117h-203v54q-43 -62 -129 -62zM261 108q84 0 87 75v164q0 36 -23 57t-64 21q-85 0 -85 -82v-154q0 -81 85 -81zM120 576v129h125v-129h-125zM317 576v129h125v-129h-125z" />
    <glyph glyph-name="aring.salt_simple" horiz-adv-x="566" 
d="M219 -8q-101 0 -144 51t-43 146v158q0 96 43 146.5t149 50.5q77 0 124 -63v55h144v-419h59v-117h-203v54q-43 -62 -129 -62zM261 108q84 0 87 75v164q0 36 -23 57t-64 21q-85 0 -85 -82v-154q0 -81 85 -81zM271 574q-121 0 -121 118q0 121 121 121q59 0 90 -28t31 -93
q0 -63 -31 -90.5t-90 -27.5zM271 639q25 0 36.5 12.5t11.5 40.5q0 55 -48 55t-48 -55q0 -53 48 -53z" />
    <glyph glyph-name="amacron.salt_simple" horiz-adv-x="566" 
d="M219 -8q-101 0 -144 51t-43 146v158q0 96 43 146.5t149 50.5q77 0 124 -63v55h144v-419h59v-117h-203v54q-43 -62 -129 -62zM261 108q84 0 87 75v164q0 36 -23 57t-64 21q-85 0 -85 -82v-154q0 -81 85 -81zM132 576v100h298v-100h-298z" />
    <glyph glyph-name="abreve.salt_simple" horiz-adv-x="566" 
d="M219 -8q-101 0 -144 51t-43 146v158q0 96 43 146.5t149 50.5q77 0 124 -63v55h144v-419h59v-117h-203v54q-43 -62 -129 -62zM261 108q84 0 87 75v164q0 36 -23 57t-64 21q-85 0 -85 -82v-154q0 -81 85 -81zM281 574q-97 0 -138.5 40t-41.5 114h115q0 -70 65 -70t65 70
h115q0 -74 -41.5 -114t-138.5 -40z" />
    <glyph glyph-name="aogonek.salt_simple" horiz-adv-x="566" 
d="M219 -8q-101 0 -144 51t-43 146v158q0 96 43 146.5t149 50.5q77 0 124 -63v55h144v-419h59v-117h-125q18 23 62 64h-88q-35 -25 -52 -46v36q-43 -62 -129 -62zM261 108q84 0 87 75v164q0 36 -23 57t-64 21q-85 0 -85 -82v-154q0 -81 85 -81zM496 -198h-60
q-130 0 -130 103q0 65 42 113v-18h78q-28 -36 -28 -72q0 -26 11 -35t41 -9h46v-82z" />
    <glyph glyph-name="g.salt_simple" horiz-adv-x="570" 
d="M267 -201q-112 0 -163 32t-61 114l141 26q5 -38 21 -50.5t62 -12.5q51 0 68 16.5t17 52.5v84q-45 -63 -126 -63q-107 0 -150.5 50.5t-43.5 146.5v152q0 95 43 146t149 51q82 0 128 -63v55h192v-122h-48v-426q0 -102 -51 -145.5t-178 -43.5zM262 108q42 0 66 20.5t24 55.5
v163q0 36 -24 57t-66 21t-64 -21.5t-22 -60.5v-154q0 -81 86 -81z" />
    <glyph glyph-name="gcircumflex.salt_simple" horiz-adv-x="570" 
d="M267 -201q-112 0 -163 32t-61 114l141 26q5 -38 21 -50.5t62 -12.5q51 0 68 16.5t17 52.5v84q-45 -63 -126 -63q-107 0 -150.5 50.5t-43.5 146.5v152q0 95 43 146t149 51q82 0 128 -63v55h192v-122h-48v-426q0 -102 -51 -145.5t-178 -43.5zM262 108q42 0 66 20.5t24 55.5
v163q0 36 -24 57t-66 21t-64 -21.5t-22 -60.5v-154q0 -81 86 -81zM91 576l121 167h143l121 -167h-113l-79 75l-77 -75h-116z" />
    <glyph glyph-name="gbreve.salt_simple" horiz-adv-x="570" 
d="M267 -201q-112 0 -163 32t-61 114l141 26q5 -38 21 -50.5t62 -12.5q51 0 68 16.5t17 52.5v84q-45 -63 -126 -63q-107 0 -150.5 50.5t-43.5 146.5v152q0 95 43 146t149 51q82 0 128 -63v55h192v-122h-48v-426q0 -102 -51 -145.5t-178 -43.5zM262 108q42 0 66 20.5t24 55.5
v163q0 36 -24 57t-66 21t-64 -21.5t-22 -60.5v-154q0 -81 86 -81zM284 574q-97 0 -138.5 40t-41.5 114h115q0 -70 65 -70t65 70h115q0 -74 -41.5 -114t-138.5 -40z" />
    <glyph glyph-name="gdotaccent.salt_simple" horiz-adv-x="570" 
d="M267 -201q-112 0 -163 32t-61 114l141 26q5 -38 21 -50.5t62 -12.5q51 0 68 16.5t17 52.5v84q-45 -63 -126 -63q-107 0 -150.5 50.5t-43.5 146.5v152q0 95 43 146t149 51q82 0 128 -63v55h192v-122h-48v-426q0 -102 -51 -145.5t-178 -43.5zM262 108q42 0 66 20.5t24 55.5
v163q0 36 -24 57t-66 21t-64 -21.5t-22 -60.5v-154q0 -81 86 -81zM214 576v144h141v-144h-141z" />
    <glyph glyph-name="gcommaaccent.salt_simple" horiz-adv-x="570" 
d="M267 -201q-112 0 -163 32t-61 114l141 26q5 -38 21 -50.5t62 -12.5q51 0 68 16.5t17 52.5v84q-45 -63 -126 -63q-107 0 -150.5 50.5t-43.5 146.5v152q0 95 43 146t149 51q82 0 128 -63v55h192v-122h-48v-426q0 -102 -51 -145.5t-178 -43.5zM262 108q42 0 66 20.5t24 55.5
v163q0 36 -24 57t-66 21t-64 -21.5t-22 -60.5v-154q0 -81 86 -81zM216 576v139l41 102h77l-40 -102h58v-139h-136z" />
    <glyph glyph-name="u.salt_simple" horiz-adv-x="588" 
d="M294 -7q-227 0 -227 197v224h-52v122h244v-122h-49v-225q0 -80 84 -80q85 0 85 80v225h-46v122h240v-122h-51v-224q0 -197 -228 -197z" />
    <glyph glyph-name="ugrave.salt_simple" horiz-adv-x="588" 
d="M294 -7q-227 0 -227 197v224h-52v122h244v-122h-49v-225q0 -80 84 -80q85 0 85 80v225h-46v122h240v-122h-51v-224q0 -197 -228 -197zM232 576l-108 177h139l92 -177h-123z" />
    <glyph glyph-name="uacute.salt_simple" horiz-adv-x="588" 
d="M294 -7q-227 0 -227 197v224h-52v122h244v-122h-49v-225q0 -80 84 -80q85 0 85 80v225h-46v122h240v-122h-51v-224q0 -197 -228 -197zM231 576l93 179h138l-107 -179h-124z" />
    <glyph glyph-name="ucircumflex.salt_simple" horiz-adv-x="588" 
d="M294 -7q-227 0 -227 197v224h-52v122h244v-122h-49v-225q0 -80 84 -80q85 0 85 80v225h-46v122h240v-122h-51v-224q0 -197 -228 -197zM100 576l121 167h143l121 -167h-113l-79 75l-77 -75h-116z" />
    <glyph glyph-name="udieresis.salt_simple" horiz-adv-x="588" 
d="M294 -7q-227 0 -227 197v224h-52v122h244v-122h-49v-225q0 -80 84 -80q85 0 85 80v225h-46v122h240v-122h-51v-224q0 -197 -228 -197zM132 576v129h125v-129h-125zM329 576v129h125v-129h-125z" />
    <glyph glyph-name="utilde.salt_simple" horiz-adv-x="588" 
d="M294 -7q-227 0 -227 197v224h-52v122h244v-122h-49v-225q0 -80 84 -80q85 0 85 80v225h-46v122h240v-122h-51v-224q0 -197 -228 -197zM214 576h-100q0 70 22.5 104.5t82.5 34.5q31 0 76 -18t53 -18q26 0 26 36h100q0 -69 -23 -104t-84 -35q-30 0 -74.5 18t-52.5 18
q-26 0 -26 -36z" />
    <glyph glyph-name="umacron.salt_simple" horiz-adv-x="588" 
d="M294 -7q-227 0 -227 197v224h-52v122h244v-122h-49v-225q0 -80 84 -80q85 0 85 80v225h-46v122h240v-122h-51v-224q0 -197 -228 -197zM144 576v100h298v-100h-298z" />
    <glyph glyph-name="ubreve.salt_simple" horiz-adv-x="588" 
d="M294 -7q-227 0 -227 197v224h-52v122h244v-122h-49v-225q0 -80 84 -80q85 0 85 80v225h-46v122h240v-122h-51v-224q0 -197 -228 -197zM293 574q-97 0 -138.5 40t-41.5 114h115q0 -70 65 -70t65 70h115q0 -74 -41.5 -114t-138.5 -40z" />
    <glyph glyph-name="uring.salt_simple" horiz-adv-x="588" 
d="M294 -7q-227 0 -227 197v224h-52v122h244v-122h-49v-225q0 -80 84 -80q85 0 85 80v225h-46v122h240v-122h-51v-224q0 -197 -228 -197zM293 574q-121 0 -121 118q0 121 121 121q59 0 90 -28t31 -93q0 -63 -31 -90.5t-90 -27.5zM293 639q25 0 36.5 12.5t11.5 40.5
q0 55 -48 55t-48 -55q0 -53 48 -53z" />
    <glyph glyph-name="uhungarumlaut.salt_simple" horiz-adv-x="588" 
d="M294 -7q-227 0 -227 197v224h-52v122h244v-122h-49v-225q0 -80 84 -80q85 0 85 80v225h-46v122h240v-122h-51v-224q0 -197 -228 -197zM141 576l93 179h127l-108 -179h-112zM322 576l92 179h128l-108 -179h-112z" />
    <glyph glyph-name="uogonek.salt_simple" horiz-adv-x="588" 
d="M336 -198q-130 0 -130 103q0 53 26 93q-165 23 -165 192v224h-52v122h244v-122h-49v-225q0 -80 84 -80q85 0 85 80v225h-46v122h240v-122h-51v-224q0 -185 -201 -196q-23 -32 -23 -66q0 -26 11 -35t41 -9h46v-82h-60z" />
    <glyph glyph-name="registered.salt_big" horiz-adv-x="734" 
d="M368 -8q-155 0 -236 71.5t-81 203.5v216q0 133 81.5 204t235.5 71t234.5 -71t80.5 -204v-216q0 -132 -80.5 -203.5t-234.5 -71.5zM368 49q253 0 253 219v214q0 219 -253 219q-126 0 -190 -56t-64 -163v-214q0 -219 254 -219zM407 138v79h9l-47 98h-56v-98h34v-79h-167v79
h38v316h-38v82h200q82 0 118 -31.5t36 -99.5v-38q0 -88 -74 -116l54 -113h39v-79h-146zM313 390h67q37 0 50.5 12.5t13.5 47.5v27q0 34 -13 46.5t-49 12.5h-69v-146z" />
    <glyph glyph-name="zero.tab" 
d="M310 -8q-260 0 -260 256v254q0 256 260 256t260 -256v-254q0 -129 -67 -192.5t-193 -63.5zM310 118q64 0 88.5 32.5t24.5 105.5v234q0 74 -24.5 106.5t-88.5 32.5t-88.5 -32.5t-24.5 -106.5v-234q0 -73 24 -105.5t89 -32.5z" />
    <glyph glyph-name="zero.tab_salt_slash" 
d="M310 -8q-260 0 -260 256v254q0 256 260 256t260 -256v-254q0 -129 -67 -192.5t-193 -63.5zM310 110q66 0 91.5 34t25.5 109v240v8l-167 -385q21 -6 50 -6zM193 253v-4l164 381q-19 6 -47 6q-67 0 -92 -33.5t-25 -109.5v-240z" />
    <glyph glyph-name="one.tab" 
d="M117 0v124h142v498h-149v128h296v-626h129v-124h-418z" />
    <glyph glyph-name="two.tab" 
d="M71 0v115q0 59 18.5 106t48.5 77.5t66 55t71.5 44t65.5 39t48.5 46.5t18.5 60q0 48 -21.5 68.5t-74.5 20.5q-51 0 -74.5 -26t-27.5 -91l-140 14q8 107 61 168t178 61q77 0 127 -16t74 -48t32.5 -66.5t8.5 -84.5q0 -68 -35 -119t-84.5 -81.5t-99 -57.5t-84.5 -63.5
t-35 -82.5v-22h221v112h125v-229h-488z" />
    <glyph glyph-name="three.tab" 
d="M308 -8q-73 0 -122.5 16.5t-77.5 50t-40.5 73t-17.5 95.5l142 14q6 -66 31 -96t85 -30q59 0 84 25.5t25 84.5q0 60 -21.5 81.5t-79.5 21.5h-108v123h107q55 0 74 21.5t19 70.5q0 44 -21.5 66t-79.5 22t-81.5 -26.5t-29.5 -87.5l-137 14q9 110 64 168.5t185 58.5
q134 0 188 -47.5t54 -141.5q0 -69 -22 -107.5t-77 -58.5q61 -18 84.5 -61.5t23.5 -125.5q0 -114 -59 -169t-192 -55z" />
    <glyph glyph-name="four.tab" 
d="M276 0v124h87v85h-322v114l277 427h152l-279 -427h172v118h134v-118h86v-114h-86v-85h84v-124h-305z" />
    <glyph glyph-name="five.tab" 
d="M404 543v88h-188l-8 -167q47 34 126 34q113 0 167.5 -46.5t54.5 -175.5v-49q0 -124 -57 -179.5t-188 -55.5q-134 0 -187 54t-65 180l139 13q6 -68 29 -96t84 -28q58 0 81.5 27t23.5 84v38q0 64 -24 90t-85 26q-66 0 -112 -25l-120 42l11 353h443v-207h-125z" />
    <glyph glyph-name="six.tab" 
d="M315 -8q-120 0 -185.5 57t-65.5 173v280q0 256 248 256q114 0 176.5 -47.5t71.5 -159.5l-139 -13q-4 53 -28 73t-81 20q-56 0 -81.5 -30t-25.5 -93v-79q43 58 137 58q114 0 169 -53t55 -170v-38q0 -234 -251 -234zM315 119q110 0 110 111v24q0 58 -26.5 84.5t-83.5 26.5
t-83.5 -27t-26.5 -84v-24q0 -56 26.5 -83.5t83.5 -27.5z" />
    <glyph glyph-name="seven.tab" 
d="M64 543v207h485v-119l-239 -631h-148l238 631h-209v-88h-127z" />
    <glyph glyph-name="eight.tab" 
d="M310 -8q-137 0 -196 56t-59 143v36q0 66 24.5 110t86.5 67q-57 21 -81 56.5t-24 89.5v29q0 81 62 130t187 49q126 0 187.5 -48t61.5 -131v-29q0 -108 -106 -146q63 -23 88 -67t25 -110v-36q0 -87 -59.5 -143t-196.5 -56zM310 109q116 0 116 100v27q0 103 -116 103
q-115 0 -115 -103v-27q0 -100 115 -100zM310 450q108 0 108 86v16q0 86 -108 86t-108 -86v-16q0 -86 108 -86z" />
    <glyph glyph-name="nine.tab" 
d="M308 -8q-114 0 -176.5 47.5t-71.5 159.5l140 13q4 -53 27 -75t81 -22q56 0 82 30.5t26 94.5v81q-37 -57 -138 -57q-114 0 -168.5 52.5t-54.5 170.5v37q0 234 251 234q119 0 184.5 -57t65.5 -173v-280q0 -256 -248 -256zM306 381q57 0 83.5 26t26.5 83v25q0 112 -110 112
q-111 0 -111 -112v-25q0 -58 26.5 -83.5t84.5 -25.5z" />
    <glyph glyph-name="plus.tab" 
d="M247 156v163h-151v116h151v159h126v-159h152v-116h-152v-163h-126z" />
    <glyph glyph-name="minus.tab" 
d="M96 319v116h429v-116h-429z" />
    <glyph glyph-name="multiply.tab" 
d="M178 164l-80 81l132 132l-132 132l80 81l132 -132l133 133l80 -82l-133 -132l133 -132l-80 -81l-133 131z" />
    <glyph glyph-name="divide.tab" 
d="M244 123v127h131v-127h-131zM96 319v116h429v-116h-429zM244 500v127h131v-127h-131z" />
    <glyph glyph-name="equal.tab" 
d="M96 213v119h429v-119h-429zM96 422v119h429v-119h-429z" />
    <glyph glyph-name="less.tab" 
d="M525 152l-429 158v125l429 161v-119l-302 -105l302 -103v-117z" />
    <glyph glyph-name="greater.tab" 
d="M97 152v117l302 103l-302 105v119l429 -161v-125z" />
    <glyph glyph-name="dollar.tab" 
d="M239 -124v129q-41 13 -67 45v-50h-111v238h124q7 -72 34 -97.5t90 -25.5q67 0 91.5 23t24.5 77q0 47 -27 68t-98 41l-53.5 15.5t-48 16.5t-45 21t-35.5 27t-29.5 36t-16.5 46t-7 60q0 180 174 204v125h131v-129q35 -9 62 -41v45h111v-225h-124q-4 61 -29 83.5t-82 22.5
q-55 0 -78.5 -18.5t-23.5 -62.5t29.5 -63t103.5 -38q47 -12 74 -21.5t60 -27.5t50.5 -40t30 -58t12.5 -84q0 -101 -44.5 -155.5t-151.5 -63.5v-123h-131z" />
    <glyph glyph-name="cent.tab" 
d="M245 -124v124q-157 28 -157 196v144q0 172 158 197v110h128v-116q21 -8 39 -26v31h107v-194h-120q-5 48 -21.5 65.5t-61.5 17.5q-85 0 -85 -82v-154q0 -81 80 -81q47 0 62 16t22 60l125 -18q-11 -73 -41 -113.5t-106 -52.5v-124h-129z" />
    <glyph glyph-name="Euro.tab" 
d="M21 402v108h78q2 124 63.5 186t169.5 62q93 0 138 -55v47h114v-236h-126q-5 68 -27.5 92t-84.5 24q-60 0 -82.5 -29.5t-24.5 -90.5h151v-108h-151v-53h151v-108h-151q1 -66 22 -96.5t86 -30.5q62 0 81 28t25 102l135 -17q-15 -127 -68 -181t-173 -54q-119 0 -183 62
t-65 187h-78v108h78v53h-78z" />
    <glyph glyph-name="sterling.tab" 
d="M54 310v114h63q-21 72 -21 118q0 216 236 216q121 0 175.5 -53t62.5 -175l-139 -14q-6 66 -26.5 92t-72.5 26q-55 0 -75.5 -23.5t-20.5 -70.5q0 -38 21 -116h177v-114h-149q5 -32 5 -54q0 -93 -41 -141h192v114h125v-229h-479v102q63 80 63 159q0 21 -5 49h-91z" />
    <glyph glyph-name="yen.tab" 
d="M64 318v107h106l-110 197h-41v128h249v-128h-64l112 -210h2l111 210h-51v128h222v-128h-42l-110 -197h106v-107h-166l-9 -17v-29h175v-108h-175v-44h64v-120h-268v120h65v44h-176v108h176v29l-10 17h-166z" />
    <glyph glyph-name="florin.tab" 
d="M224 -198v533h-106v118h106v122q0 89 38.5 132t137.5 43h101v-127h-83q-30 0 -40.5 -13.5t-10.5 -44.5v-112h134v-118h-134v-533h-143z" />
    <glyph glyph-name="numbersign.tab" 
d="M86 0l23 204h-74v118h88l12 102h-100v119h113l25 207h133l-25 -207h95l25 207h132l-24 -207h76v-119h-89l-12 -102h101v-118h-115l-24 -204h-133l25 204h-96l-24 -204h-132zM254 320h99l13 106h-100z" />
    <glyph glyph-name="prime.tab" horiz-adv-x="310" 
d="M74 478l73 272h136l-87 -272h-122z" />
    <glyph glyph-name="primedbl.tab" 
d="M123 478l73 272h129l-87 -272h-115zM342 478l72 272h129l-88 -272h-113z" />
    <glyph glyph-name="period.tab" horiz-adv-x="310" 
d="M72 0v169h166v-169h-166z" />
    <glyph glyph-name="comma.tab" horiz-adv-x="310" 
d="M94 -123l49 123h-71v169h166v-169l-50 -123h-94z" />
    <glyph glyph-name="colon.tab" horiz-adv-x="310" 
d="M76 0v162h158v-162h-158zM76 374v162h158v-162h-158z" />
    <glyph glyph-name="semicolon.tab" horiz-adv-x="310" 
d="M91 -123l48 123h-63v162h158v-162l-49 -123h-94zM76 374v162h158v-162h-158z" />
    <glyph glyph-name="hyphen.tab" 
d="M122 319v124h375v-124h-375z" />
    <glyph glyph-name="parenleft.tab" horiz-adv-x="310" 
d="M262 -70q-126 0 -180 61t-54 192v385q0 131 54 191.5t180 60.5h35v-123h-35q-53 0 -73 -29.5t-20 -106.5v-371q0 -77 20 -107t73 -30h35v-123h-35z" />
    <glyph glyph-name="parenright.tab" horiz-adv-x="310" 
d="M12 -70v123h35q53 0 73 30t20 107v370q0 77 -19.5 106.5t-73.5 29.5h-35v123h35q126 0 180 -60t54 -191v-385q0 -131 -54 -192t-180 -61h-35z" />
    <glyph glyph-name="space.tab" horiz-adv-x="310" 
 />
    <glyph glyph-name="space.tab_em" horiz-adv-x="1240" 
 />
    <glyph glyph-name="space.tab_thin" horiz-adv-x="155" 
 />
    <glyph glyph-name="space.frac" horiz-adv-x="100" 
 />
    <glyph glyph-name="zero.numr" horiz-adv-x="448" 
d="M225 222q-91 0 -144 45t-53 134v178q0 89 53 134t144 45q90 0 142.5 -45t52.5 -134v-178q0 -89 -52.5 -134t-142.5 -45zM225 328q40 0 57.5 19t17.5 60v163q0 43 -17.5 61.5t-57.5 18.5q-41 0 -58.5 -18.5t-17.5 -61.5v-163q0 -41 18 -60t58 -19z" />
    <glyph glyph-name="one.numr" horiz-adv-x="269" 
d="M11 228v99h75v318h-74v108h195v-426h68v-99h-264z" />
    <glyph glyph-name="two.numr" horiz-adv-x="410" 
d="M24 228v82q0 54 25.5 94.5t61.5 63.5t72 42t61.5 42t25.5 51q0 29 -16 41t-48 12q-35 0 -51 -18t-18 -54l-116 10q5 73 49.5 118.5t133.5 45.5q103 0 143.5 -43.5t40.5 -115.5q0 -37 -18 -68.5t-45.5 -51t-59 -39t-59 -33.5t-45.5 -32.5t-18 -37.5v-13h145v64h102v-160
h-366z" />
    <glyph glyph-name="three.numr" horiz-adv-x="429" 
d="M214 222q-104 0 -146 42t-49 123l113 11q5 -44 23 -61.5t61 -17.5q39 0 55.5 16.5t16.5 52.5t-15.5 51t-51.5 15h-92v92h91q38 0 50 15t12 45q0 24 -14.5 38t-53.5 14q-41 0 -56.5 -14t-18.5 -55l-114 9q7 78 48.5 119t140.5 41q183 0 183 -132q0 -47 -16.5 -74.5
t-56.5 -42.5q46 -12 63 -42t17 -88q0 -157 -190 -157z" />
    <glyph glyph-name="four.numr" horiz-adv-x="445" 
d="M201 228v99h62v56h-242v85l202 285h123l-205 -285h122v98h105v-98h60v-85h-60v-56h60v-99h-227z" />
    <glyph glyph-name="five.numr" horiz-adv-x="424" 
d="M282 619v46h-134l-4 -99q36 16 86 16q82 0 125 -34.5t43 -125.5v-36q0 -85 -45 -124.5t-140 -39.5q-99 0 -140.5 38.5t-49.5 125.5l114 10q3 -40 19 -57.5t57 -17.5q70 0 70 70v28q0 38 -17 54t-57 16q-56 0 -90 -18l-86 30l8 252h340v-134h-99z" />
    <glyph glyph-name="six.numr" horiz-adv-x="431" 
d="M218 222q-86 0 -137.5 40.5t-51.5 120.5v196q0 89 49.5 134t137.5 45q176 0 188 -145l-115 -9q-3 30 -18.5 41.5t-54.5 11.5t-56 -17.5t-17 -56.5v-47q29 36 95 36q170 0 170 -152v-34q0 -84 -51 -124t-139 -40zM218 322q39 0 57 15.5t18 48.5v27q0 34 -17.5 49t-57.5 15
q-39 0 -57 -15t-18 -49v-27q0 -33 18 -48.5t57 -15.5z" />
    <glyph glyph-name="seven.numr" horiz-adv-x="377" 
d="M14 619v134h353v-87l-171 -438h-121l173 438h-136v-47h-98z" />
    <glyph glyph-name="eight.numr" horiz-adv-x="434" 
d="M217 222q-97 0 -145 40t-48 99v25q0 95 78 124q-74 28 -74 103v20q0 55 50 90t139 35q90 0 139 -33.5t49 -91.5v-20q0 -75 -74 -103q45 -16 62 -46.5t17 -77.5v-25q0 -59 -48 -99t-145 -40zM217 316q78 0 78 61v20q0 63 -78 63q-77 0 -77 -63v-20q0 -61 77 -61zM217 547
q72 0 72 51v14q0 51 -72 51t-72 -51v-14q0 -51 72 -51z" />
    <glyph glyph-name="nine.numr" horiz-adv-x="431" 
d="M214 222q-175 0 -187 145l114 10q3 -31 18.5 -42.5t54.5 -11.5t56.5 18t17.5 56v47q-27 -36 -95 -36q-170 0 -170 152v34q0 84 50.5 124t138.5 40q87 0 138.5 -40.5t51.5 -120.5v-196q0 -90 -49.5 -134.5t-138.5 -44.5zM212 502q40 0 58 15t18 48v27q0 64 -76 64
q-74 0 -74 -64v-27q0 -34 17.5 -48.5t56.5 -14.5z" />
    <glyph glyph-name="zero.dnom" horiz-adv-x="448" 
d="M225 -5q-91 0 -144 45t-53 134v178q0 89 53 134t144 45q90 0 142.5 -45t52.5 -134v-178q0 -89 -52.5 -134t-142.5 -45zM225 101q40 0 57.5 19t17.5 60v163q0 43 -17.5 61.5t-57.5 18.5q-41 0 -58.5 -18.5t-17.5 -61.5v-163q0 -41 18 -60t58 -19z" />
    <glyph glyph-name="one.dnom" horiz-adv-x="269" 
d="M11 1v99h75v318h-74v108h195v-426h68v-99h-264z" />
    <glyph glyph-name="two.dnom" horiz-adv-x="410" 
d="M24 0v82q0 54 25.5 94.5t61.5 64t72 42.5t61.5 41.5t25.5 50.5q0 54 -64 54q-35 0 -51 -18t-18 -54l-116 9q5 73 49.5 118.5t133.5 45.5q104 0 144 -43t40 -116q0 -37 -18 -68.5t-45.5 -51t-59 -39t-59 -33.5t-45.5 -32.5t-18 -37.5v-13h145v65h102v-161h-366z" />
    <glyph glyph-name="three.dnom" horiz-adv-x="429" 
d="M214 -5q-104 0 -146 42t-49 123l113 11q5 -45 23 -62t61 -17q39 0 55.5 16.5t16.5 51.5q0 37 -15.5 52t-51.5 15h-92v92h91q38 0 50 14.5t12 44.5q0 25 -14.5 39t-53.5 14q-41 0 -56.5 -14.5t-18.5 -54.5l-114 9q7 78 48.5 119t140.5 41q183 0 183 -132
q0 -48 -16.5 -75.5t-56.5 -41.5q46 -13 63 -43t17 -87q0 -157 -190 -157z" />
    <glyph glyph-name="four.dnom" horiz-adv-x="445" 
d="M201 0v99h62v56h-242v86l202 284h123l-205 -284h122v97h105v-97h60v-86h-60v-56h60v-99h-227z" />
    <glyph glyph-name="five.dnom" horiz-adv-x="424" 
d="M282 392v46h-134l-4 -99q36 16 86 16q82 0 125 -34.5t43 -125.5v-36q0 -85 -45 -124.5t-140 -39.5q-99 0 -140.5 38.5t-49.5 125.5l114 10q3 -40 19 -57.5t57 -17.5q70 0 70 70v28q0 38 -17 54t-57 16q-56 0 -90 -18l-86 30l8 252h340v-134h-99z" />
    <glyph glyph-name="six.dnom" horiz-adv-x="431" 
d="M218 -5q-86 0 -137.5 40.5t-51.5 120.5v196q0 89 49.5 134t137.5 45q176 0 188 -145l-115 -9q-3 30 -18.5 41.5t-54.5 11.5t-56 -17.5t-17 -56.5v-47q29 36 95 36q170 0 170 -152v-34q0 -84 -51 -124t-139 -40zM218 95q39 0 57 15.5t18 48.5v27q0 34 -17.5 49t-57.5 15
q-39 0 -57 -15t-18 -49v-27q0 -33 18 -48.5t57 -15.5z" />
    <glyph glyph-name="seven.dnom" horiz-adv-x="377" 
d="M14 392v134h353v-87l-171 -438h-121l173 438h-136v-47h-98z" />
    <glyph glyph-name="eight.dnom" horiz-adv-x="434" 
d="M217 -5q-97 0 -145 40t-48 99v25q0 95 78 124q-74 28 -74 103v20q0 55 50 90t139 35q90 0 139 -33.5t49 -91.5v-20q0 -75 -74 -103q45 -16 62 -46.5t17 -77.5v-25q0 -59 -48 -99t-145 -40zM217 89q78 0 78 61v20q0 63 -78 63q-77 0 -77 -63v-20q0 -61 77 -61zM217 320
q72 0 72 51v14q0 51 -72 51t-72 -51v-14q0 -51 72 -51z" />
    <glyph glyph-name="nine.dnom" horiz-adv-x="431" 
d="M214 -5q-175 0 -187 145l114 10q3 -31 18.5 -42.5t54.5 -11.5t56.5 18t17.5 56v47q-27 -36 -95 -36q-170 0 -170 152v34q0 84 50.5 124t138.5 40q87 0 138.5 -40.5t51.5 -120.5v-196q0 -90 -49.5 -134.5t-138.5 -44.5zM212 275q40 0 58 15t18 48v27q0 64 -76 64
q-74 0 -74 -64v-27q0 -34 17.5 -48.5t56.5 -14.5z" />
    <glyph glyph-name="onesuperior" horiz-adv-x="329" 
d="M41 250v99h75v318h-74v108h195v-426h68v-99h-264z" />
    <glyph glyph-name="twosuperior" horiz-adv-x="470" 
d="M54 250v82q0 54 25.5 94.5t61.5 63.5t72 42t61.5 42t25.5 51q0 29 -16 41t-48 12q-35 0 -51 -18t-18 -54l-116 10q5 73 49.5 118.5t133.5 45.5q103 0 143.5 -43.5t40.5 -115.5q0 -37 -18 -68.5t-45.5 -51t-59 -39t-59 -33.5t-45.5 -32.5t-18 -37.5v-13h145v64h102v-160
h-366z" />
    <glyph glyph-name="threesuperior" horiz-adv-x="489" 
d="M244 244q-104 0 -146 42t-49 123l113 11q5 -45 23 -62t61 -17q39 0 55.5 16.5t16.5 51.5q0 37 -15.5 52t-51.5 15h-92v92h91q38 0 50 14.5t12 44.5q0 25 -14.5 39t-53.5 14q-41 0 -56.5 -14.5t-18.5 -54.5l-114 9q7 78 48.5 119t140.5 41q183 0 183 -132
q0 -48 -16.5 -75.5t-56.5 -41.5q46 -13 63 -43t17 -87q0 -157 -190 -157z" />
    </font>
</defs>
</svg>
